<?xml version="1.0" encoding="UTF-8"?>
<svg xmlns="http://www.w3.org/2000/svg" xmlns:xlink="http://www.w3.org/1999/xlink" width="4000" height="4000" viewBox="0 0 4000 4000">
<rect x="-400" y="-400" width="4800" height="4800" fill="rgb(99.609375%, 99.609375%, 99.609375%)" fill-opacity="1"/>
<path fill-rule="evenodd" fill="rgb(0%, 0%, 0%)" fill-opacity="1" d="M 1262.941406 1853.03125 C 1246.359375 1850.761719 1233.578125 1836.53125 1233.578125 1819.320312 C 1233.578125 1800.53125 1248.808594 1785.300781 1267.601562 1785.300781 C 1282.800781 1785.300781 1295.671875 1795.269531 1300.039062 1809.019531 L 1339.519531 1809.019531 C 1334.519531 1773.78125 1304.230469 1746.679688 1267.601562 1746.679688 C 1227.480469 1746.679688 1194.960938 1779.199219 1194.960938 1819.320312 C 1194.960938 1836.199219 1200.710938 1851.738281 1210.371094 1864.070312 C 1223.671875 1881.050781 1244.359375 1891.960938 1267.601562 1891.960938 L 2732.449219 1891.960938 C 2755.691406 1891.960938 2776.378906 1881.050781 2789.671875 1864.070312 C 2799.328125 1851.738281 2805.089844 1836.199219 2805.089844 1819.320312 C 2805.089844 1779.199219 2772.570312 1746.679688 2732.449219 1746.679688 C 2695.820312 1746.679688 2665.53125 1773.78125 2660.53125 1809.019531 L 2700.011719 1809.019531 C 2704.371094 1795.269531 2717.238281 1785.300781 2732.449219 1785.300781 C 2751.238281 1785.300781 2766.46875 1800.53125 2766.46875 1819.320312 C 2766.46875 1836.53125 2753.691406 1850.761719 2737.101562 1853.03125 L 1262.941406 1853.03125 "/>
<path fill-rule="evenodd" fill="rgb(0%, 0%, 0%)" fill-opacity="1" d="M 1262.941406 2177.570312 C 1246.359375 2179.839844 1233.578125 2194.058594 1233.578125 2211.28125 C 1233.578125 2230.070312 1248.808594 2245.300781 1267.601562 2245.300781 C 1282.800781 2245.300781 1295.671875 2235.328125 1300.039062 2221.570312 L 1339.519531 2221.570312 C 1334.519531 2256.820312 1304.230469 2283.921875 1267.601562 2283.921875 C 1227.480469 2283.921875 1194.960938 2251.398438 1194.960938 2211.28125 C 1194.960938 2194.398438 1200.710938 2178.859375 1210.371094 2166.53125 C 1223.671875 2149.539062 1244.359375 2138.628906 1267.601562 2138.628906 L 2732.449219 2138.628906 C 2755.691406 2138.628906 2776.378906 2149.539062 2789.671875 2166.53125 C 2799.328125 2178.859375 2805.089844 2194.398438 2805.089844 2211.28125 C 2805.089844 2251.398438 2772.570312 2283.921875 2732.449219 2283.921875 C 2695.820312 2283.921875 2665.53125 2256.820312 2660.53125 2221.570312 L 2700.011719 2221.570312 C 2704.371094 2235.328125 2717.238281 2245.300781 2732.449219 2245.300781 C 2751.238281 2245.300781 2766.46875 2230.070312 2766.46875 2211.28125 C 2766.46875 2194.058594 2753.691406 2179.839844 2737.101562 2177.570312 L 1262.941406 2177.570312 "/>
<path fill-rule="evenodd" fill="rgb(0%, 0%, 0%)" fill-opacity="1" d="M 1182.988281 1255.460938 L 2817.011719 1255.460938 L 2479.808594 1839.5 L 2565.238281 1839.5 L 2945.160156 1181.46875 L 1054.839844 1181.46875 L 1434.761719 1839.5 L 1520.191406 1839.5 Z M 2276.820312 2191.089844 L 2000 2670.558594 L 1723.179688 2191.089844 L 1637.75 2191.089844 L 2000 2818.53125 L 2362.25 2191.089844 L 2276.820312 2191.089844 "/>
<path fill-rule="nonzero" fill="rgb(0%, 0%, 0%)" fill-opacity="1" d="M 2000 2611.429688 L 2222.910156 2191.089844 L 2242.640625 2191.089844 L 2000 2648.628906 L 1757.359375 2191.089844 L 1777.089844 2191.089844 Z M 2409.371094 1839.5 L 2653.738281 1378.710938 L 1346.261719 1378.710938 L 1590.628906 1839.5 L 1570.898438 1839.5 L 1317.269531 1361.238281 L 2682.730469 1361.238281 L 2429.101562 1839.5 L 2409.371094 1839.5 "/>
<path fill-rule="evenodd" fill="rgb(0%, 0%, 0%)" fill-opacity="1" d="M 1976.5 2299.78125 L 1993.808594 2246.148438 C 1962.109375 2248.421875 1935.828125 2270.28125 1927.011719 2299.691406 L 1976.5 2299.78125 "/>
<path fill-rule="evenodd" fill="rgb(0%, 0%, 0%)" fill-opacity="1" d="M 2004.769531 2246.148438 L 2022.078125 2299.78125 L 2071.570312 2299.691406 C 2062.75 2270.28125 2036.46875 2248.421875 2004.769531 2246.148438 "/>
<path fill-rule="evenodd" fill="rgb(0%, 0%, 0%)" fill-opacity="1" d="M 2074.511719 2315.378906 L 2036.160156 2343.128906 L 2047.929688 2379.101562 C 2064.328125 2365.261719 2074.75 2344.550781 2074.75 2321.410156 C 2074.75 2319.378906 2074.671875 2317.371094 2074.511719 2315.378906 "/>
<path fill-rule="evenodd" fill="rgb(0%, 0%, 0%)" fill-opacity="1" d="M 2028.308594 2391.078125 L 1999.289062 2369.910156 L 1970.269531 2391.078125 C 1979.210938 2394.808594 1989.011719 2396.871094 1999.289062 2396.871094 C 2009.570312 2396.871094 2019.378906 2394.808594 2028.308594 2391.078125 "/>
<path fill-rule="evenodd" fill="rgb(0%, 0%, 0%)" fill-opacity="1" d="M 1950.648438 2379.101562 L 1962.421875 2343.128906 L 1924.070312 2315.378906 C 1923.910156 2317.371094 1923.828125 2319.378906 1923.828125 2321.410156 C 1923.828125 2344.550781 1934.25 2365.261719 1950.648438 2379.101562 "/>
<path fill-rule="evenodd" fill="rgb(0%, 0%, 0%)" fill-opacity="1" d="M 1924.070312 2315.378906 C 1924.5 2309.96875 1925.5 2304.71875 1927.011719 2299.691406 L 1902.320312 2299.640625 L 1924.070312 2315.378906 "/>
<path fill-rule="evenodd" fill="rgb(0%, 0%, 0%)" fill-opacity="1" d="M 2071.570312 2299.691406 C 2073.078125 2304.71875 2074.078125 2309.96875 2074.511719 2315.378906 L 2096.261719 2299.640625 L 2071.570312 2299.691406 "/>
<path fill-rule="evenodd" fill="rgb(0%, 0%, 0%)" fill-opacity="1" d="M 1970.269531 2391.078125 C 1963.109375 2388.101562 1956.5 2384.03125 1950.648438 2379.101562 L 1939.359375 2413.628906 L 1970.269531 2391.078125 "/>
<path fill-rule="evenodd" fill="rgb(0%, 0%, 0%)" fill-opacity="1" d="M 2028.308594 2391.078125 L 2059.21875 2413.628906 L 2047.929688 2379.101562 C 2042.078125 2384.03125 2035.480469 2388.101562 2028.308594 2391.078125 "/>
<path fill-rule="evenodd" fill="rgb(0%, 0%, 0%)" fill-opacity="1" d="M 1999.289062 2245.949219 C 2001.128906 2245.949219 2002.960938 2246.019531 2004.769531 2246.148438 L 1999.289062 2229.179688 L 1993.808594 2246.148438 C 1995.621094 2246.019531 1997.449219 2245.949219 1999.289062 2245.949219 "/>
<path fill-rule="evenodd" fill="rgb(0%, 0%, 0%)" fill-opacity="1" d="M 1467.210938 2032.628906 L 1482.589844 2036.511719 C 1479.371094 2049.109375 1473.601562 2058.691406 1465.261719 2065.300781 C 1456.929688 2071.921875 1446.730469 2075.230469 1434.660156 2075.230469 C 1422.199219 2075.230469 1412.050781 2072.699219 1404.230469 2067.601562 C 1396.398438 2062.53125 1390.46875 2055.160156 1386.390625 2045.53125 C 1382.320312 2035.871094 1380.269531 2025.53125 1380.269531 2014.46875 C 1380.269531 2002.410156 1382.558594 1991.878906 1387.171875 1982.898438 C 1391.789062 1973.910156 1398.339844 1967.089844 1406.839844 1962.421875 C 1415.339844 1957.75 1424.710938 1955.429688 1434.910156 1955.429688 C 1446.511719 1955.429688 1456.25 1958.371094 1464.128906 1964.28125 C 1472.039062 1970.191406 1477.539062 1978.46875 1480.640625 1989.160156 L 1465.589844 1992.71875 C 1462.921875 1984.300781 1459 1978.148438 1453.898438 1974.320312 C 1448.800781 1970.460938 1442.378906 1968.539062 1434.640625 1968.539062 C 1425.761719 1968.539062 1418.308594 1970.671875 1412.351562 1974.941406 C 1406.390625 1979.199219 1402.179688 1984.949219 1399.769531 1992.128906 C 1397.351562 1999.328125 1396.128906 2006.75 1396.128906 2014.390625 C 1396.128906 2024.238281 1397.558594 2032.839844 1400.421875 2040.179688 C 1403.28125 2047.550781 1407.730469 2053.03125 1413.78125 2056.671875 C 1419.820312 2060.308594 1426.351562 2062.121094 1433.398438 2062.121094 C 1441.980469 2062.121094 1449.210938 2059.640625 1455.140625 2054.699219 C 1461.078125 2049.738281 1465.101562 2042.398438 1467.210938 2032.628906 Z M 1496.859375 2016.871094 C 1496.859375 1997.660156 1502.039062 1982.601562 1512.378906 1971.730469 C 1522.710938 1960.851562 1536.039062 1955.429688 1552.390625 1955.429688 C 1563.101562 1955.429688 1572.738281 1957.988281 1581.339844 1963.089844 C 1589.921875 1968.191406 1596.480469 1975.320312 1600.988281 1984.460938 C 1605.488281 1993.578125 1607.761719 2003.941406 1607.761719 2015.519531 C 1607.761719 2027.261719 1605.390625 2037.78125 1600.640625 2047.039062 C 1595.890625 2056.320312 1589.171875 2063.328125 1580.480469 2068.078125 C 1571.761719 2072.859375 1562.378906 2075.230469 1552.308594 2075.230469 C 1541.378906 2075.230469 1531.640625 2072.589844 1523.03125 2067.328125 C 1514.449219 2062.070312 1507.921875 2054.890625 1503.5 2045.769531 C 1499.070312 2036.679688 1496.859375 2027.039062 1496.859375 2016.871094 Z M 1512.730469 2017.140625 C 1512.730469 2031.089844 1516.480469 2042.070312 1523.980469 2050.089844 C 1531.480469 2058.101562 1540.898438 2062.121094 1552.230469 2062.121094 C 1563.78125 2062.121094 1573.25 2058.070312 1580.71875 2049.980469 C 1588.171875 2041.878906 1591.890625 2030.390625 1591.890625 2015.488281 C 1591.890625 2006.078125 1590.300781 1997.851562 1587.121094 1990.828125 C 1583.929688 1983.820312 1579.269531 1978.371094 1573.140625 1974.511719 C 1566.988281 1970.648438 1560.109375 1968.710938 1552.46875 1968.710938 C 1541.621094 1968.710938 1532.289062 1972.429688 1524.460938 1979.878906 C 1516.640625 1987.320312 1512.730469 1999.738281 1512.730469 2017.140625 Z M 1627.160156 2073.289062 L 1627.160156 1957.371094 L 1650.148438 1957.371094 L 1677.570312 2039.429688 C 1680.101562 2047.058594 1681.941406 2052.78125 1683.101562 2056.589844 C 1684.421875 2052.378906 1686.5 2046.171875 1689.300781 2038 L 1717.199219 1957.371094 L 1737.738281 1957.371094 L 1737.738281 2073.289062 L 1723 2073.289062 L 1723 1976.308594 L 1689.171875 2073.289062 L 1675.351562 2073.289062 L 1641.890625 1974.53125 L 1641.890625 2073.289062 Z M 1762.351562 2073.289062 L 1762.351562 1957.371094 L 1806.109375 1957.371094 C 1813.800781 1957.371094 1819.691406 1957.75 1823.761719 1958.480469 C 1829.449219 1959.421875 1834.230469 1961.230469 1838.089844 1963.871094 C 1841.949219 1966.550781 1845.050781 1970.269531 1847.398438 1975.050781 C 1849.738281 1979.820312 1850.910156 1985.078125 1850.910156 1990.828125 C 1850.910156 2000.648438 1847.78125 2008.988281 1841.488281 2015.789062 C 1835.230469 2022.621094 1823.871094 2026.019531 1807.460938 2026.019531 L 1777.730469 2026.019531 L 1777.730469 2073.289062 Z M 1777.730469 2012.421875 L 1807.679688 2012.421875 C 1817.609375 2012.421875 1824.621094 2010.578125 1828.808594 2006.890625 C 1832.960938 2003.191406 1835.039062 1998.011719 1835.039062 1991.289062 C 1835.039062 1986.460938 1833.820312 1982.300781 1831.371094 1978.851562 C 1828.910156 1975.398438 1825.679688 1973.101562 1821.679688 1972 C 1819.089844 1971.320312 1814.320312 1970.96875 1807.378906 1970.96875 L 1777.730469 1970.96875 Z M 1845.621094 2073.289062 L 1890.078125 1957.371094 L 1906.949219 1957.371094 L 1954.140625 2073.289062 L 1936.679688 2073.289062 L 1923.269531 2038.160156 L 1874.460938 2038.160156 L 1861.890625 2073.289062 Z M 1878.96875 2025.691406 L 1918.46875 2025.691406 L 1906.378906 1993.558594 C 1902.738281 1983.789062 1899.988281 1975.71875 1898.070312 1969.351562 C 1896.480469 1976.910156 1894.351562 1984.328125 1891.679688 1991.671875 Z M 1966.148438 2073.289062 L 1966.148438 1957.371094 L 1981.910156 1957.371094 L 2042.730469 2048.359375 L 2042.730469 1957.371094 L 2057.460938 1957.371094 L 2057.460938 2073.289062 L 2041.699219 2073.289062 L 1980.878906 1982.300781 L 1980.878906 2073.289062 Z M 2085.820312 2073.289062 L 2085.820312 1957.371094 L 2101.199219 1957.371094 L 2101.199219 2073.289062 Z M 2173.03125 2073.289062 L 2173.03125 1957.371094 L 2188.789062 1957.371094 L 2249.609375 2048.359375 L 2249.609375 1957.371094 L 2264.339844 1957.371094 L 2264.339844 2073.289062 L 2248.578125 2073.289062 L 2187.761719 1982.300781 L 2187.761719 2073.289062 Z M 2277.398438 2073.289062 L 2321.871094 1957.371094 L 2338.730469 1957.371094 L 2385.929688 2073.289062 L 2368.46875 2073.289062 L 2355.058594 2038.160156 L 2306.238281 2038.160156 L 2293.671875 2073.289062 Z M 2310.75 2025.691406 L 2350.25 2025.691406 L 2338.171875 1993.558594 C 2334.519531 1983.789062 2331.769531 1975.71875 2329.851562 1969.351562 C 2328.261719 1976.910156 2326.128906 1984.328125 2323.460938 1991.671875 Z M 2397.769531 2073.289062 L 2397.769531 1957.371094 L 2420.761719 1957.371094 L 2448.179688 2039.429688 C 2450.710938 2047.058594 2452.550781 2052.78125 2453.710938 2056.589844 C 2455.03125 2052.378906 2457.109375 2046.171875 2459.910156 2038 L 2487.808594 1957.371094 L 2508.351562 1957.371094 L 2508.351562 2073.289062 L 2493.609375 2073.289062 L 2493.609375 1976.308594 L 2459.78125 2073.289062 L 2445.960938 2073.289062 L 2412.5 1974.53125 L 2412.5 2073.289062 Z M 2533.28125 2073.289062 L 2533.28125 1957.371094 L 2616.980469 1957.371094 L 2616.980469 1970.96875 L 2548.660156 1970.96875 L 2548.660156 2006.589844 L 2612.609375 2006.589844 L 2612.609375 2020.191406 L 2548.660156 2020.191406 L 2548.660156 2059.691406 L 2619.730469 2059.691406 L 2619.730469 2073.289062 L 2533.28125 2073.289062 "/>
<path fill-rule="evenodd" fill="rgb(0%, 0%, 0%)" fill-opacity="1" d="M 1600.839844 1711 L 2000 1711 L 2000 1735.351562 L 1600.839844 1735.351562 L 1600.839844 1711 "/>
<path fill-rule="evenodd" fill="rgb(0%, 0%, 0%)" fill-opacity="1" d="M 1768.589844 1648.300781 L 1797.96875 1648.300781 L 1797.96875 1643.398438 L 1802.871094 1643.398438 L 1802.871094 1648.300781 L 1797.96875 1648.300781 L 1797.96875 1677.691406 L 1768.589844 1677.691406 Z M 1795.699219 1675.410156 L 1795.699219 1650.570312 L 1770.859375 1650.570312 L 1770.859375 1675.410156 Z M 1829.980469 1650.570312 L 1805.140625 1650.570312 L 1805.140625 1675.410156 L 1829.980469 1675.410156 Z M 1805.140625 1616.289062 L 1805.140625 1641.128906 L 1829.980469 1641.128906 L 1829.980469 1616.289062 Z M 1770.859375 1641.128906 L 1795.699219 1641.128906 L 1795.699219 1616.289062 L 1770.859375 1616.289062 Z M 1797.96875 1682.578125 L 1837.148438 1682.578125 L 1837.148438 1609.121094 L 1763.691406 1609.121094 L 1763.691406 1682.578125 Z M 1802.871094 1648.300781 L 1832.25 1648.300781 L 1832.25 1677.691406 L 1802.871094 1677.691406 Z M 1802.871094 1643.398438 L 1802.871094 1614.019531 L 1832.25 1614.019531 L 1832.25 1643.398438 Z M 1797.96875 1643.398438 L 1768.589844 1643.398438 L 1768.589844 1614.019531 L 1797.96875 1614.019531 L 1797.96875 1643.398438 "/>
<path fill-rule="evenodd" fill="rgb(0%, 0%, 0%)" fill-opacity="1" d="M 1658.121094 1666.449219 L 1729.269531 1625.371094 L 1800.421875 1584.289062 L 1871.570312 1625.371094 L 1942.71875 1666.449219 L 1942.71875 1685.550781 L 1973.589844 1685.550781 L 1973.589844 1648.628906 L 1887 1598.640625 L 1800.421875 1548.648438 L 1713.839844 1598.640625 L 1627.25 1648.628906 L 1627.25 1685.550781 L 1658.121094 1685.550781 L 1658.121094 1666.449219 "/>
<path fill-rule="evenodd" fill="rgb(0%, 0%, 0%)" fill-opacity="1" d="M 1600.839844 1739.691406 L 2000 1739.691406 L 2000 1764.039062 L 1600.839844 1764.039062 L 1600.839844 1739.691406 "/>
<path fill-rule="evenodd" fill="rgb(0%, 0%, 0%)" fill-opacity="1" d="M 2000 1711 L 2399.160156 1711 L 2399.160156 1735.351562 L 2000 1735.351562 L 2000 1711 "/>
<path fill-rule="evenodd" fill="rgb(0%, 0%, 0%)" fill-opacity="1" d="M 2167.75 1648.300781 L 2197.128906 1648.300781 L 2197.128906 1643.398438 L 2202.03125 1643.398438 L 2202.03125 1648.300781 L 2197.128906 1648.300781 L 2197.128906 1677.691406 L 2167.75 1677.691406 Z M 2194.859375 1675.410156 L 2194.859375 1650.570312 L 2170.019531 1650.570312 L 2170.019531 1675.410156 Z M 2229.140625 1650.570312 L 2204.300781 1650.570312 L 2204.300781 1675.410156 L 2229.140625 1675.410156 Z M 2204.300781 1616.289062 L 2204.300781 1641.128906 L 2229.140625 1641.128906 L 2229.140625 1616.289062 Z M 2170.019531 1641.128906 L 2194.859375 1641.128906 L 2194.859375 1616.289062 L 2170.019531 1616.289062 Z M 2197.128906 1682.578125 L 2236.308594 1682.578125 L 2236.308594 1609.121094 L 2162.851562 1609.121094 L 2162.851562 1682.578125 Z M 2202.03125 1648.300781 L 2231.410156 1648.300781 L 2231.410156 1677.691406 L 2202.03125 1677.691406 Z M 2202.03125 1643.398438 L 2202.03125 1614.019531 L 2231.410156 1614.019531 L 2231.410156 1643.398438 Z M 2197.128906 1643.398438 L 2167.75 1643.398438 L 2167.75 1614.019531 L 2197.128906 1614.019531 L 2197.128906 1643.398438 "/>
<path fill-rule="evenodd" fill="rgb(0%, 0%, 0%)" fill-opacity="1" d="M 2057.28125 1666.449219 L 2128.429688 1625.371094 L 2199.578125 1584.289062 L 2270.730469 1625.371094 L 2341.878906 1666.449219 L 2341.878906 1685.550781 L 2372.738281 1685.550781 L 2372.738281 1648.628906 L 2286.160156 1598.640625 L 2199.578125 1548.648438 L 2113 1598.640625 L 2026.410156 1648.628906 L 2026.410156 1685.550781 L 2057.28125 1685.550781 L 2057.28125 1666.449219 "/>
<path fill-rule="evenodd" fill="rgb(0%, 0%, 0%)" fill-opacity="1" d="M 2000 1739.691406 L 2399.160156 1739.691406 L 2399.160156 1764.039062 L 2000 1764.039062 L 2000 1739.691406 "/>
<path fill-rule="evenodd" fill="rgb(0%, 0%, 0%)" fill-opacity="1" d="M 1968.171875 1524.199219 L 1997.550781 1524.199219 L 1997.550781 1519.300781 L 2002.449219 1519.300781 L 2002.449219 1524.199219 L 1997.550781 1524.199219 L 1997.550781 1553.578125 L 1968.171875 1553.578125 Z M 1995.28125 1551.308594 L 1995.28125 1526.46875 L 1970.441406 1526.46875 L 1970.441406 1551.308594 Z M 2029.558594 1526.46875 L 2004.71875 1526.46875 L 2004.71875 1551.308594 L 2029.558594 1551.308594 Z M 2004.71875 1492.191406 L 2004.71875 1517.03125 L 2029.558594 1517.03125 L 2029.558594 1492.191406 Z M 1970.441406 1517.03125 L 1995.28125 1517.03125 L 1995.28125 1492.191406 L 1970.441406 1492.191406 Z M 1997.550781 1558.480469 L 2036.730469 1558.480469 L 2036.730469 1485.019531 L 1963.269531 1485.019531 L 1963.269531 1558.480469 Z M 2002.449219 1524.199219 L 2031.828125 1524.199219 L 2031.828125 1553.578125 L 2002.449219 1553.578125 Z M 2002.449219 1519.300781 L 2002.449219 1489.921875 L 2031.828125 1489.921875 L 2031.828125 1519.300781 Z M 1997.550781 1519.300781 L 1968.171875 1519.300781 L 1968.171875 1489.921875 L 1997.550781 1489.921875 L 1997.550781 1519.300781 "/>
<path fill-rule="evenodd" fill="rgb(0%, 0%, 0%)" fill-opacity="1" d="M 1857.699219 1542.351562 L 1928.851562 1501.269531 L 2000 1460.191406 L 2071.148438 1501.269531 L 2142.300781 1542.351562 L 2142.300781 1576.261719 L 2173.160156 1558.171875 L 2173.160156 1524.519531 L 2086.578125 1474.539062 L 2000 1424.550781 L 1913.421875 1474.539062 L 1826.828125 1524.519531 L 1826.828125 1558.339844 L 1857.699219 1576.078125 L 1857.699219 1542.351562 "/>
</svg>
