<?xml version="1.0" encoding="UTF-8"?>
<svg xmlns="http://www.w3.org/2000/svg" xmlns:xlink="http://www.w3.org/1999/xlink" width="4000" height="4000" viewBox="0 0 4000 4000">
<rect x="-400" y="-400" width="4800" height="4800" fill="rgb(99.609375%, 99.609375%, 99.609375%)" fill-opacity="1"/>
<path fill-rule="evenodd" fill="rgb(0%, 0%, 0%)" fill-opacity="1" d="M 1489.789062 2365.878906 L 1596.421875 2431.378906 L 1402.960938 2164.800781 C 1284.128906 2210.910156 1207.96875 2202.28125 1174.460938 2138.898438 C 1180.960938 2195.808594 1171.308594 2258.261719 1145.519531 2326.269531 C 1249.398438 2280.070312 1330.640625 2300.890625 1389.25 2388.730469 C 1441.929688 2412.648438 1475.449219 2405.039062 1489.789062 2365.878906 "/>
<path fill-rule="evenodd" fill="rgb(0%, 0%, 0%)" fill-opacity="1" d="M 2597.039062 2164.800781 L 2403.578125 2431.378906 L 2510.210938 2365.878906 C 2524.550781 2405.039062 2558.070312 2412.648438 2610.75 2388.730469 C 2669.359375 2300.890625 2750.601562 2280.070312 2854.480469 2326.269531 C 2828.691406 2258.261719 2819.039062 2195.808594 2825.539062 2138.898438 C 2792.03125 2202.28125 2715.871094 2210.910156 2597.039062 2164.800781 "/>
<path fill-rule="evenodd" fill="rgb(0%, 0%, 0%)" fill-opacity="1" d="M 2152.179688 2700.230469 C 2224.671875 2650.371094 2234.820312 2595.398438 2182.640625 2535.328125 C 2191.589844 2606.589844 2181.441406 2661.550781 2152.179688 2700.230469 "/>
<path fill-rule="evenodd" fill="rgb(0%, 0%, 0%)" fill-opacity="1" d="M 1847.820312 2700.230469 C 1818.558594 2661.550781 1808.398438 2606.589844 1817.351562 2535.328125 C 1765.179688 2595.398438 1775.328125 2650.371094 1847.820312 2700.230469 "/>
<path fill-rule="evenodd" fill="rgb(0%, 0%, 0%)" fill-opacity="1" d="M 1860.621094 2381.121094 L 1902.558594 2336.941406 L 2000 2544.878906 L 2097.441406 2336.941406 L 2139.378906 2381.121094 L 2217.070312 2201.359375 L 2349.601562 2276.011719 L 2518.699219 2125.210938 C 2526.621094 2101.089844 2517.359375 2061.480469 2490.910156 2006.390625 C 2513.390625 2002.460938 2545.640625 2005 2587.640625 2014 C 2639.25 1904.460938 2684.179688 1816.359375 2722.460938 1749.710938 L 2734.640625 1899.75 C 2757.640625 1845.46875 2783.929688 1794.058594 2813.511719 1745.519531 C 2760.359375 1647.148438 2725.589844 1552.960938 2709.171875 1462.949219 C 2659.421875 1478.910156 2609.148438 1459.988281 2558.371094 1406.210938 C 2528.308594 1438.859375 2455.960938 1463.738281 2341.300781 1480.851562 C 2318.371094 1487.199219 2309.171875 1480.921875 2313.691406 1462 C 2353.121094 1388.261719 2325.699219 1334.179688 2231.429688 1299.769531 C 2242.21875 1313.640625 2245.261719 1332.691406 2240.570312 1356.890625 C 2220.75 1429.238281 2140.550781 1469.601562 2000 1477.988281 C 1859.449219 1469.601562 1779.25 1429.238281 1759.429688 1356.890625 C 1754.738281 1332.691406 1757.78125 1313.640625 1768.558594 1299.769531 C 1674.300781 1334.179688 1646.878906 1388.261719 1686.308594 1462 C 1690.828125 1480.921875 1681.628906 1487.199219 1658.699219 1480.851562 C 1544.039062 1463.738281 1471.691406 1438.859375 1441.628906 1406.210938 C 1390.851562 1459.988281 1340.578125 1478.910156 1290.828125 1462.949219 C 1274.410156 1552.960938 1239.628906 1647.148438 1186.488281 1745.519531 C 1216.070312 1794.058594 1242.359375 1845.46875 1265.359375 1899.75 L 1277.539062 1749.710938 C 1315.820312 1816.359375 1360.75 1904.460938 1412.359375 2014 C 1454.359375 2005 1486.609375 2002.460938 1509.089844 2006.390625 C 1482.640625 2061.480469 1473.378906 2101.089844 1481.300781 2125.210938 L 1650.398438 2276.011719 L 1782.929688 2201.359375 Z M 2446.578125 2008.160156 L 1536.480469 2008.160156 C 1502.808594 2008.160156 1472.210938 1994.398438 1450.039062 1972.238281 C 1427.878906 1950.070312 1414.121094 1919.46875 1414.121094 1885.800781 L 1414.121094 1609.78125 C 1414.121094 1576.109375 1427.878906 1545.511719 1450.039062 1523.339844 C 1472.210938 1501.179688 1502.808594 1487.421875 1536.480469 1487.421875 L 2446.578125 1487.421875 C 2480.25 1487.421875 2510.851562 1501.179688 2533.019531 1523.339844 C 2555.179688 1545.511719 2568.941406 1576.109375 2568.941406 1609.78125 L 2568.941406 1885.800781 C 2568.941406 1919.46875 2555.179688 1950.070312 2533.019531 1972.238281 C 2510.851562 1994.398438 2480.25 2008.160156 2446.578125 2008.160156 "/>
<path fill-rule="nonzero" fill="rgb(0%, 0%, 0%)" fill-opacity="1" d="M 1607.738281 1522.460938 L 2392.261719 1522.460938 C 2421.289062 1522.460938 2447.671875 1534.320312 2466.78125 1553.429688 C 2485.878906 1572.539062 2497.738281 1598.910156 2497.738281 1627.941406 L 2497.738281 1865.871094 C 2497.738281 1894.898438 2485.878906 1921.28125 2466.78125 1940.390625 C 2447.671875 1959.488281 2421.289062 1971.351562 2392.261719 1971.351562 L 1607.738281 1971.351562 C 1578.710938 1971.351562 1552.328125 1959.488281 1533.21875 1940.390625 C 1514.121094 1921.28125 1502.261719 1894.898438 1502.261719 1865.871094 L 1502.261719 1627.941406 C 1502.261719 1598.910156 1514.121094 1572.539062 1533.21875 1553.429688 C 1552.328125 1534.320312 1578.710938 1522.460938 1607.738281 1522.460938 Z M 2392.261719 1566.230469 L 1607.738281 1566.230469 C 1590.789062 1566.230469 1575.359375 1573.179688 1564.171875 1584.371094 C 1552.980469 1595.570312 1546.03125 1610.988281 1546.03125 1627.941406 L 1546.03125 1865.871094 C 1546.03125 1882.820312 1552.980469 1898.238281 1564.171875 1909.441406 C 1575.359375 1920.628906 1590.789062 1927.578125 1607.738281 1927.578125 L 2392.261719 1927.578125 C 2409.210938 1927.578125 2424.640625 1920.628906 2435.828125 1909.441406 C 2447.019531 1898.238281 2453.96875 1882.820312 2453.96875 1865.871094 L 2453.96875 1627.941406 C 2453.96875 1610.988281 2447.019531 1595.570312 2435.828125 1584.371094 C 2424.628906 1573.179688 2409.210938 1566.230469 2392.261719 1566.230469 "/>
<path fill-rule="evenodd" fill="rgb(0%, 0%, 0%)" fill-opacity="1" d="M 2322.949219 1699.550781 L 2407.128906 1699.550781 L 2409.300781 1742.089844 L 2394.101562 1742.089844 L 2393.460938 1737.75 C 2392.839844 1733.558594 2391.890625 1729.238281 2390.300781 1725.300781 C 2389.429688 1723.128906 2388.121094 1720.480469 2386.339844 1718.890625 C 2384.671875 1717.570312 2382.210938 1716.839844 2380.171875 1716.429688 C 2375.730469 1715.53125 2370.511719 1715.429688 2365.988281 1715.429688 C 2364.839844 1715.429688 2361.980469 1715.449219 2360.328125 1715.738281 C 2360.289062 1716.089844 2360.289062 1716.46875 2360.289062 1716.691406 L 2360.289062 1740.539062 C 2362.980469 1740.300781 2365.96875 1739.671875 2367.628906 1738.140625 C 2370.03125 1735.941406 2370.808594 1730.839844 2371.078125 1727.800781 L 2371.488281 1723.160156 L 2386.558594 1723.160156 L 2386.558594 1773.699219 L 2371.488281 1773.699219 L 2371.078125 1769.058594 C 2370.828125 1766.109375 2370.058594 1760.878906 2367.710938 1758.75 C 2366.078125 1757.269531 2363.011719 1756.671875 2360.289062 1756.441406 L 2360.289062 1784.191406 C 2360.289062 1784.429688 2360.300781 1784.871094 2360.339844 1785.25 C 2362.179688 1785.609375 2365.648438 1785.621094 2366.988281 1785.621094 C 2371.488281 1785.621094 2376.21875 1785.511719 2380.691406 1784.878906 C 2383.121094 1784.550781 2385.851562 1783.96875 2388.058594 1782.859375 C 2390.191406 1781.789062 2391.730469 1779.128906 2392.691406 1777.058594 C 2394.949219 1772.160156 2396.308594 1765.859375 2397.300781 1760.570312 L 2398.070312 1756.421875 L 2412.488281 1756.421875 L 2410.058594 1801.371094 L 2273.589844 1801.371094 L 2273.589844 1785.660156 L 2268.25 1801.371094 L 2256.089844 1801.371094 L 2234.378906 1741.609375 L 2234.378906 1774.578125 C 2234.378906 1776.570312 2234.570312 1782.351562 2236.078125 1783.910156 C 2237.550781 1785.441406 2242.539062 1785.71875 2244.46875 1785.738281 L 2249.480469 1785.820312 L 2249.480469 1801.371094 L 2164.691406 1801.371094 L 2164.691406 1785.109375 L 2174.601562 1785.109375 C 2175.101562 1785.109375 2175.929688 1785.109375 2176.75 1785.078125 C 2176.640625 1784.769531 2176.519531 1784.460938 2176.398438 1784.140625 L 2171.789062 1771.539062 L 2144.640625 1771.539062 L 2142 1778.191406 C 2141.558594 1779.308594 2141.191406 1780.46875 2140.921875 1781.640625 C 2140.761719 1782.320312 2140.558594 1783.238281 2140.558594 1783.929688 C 2140.558594 1784.039062 2140.570312 1784.28125 2140.660156 1784.390625 C 2141.589844 1785.011719 2143.71875 1785.109375 2144.789062 1785.109375 L 2153.03125 1785.109375 L 2153.03125 1801.371094 L 2110.078125 1801.371094 L 2110.078125 1785.109375 L 2116.230469 1785.109375 C 2117.621094 1785.109375 2119.75 1784.941406 2120.910156 1784.039062 C 2122.378906 1782.898438 2123.910156 1779.359375 2124.558594 1777.691406 L 2155.609375 1698.019531 L 2167.5 1698.019531 L 2201.148438 1782.039062 C 2201.429688 1782.730469 2202.191406 1784.480469 2202.628906 1784.910156 C 2203.140625 1785.179688 2204.609375 1785.238281 2205.171875 1785.238281 C 2205.449219 1785.238281 2205.75 1785.210938 2206.03125 1785.191406 C 2206.589844 1785.148438 2207.148438 1785.109375 2207.710938 1785.109375 L 2212.800781 1785.109375 L 2212.800781 1785.25 C 2214.179688 1784.980469 2215.429688 1784.558594 2216.050781 1783.929688 C 2217.53125 1782.441406 2217.730469 1776.5 2217.730469 1774.578125 L 2217.730469 1716.671875 C 2217.730469 1716.460938 2217.730469 1716.101562 2217.699219 1715.761719 C 2217.128906 1715.699219 2216.46875 1715.679688 2216.109375 1715.679688 L 2203.511719 1715.679688 L 2203.511719 1699.550781 L 2243.960938 1699.550781 L 2264.910156 1759.140625 L 2285.171875 1699.550781 Z M 2324.890625 1715.679688 L 2313.058594 1715.679688 C 2312.71875 1715.679688 2312.121094 1715.691406 2311.589844 1715.75 C 2311.570312 1716.101562 2311.558594 1716.449219 2311.558594 1716.671875 L 2311.558594 1784.191406 C 2311.558594 1784.421875 2311.570312 1784.800781 2311.601562 1785.171875 C 2312.121094 1785.230469 2312.71875 1785.238281 2313.058594 1785.238281 L 2334.609375 1785.238281 C 2334.980469 1785.238281 2335.660156 1785.21875 2336.238281 1785.160156 C 2336.269531 1784.800781 2336.28125 1784.421875 2336.28125 1784.191406 L 2336.28125 1716.691406 C 2336.28125 1716.46875 2336.269531 1716.109375 2336.238281 1715.761719 C 2335.660156 1715.699219 2334.980469 1715.679688 2334.609375 1715.679688 Z M 2273.730469 1785.238281 L 2286.269531 1785.238281 C 2286.640625 1785.238281 2287.320312 1785.21875 2287.898438 1785.160156 C 2287.929688 1784.800781 2287.929688 1784.421875 2287.929688 1784.191406 L 2287.929688 1743.46875 Z M 1880.238281 1749.308594 C 1880.339844 1742.75 1881.378906 1736.28125 1883.558594 1730.070312 C 1885.761719 1723.800781 1889.050781 1718.109375 1893.449219 1713.121094 C 1897.890625 1708.070312 1903.179688 1704.039062 1909.328125 1701.300781 C 1915.550781 1698.53125 1922.199219 1697.261719 1929 1697.261719 C 1935.710938 1697.261719 1942.300781 1698.421875 1948.449219 1701.148438 C 1954.601562 1703.871094 1959.851562 1707.960938 1964.308594 1712.980469 C 1968.738281 1717.96875 1972.089844 1723.660156 1974.308594 1729.960938 C 1976.640625 1736.558594 1977.609375 1743.5 1977.609375 1750.480469 C 1977.609375 1757.261719 1976.828125 1764.171875 1974.648438 1770.621094 C 1972.609375 1776.679688 1969.390625 1782.171875 1965.230469 1787.019531 C 1960.71875 1792.238281 1955.371094 1796.550781 1949.070312 1799.410156 C 1942.738281 1802.300781 1935.929688 1803.53125 1929 1803.53125 C 1922.078125 1803.53125 1915.261719 1802.328125 1908.929688 1799.460938 C 1902.609375 1796.589844 1897.238281 1792.261719 1892.730469 1787.011719 C 1888.539062 1782.128906 1885.320312 1776.621094 1883.238281 1770.53125 C 1882.691406 1768.898438 1882.230469 1767.25 1881.839844 1765.570312 L 1871.089844 1765.570312 C 1870.761719 1765.570312 1870.160156 1765.578125 1869.628906 1765.640625 C 1869.601562 1766.011719 1869.601562 1766.390625 1869.601562 1766.628906 L 1869.601562 1803.660156 L 1856.359375 1803.660156 L 1853.320312 1796.109375 C 1851.429688 1797.699219 1849.328125 1799.050781 1847.03125 1800.148438 C 1841.71875 1802.699219 1835.859375 1803.660156 1830 1803.660156 C 1816.199219 1803.660156 1804.171875 1798.980469 1794.859375 1788.699219 C 1785.199219 1778.039062 1781.480469 1764.679688 1781.480469 1750.480469 C 1781.480469 1736.371094 1785.089844 1723.011719 1794.46875 1712.230469 C 1803.410156 1701.96875 1814.988281 1697.011719 1828.558594 1697.011719 C 1833.75 1697.011719 1838.878906 1697.78125 1843.761719 1699.558594 C 1846.5 1700.558594 1849.078125 1701.839844 1851.488281 1703.421875 L 1854.738281 1697.941406 L 1867.480469 1697.941406 L 1869.238281 1744.25 L 1854.808594 1744.25 L 1853.949219 1740.230469 C 1852.441406 1733.179688 1849.78125 1724.628906 1844.769531 1719.21875 C 1840.820312 1714.96875 1835.878906 1713.269531 1830.128906 1713.269531 C 1823.289062 1713.269531 1817.769531 1715.460938 1814.019531 1721.320312 C 1809.03125 1729.089844 1808.148438 1741.488281 1808.148438 1750.460938 C 1808.148438 1759.398438 1809.019531 1771.910156 1814.070312 1779.621094 C 1817.96875 1785.570312 1823.789062 1787.648438 1830.738281 1787.648438 C 1834.851562 1787.648438 1839.328125 1786.898438 1842.441406 1783.988281 C 1845.378906 1781.21875 1846.21875 1777.339844 1846.21875 1773.421875 L 1846.21875 1767.109375 C 1846.21875 1766.78125 1846.210938 1766.179688 1846.148438 1765.660156 C 1845.601562 1765.589844 1844.929688 1765.570312 1844.578125 1765.570312 L 1832.511719 1765.570312 L 1832.511719 1749.308594 Z M 1682.929688 1756.039062 C 1682.800781 1754.191406 1682.738281 1752.328125 1682.738281 1750.480469 C 1682.738281 1743.53125 1683.769531 1736.648438 1686.070312 1730.078125 C 1688.269531 1723.800781 1691.570312 1718.109375 1695.960938 1713.121094 C 1700.398438 1708.070312 1705.699219 1704.039062 1711.839844 1701.300781 C 1718.070312 1698.53125 1724.710938 1697.261719 1731.511719 1697.261719 C 1738.21875 1697.261719 1744.808594 1698.421875 1750.960938 1701.148438 C 1757.109375 1703.871094 1762.371094 1707.960938 1766.820312 1712.980469 C 1771.261719 1717.96875 1774.609375 1723.660156 1776.828125 1729.960938 C 1779.148438 1736.558594 1780.121094 1743.5 1780.121094 1750.480469 C 1780.121094 1757.261719 1779.339844 1764.171875 1777.171875 1770.621094 C 1775.128906 1776.679688 1771.910156 1782.171875 1767.738281 1787.019531 C 1763.238281 1792.238281 1757.878906 1796.550781 1751.578125 1799.410156 C 1745.25 1802.300781 1738.449219 1803.53125 1731.511719 1803.53125 C 1724.589844 1803.53125 1717.769531 1802.328125 1711.449219 1799.460938 C 1705.121094 1796.589844 1699.75 1792.261719 1695.238281 1787.011719 C 1691.050781 1782.128906 1687.828125 1776.621094 1685.761719 1770.53125 C 1684.910156 1768.019531 1684.261719 1765.449219 1683.789062 1762.851562 L 1681.730469 1801.371094 L 1597.539062 1801.371094 L 1597.539062 1785.238281 L 1609.199219 1785.238281 C 1609.570312 1785.238281 1610.25 1785.21875 1610.828125 1785.160156 C 1610.859375 1784.800781 1610.859375 1784.421875 1610.859375 1784.191406 L 1610.859375 1716.671875 C 1610.859375 1716.460938 1610.859375 1716.101562 1610.828125 1715.761719 C 1610.25 1715.699219 1609.570312 1715.679688 1609.199219 1715.679688 L 1597.539062 1715.679688 L 1597.539062 1699.550781 L 1648.199219 1699.550781 L 1648.199219 1715.679688 L 1636.371094 1715.679688 C 1636.03125 1715.679688 1635.429688 1715.691406 1634.898438 1715.75 C 1634.878906 1716.101562 1634.871094 1716.449219 1634.871094 1716.671875 L 1634.871094 1784.191406 C 1634.871094 1784.421875 1634.878906 1784.808594 1634.921875 1785.179688 C 1636.570312 1785.46875 1639.429688 1785.488281 1640.578125 1785.488281 C 1645.109375 1785.488281 1650.359375 1785.390625 1654.808594 1784.46875 C 1656.789062 1784.070312 1659.289062 1783.339844 1660.859375 1781.988281 C 1662.738281 1780.378906 1664.160156 1777.339844 1665.039062 1775.089844 C 1666.851562 1770.421875 1667.96875 1765.171875 1668.828125 1760.25 L 1669.558594 1756.039062 Z M 2025.429688 1716.390625 C 2025.300781 1716.308594 2025.148438 1716.230469 2024.980469 1716.171875 C 2023.460938 1715.609375 2020.679688 1715.558594 2019.089844 1715.558594 L 2011.851562 1715.558594 L 2011.851562 1699.550781 L 2044.289062 1699.550781 L 2087.128906 1758.238281 L 2087.128906 1726.339844 C 2087.128906 1724.5 2086.921875 1718.289062 2085.511719 1716.859375 C 2084.078125 1715.429688 2078.878906 1715.160156 2077.03125 1715.128906 L 2072.019531 1715.058594 L 2072.019531 1699.550781 L 2117.609375 1699.550781 L 2117.609375 1714.921875 L 2112.738281 1715.128906 C 2110.96875 1715.210938 2106.679688 1715.589844 2105.378906 1717.050781 C 2103.960938 1718.640625 2103.769531 1724.359375 2103.769531 1726.339844 L 2103.769531 1803.660156 L 2091.03125 1803.660156 L 2042.199219 1737.050781 L 2042.199219 1774.578125 C 2042.199219 1776.621094 2042.410156 1782.398438 2043.960938 1783.988281 C 2045.480469 1785.539062 2050.25 1785.738281 2052.21875 1785.738281 L 2057.308594 1785.738281 L 2057.308594 1801.371094 L 2011.851562 1801.371094 L 2011.851562 1786.128906 L 2016.53125 1785.761719 C 2018.25 1785.621094 2022.660156 1785.089844 2023.921875 1783.691406 C 2025.238281 1782.210938 2025.429688 1776.429688 2025.429688 1774.578125 Z M 2165.480469 1754.898438 L 2158.078125 1736.800781 L 2150.941406 1754.898438 Z M 1709.410156 1750.460938 C 1709.410156 1759.441406 1710.300781 1771.75 1715.289062 1779.539062 C 1719.078125 1785.441406 1724.628906 1787.648438 1731.53125 1787.648438 C 1738.429688 1787.648438 1743.859375 1785.328125 1747.628906 1779.449219 C 1752.648438 1771.628906 1753.570312 1759.488281 1753.570312 1750.460938 C 1753.570312 1741.519531 1752.710938 1729.03125 1747.71875 1721.289062 C 1743.941406 1715.421875 1738.378906 1713.269531 1731.53125 1713.269531 C 1724.648438 1713.269531 1719.128906 1715.480469 1715.328125 1721.359375 C 1710.300781 1729.128906 1709.410156 1741.480469 1709.410156 1750.460938 Z M 1906.898438 1750.460938 C 1906.898438 1759.441406 1907.789062 1771.75 1912.78125 1779.539062 C 1916.570312 1785.441406 1922.121094 1787.648438 1929.019531 1787.648438 C 1935.921875 1787.648438 1941.339844 1785.328125 1945.109375 1779.449219 C 1950.128906 1771.628906 1951.058594 1759.488281 1951.058594 1750.460938 C 1951.058594 1741.519531 1950.191406 1729.03125 1945.210938 1721.289062 C 1941.429688 1715.421875 1935.871094 1713.269531 1929.019531 1713.269531 C 1922.128906 1713.269531 1916.609375 1715.480469 1912.808594 1721.359375 C 1907.789062 1729.121094 1906.898438 1741.480469 1906.898438 1750.460938 "/>
</svg>
