<?xml version="1.0" encoding="UTF-8"?>
<svg xmlns="http://www.w3.org/2000/svg" xmlns:xlink="http://www.w3.org/1999/xlink" width="4000" height="4000" viewBox="0 0 4000 4000">
<rect x="-400" y="-400" width="4800" height="4800" fill="rgb(99.609375%, 99.609375%, 99.609375%)" fill-opacity="1"/>
<path fill-rule="evenodd" fill="rgb(0%, 0%, 0%)" fill-opacity="1" d="M 2739.941406 1572.730469 L 2000 1145.519531 L 1260.058594 1572.730469 L 1260.058594 2427.269531 L 2000 2854.480469 L 2739.941406 2427.269531 Z M 2009.601562 1232.230469 L 2660.160156 1607.828125 L 2669.75 1613.371094 L 2669.75 1929.710938 L 2631.371094 1929.710938 L 2631.371094 1635.429688 L 2000 1270.898438 L 1368.628906 1635.429688 L 1368.628906 1929.710938 L 1330.25 1929.710938 L 1330.25 1613.371094 L 1339.839844 1607.828125 L 1990.398438 1232.230469 L 2000 1226.691406 Z M 2009.359375 1351.070312 L 2557.359375 1667.449219 L 2566.71875 1672.859375 L 2566.71875 2327.140625 L 2557.359375 2332.550781 L 2009.359375 2648.929688 L 2000 2654.339844 L 1990.640625 2648.929688 L 1442.640625 2332.550781 L 1433.28125 2327.140625 L 1433.28125 1672.859375 L 1442.640625 1667.449219 L 1990.640625 1351.070312 L 2000 1345.660156 Z M 2589.851562 1969.570312 C 2603.839844 1978.699219 2611.761719 1978.699219 2613.609375 1969.570312 C 2619.019531 1982.730469 2623.921875 1984.488281 2628.289062 1974.851562 C 2628.96875 1970.328125 2628.96875 1966.710938 2628.289062 1964 L 2672.828125 1964 C 2672.160156 1966.710938 2672.160156 1970.328125 2672.828125 1974.851562 C 2677.210938 1984.488281 2682.101562 1982.730469 2687.519531 1969.570312 C 2689.371094 1978.699219 2697.289062 1978.699219 2711.269531 1969.570312 L 2681.578125 2020.550781 C 2683.441406 2006.980469 2680.25 2000.941406 2672.011719 2002.398438 C 2667.890625 2004.378906 2668.328125 2010.699219 2673.328125 2021.378906 L 2650.558594 2050.578125 L 2627.800781 2021.378906 C 2632.789062 2010.699219 2633.230469 2004.378906 2629.121094 2002.398438 C 2620.871094 2000.941406 2617.679688 2006.980469 2619.550781 2020.550781 Z M 2631.371094 2364.570312 L 2631.371094 2070.289062 L 2669.75 2070.289062 L 2669.75 2386.628906 L 2660.160156 2392.171875 L 2009.601562 2767.769531 L 2000 2773.308594 L 1990.398438 2767.769531 L 1339.839844 2392.171875 L 1330.25 2386.628906 L 1330.25 2070.289062 L 1368.628906 2070.289062 L 1368.628906 2364.570312 L 2000 2729.101562 Z M 1371.710938 1964 C 1371.03125 1966.710938 1371.03125 1970.328125 1371.710938 1974.851562 C 1376.078125 1984.488281 1380.980469 1982.730469 1386.390625 1969.570312 C 1388.238281 1978.699219 1396.160156 1978.699219 1410.148438 1969.570312 L 1380.449219 2020.550781 C 1382.320312 2006.980469 1379.128906 2000.941406 1370.878906 2002.398438 C 1366.769531 2004.378906 1367.210938 2010.699219 1372.199219 2021.378906 L 1349.441406 2050.578125 L 1326.671875 2021.378906 C 1331.671875 2010.699219 1332.109375 2004.378906 1327.988281 2002.398438 C 1319.738281 2000.941406 1316.558594 2006.980469 1318.421875 2020.550781 L 1288.730469 1969.570312 C 1302.710938 1978.699219 1310.628906 1978.699219 1312.480469 1969.570312 C 1317.898438 1982.730469 1322.789062 1984.488281 1327.160156 1974.851562 C 1327.839844 1970.328125 1327.839844 1966.710938 1327.171875 1964 L 1371.710938 1964 "/>
<path fill-rule="nonzero" fill="rgb(0%, 0%, 0%)" fill-opacity="1" d="M 2006.820312 1579.050781 L 2361.171875 1783.640625 L 2367.988281 1787.578125 L 2367.988281 1974.050781 L 2340.71875 1974.050781 L 2340.71875 1803.25 L 2000 1606.539062 L 1659.28125 1803.25 L 1659.28125 1974.050781 L 1632 1974.050781 L 1632 1787.578125 L 1638.820312 1783.640625 L 1993.179688 1579.050781 L 2000 1575.109375 Z M 2367.988281 2025.949219 L 2367.988281 2212.421875 L 2361.171875 2216.359375 L 2006.820312 2420.949219 L 2000 2424.890625 L 1993.179688 2420.949219 L 1638.820312 2216.359375 L 1632 2212.421875 L 1632 2025.949219 L 1659.28125 2025.949219 L 1659.28125 2196.75 L 2000 2393.460938 L 2340.71875 2196.75 L 2340.71875 2025.949219 L 2367.988281 2025.949219 "/>
<path fill-rule="evenodd" fill="rgb(0%, 0%, 0%)" fill-opacity="1" d="M 1532.648438 1889.351562 L 1549.109375 1940.351562 L 1602.691406 1940.238281 L 1559.28125 1971.648438 L 1575.941406 2022.578125 L 1532.648438 1991 L 1489.359375 2022.578125 L 1506.019531 1971.648438 L 1462.609375 1940.238281 L 1516.191406 1940.351562 L 1532.648438 1889.351562 "/>
<path fill-rule="evenodd" fill="rgb(0%, 0%, 0%)" fill-opacity="1" d="M 1532.648438 2020.640625 L 1549.109375 2071.628906 L 1602.691406 2071.53125 L 1559.28125 2102.941406 L 1575.941406 2153.871094 L 1532.648438 2122.289062 L 1489.359375 2153.871094 L 1506.019531 2102.941406 L 1462.609375 2071.53125 L 1516.191406 2071.628906 L 1532.648438 2020.640625 "/>
<path fill-rule="evenodd" fill="rgb(0%, 0%, 0%)" fill-opacity="1" d="M 1532.648438 2159.179688 L 1549.109375 2210.171875 L 1602.691406 2210.070312 L 1559.28125 2241.480469 L 1575.941406 2292.410156 L 1532.648438 2260.828125 L 1489.359375 2292.410156 L 1506.019531 2241.480469 L 1462.609375 2210.070312 L 1516.191406 2210.171875 L 1532.648438 2159.179688 "/>
<path fill-rule="evenodd" fill="rgb(0%, 0%, 0%)" fill-opacity="1" d="M 1628.011719 2255.441406 L 1644.46875 2306.441406 L 1698.058594 2306.328125 L 1654.640625 2337.75 L 1671.300781 2388.671875 L 1628.011719 2357.101562 L 1584.71875 2388.671875 L 1601.378906 2337.75 L 1557.96875 2306.328125 L 1611.550781 2306.441406 L 1628.011719 2255.441406 "/>
<path fill-rule="evenodd" fill="rgb(0%, 0%, 0%)" fill-opacity="1" d="M 1772.851562 2341.808594 L 1789.308594 2392.800781 L 1842.890625 2392.699219 L 1799.488281 2424.109375 L 1816.140625 2475.039062 L 1772.851562 2443.460938 L 1729.558594 2475.039062 L 1746.21875 2424.109375 L 1702.808594 2392.699219 L 1756.390625 2392.800781 L 1772.851562 2341.808594 "/>
<path fill-rule="evenodd" fill="rgb(0%, 0%, 0%)" fill-opacity="1" d="M 2469.808594 1889.351562 L 2453.351562 1940.351562 L 2399.769531 1940.238281 L 2443.179688 1971.648438 L 2426.519531 2022.578125 L 2469.808594 1991 L 2513.101562 2022.578125 L 2496.449219 1971.648438 L 2539.859375 1940.238281 L 2486.269531 1940.351562 L 2469.808594 1889.351562 "/>
<path fill-rule="evenodd" fill="rgb(0%, 0%, 0%)" fill-opacity="1" d="M 2469.808594 2020.640625 L 2453.351562 2071.628906 L 2399.769531 2071.53125 L 2443.179688 2102.941406 L 2426.519531 2153.871094 L 2469.808594 2122.289062 L 2513.101562 2153.871094 L 2496.449219 2102.941406 L 2539.859375 2071.53125 L 2486.269531 2071.628906 L 2469.808594 2020.640625 "/>
<path fill-rule="evenodd" fill="rgb(0%, 0%, 0%)" fill-opacity="1" d="M 2469.808594 2159.179688 L 2453.351562 2210.171875 L 2399.769531 2210.070312 L 2443.179688 2241.480469 L 2426.519531 2292.410156 L 2469.808594 2260.828125 L 2513.101562 2292.410156 L 2496.449219 2241.480469 L 2539.859375 2210.070312 L 2486.269531 2210.171875 L 2469.808594 2159.179688 "/>
<path fill-rule="evenodd" fill="rgb(0%, 0%, 0%)" fill-opacity="1" d="M 2374.449219 2255.441406 L 2357.988281 2306.441406 L 2304.410156 2306.328125 L 2347.820312 2337.75 L 2331.160156 2388.671875 L 2374.449219 2357.101562 L 2417.738281 2388.671875 L 2401.078125 2337.75 L 2444.488281 2306.328125 L 2390.910156 2306.441406 L 2374.449219 2255.441406 "/>
<path fill-rule="evenodd" fill="rgb(0%, 0%, 0%)" fill-opacity="1" d="M 2229.609375 2341.808594 L 2213.148438 2392.800781 L 2159.570312 2392.699219 L 2202.980469 2424.109375 L 2186.320312 2475.039062 L 2229.609375 2443.460938 L 2272.898438 2475.039062 L 2256.238281 2424.109375 L 2299.648438 2392.699219 L 2246.070312 2392.800781 L 2229.609375 2341.808594 "/>
<path fill-rule="evenodd" fill="rgb(0%, 0%, 0%)" fill-opacity="1" d="M 2000 2425.800781 L 2023.699219 2499.21875 L 2100.851562 2499.070312 L 2038.351562 2544.300781 L 2062.328125 2617.628906 L 2000 2572.160156 L 1937.671875 2617.628906 L 1961.648438 2544.300781 L 1899.148438 2499.070312 L 1976.300781 2499.21875 L 2000 2425.800781 "/>
<path fill-rule="evenodd" fill="rgb(0%, 0%, 0%)" fill-opacity="1" d="M 1640.398438 1731.429688 L 1639.070312 1729.140625 C 1640.261719 1727.410156 1641.289062 1725.589844 1642.140625 1723.710938 C 1637.828125 1715.351562 1633.140625 1706.761719 1628.050781 1697.949219 C 1624.058594 1691.03125 1620.199219 1684.53125 1616.5 1678.480469 C 1613.878906 1674.148438 1612.230469 1671.75 1611.511719 1671.289062 C 1611.128906 1670.980469 1610.648438 1670.859375 1610.070312 1670.941406 C 1609.5 1671.019531 1607.160156 1672.019531 1603.039062 1673.949219 L 1600.921875 1670.269531 C 1606.800781 1667.121094 1612.21875 1664.121094 1617.160156 1661.261719 C 1621.941406 1658.5 1626.441406 1655.78125 1630.609375 1653.128906 L 1632.730469 1656.808594 C 1628.800781 1659.449219 1626.648438 1661.160156 1626.269531 1661.96875 C 1626.050781 1662.46875 1626.089844 1663.179688 1626.398438 1664.101562 C 1626.710938 1665.03125 1629.390625 1669.949219 1634.429688 1678.890625 L 1646.828125 1700.960938 C 1649.210938 1705.078125 1652.039062 1709.78125 1655.351562 1715.078125 C 1659.359375 1713.011719 1662.308594 1711.429688 1664.179688 1710.351562 C 1669.808594 1707.101562 1674.28125 1703.910156 1677.601562 1700.769531 C 1676.851562 1697.601562 1675.789062 1693.921875 1674.410156 1689.730469 L 1678.371094 1687.449219 C 1680.199219 1692.21875 1682.71875 1697.988281 1685.921875 1704.78125 C 1683.191406 1706.601562 1680.628906 1708.210938 1678.238281 1709.589844 L 1661.921875 1718.761719 L 1654.609375 1722.859375 C 1651.25 1724.761719 1646.511719 1727.621094 1640.398438 1731.429688 Z M 1745.050781 1672.238281 C 1734 1678.621094 1723.910156 1680.671875 1714.769531 1678.390625 C 1705.628906 1676.109375 1698.199219 1670 1692.460938 1660.050781 C 1688.449219 1653.109375 1686.46875 1646.390625 1686.5 1639.898438 C 1686.539062 1633.378906 1688.328125 1627.390625 1691.859375 1621.871094 C 1695.421875 1616.351562 1701.140625 1611.308594 1709.078125 1606.71875 C 1716.710938 1602.320312 1723.671875 1599.980469 1729.96875 1599.671875 C 1736.25 1599.371094 1741.988281 1600.679688 1747.171875 1603.609375 C 1752.359375 1606.539062 1756.808594 1611.238281 1760.539062 1617.699219 C 1764.578125 1624.699219 1766.640625 1631.589844 1766.71875 1638.339844 C 1766.78125 1645.109375 1765.019531 1651.390625 1761.398438 1657.199219 C 1757.800781 1663.019531 1752.339844 1668.03125 1745.050781 1672.238281 Z M 1743.949219 1666.378906 C 1749.988281 1662.890625 1753.511719 1657.890625 1754.53125 1651.378906 C 1755.570312 1644.859375 1753.460938 1637.070312 1748.230469 1628.019531 C 1742.738281 1618.5 1736.46875 1612.378906 1729.410156 1609.671875 C 1723.710938 1607.511719 1717.390625 1608.421875 1710.449219 1612.429688 C 1703.960938 1616.179688 1700.171875 1621.21875 1699.078125 1627.550781 C 1697.980469 1633.890625 1700.011719 1641.5 1705.140625 1650.378906 C 1708.828125 1656.769531 1712.941406 1661.628906 1717.449219 1664.949219 C 1721.980469 1668.261719 1726.308594 1670.03125 1730.460938 1670.25 C 1734.609375 1670.46875 1739.109375 1669.171875 1743.949219 1666.378906 Z M 1831.839844 1591.488281 L 1829.71875 1587.820312 C 1835.238281 1584.789062 1840.128906 1582.050781 1844.421875 1579.570312 C 1848.378906 1577.289062 1852.601562 1574.769531 1857.109375 1572 L 1858.789062 1574.910156 C 1857.710938 1576.089844 1856.738281 1577.300781 1855.871094 1578.558594 C 1857.238281 1581.789062 1858.550781 1584.46875 1859.78125 1586.601562 C 1860.648438 1588.109375 1862.578125 1591.03125 1865.558594 1595.328125 C 1860.859375 1600.898438 1856.738281 1605.21875 1853.179688 1608.300781 C 1849.628906 1611.351562 1845.699219 1614.128906 1841.429688 1616.589844 C 1829.878906 1623.261719 1819.089844 1625.488281 1809.089844 1623.269531 C 1799.078125 1621.050781 1791.328125 1615.160156 1785.820312 1605.621094 C 1780.160156 1595.800781 1778.96875 1586.03125 1782.21875 1576.28125 C 1785.5 1566.53125 1793.371094 1558.058594 1805.851562 1550.859375 C 1810.261719 1548.308594 1814.671875 1546.210938 1819.109375 1544.570312 C 1823.539062 1542.929688 1827.988281 1541.769531 1832.460938 1541.050781 L 1833.238281 1541.488281 C 1834.570312 1545.800781 1836.648438 1550.898438 1839.5 1556.789062 L 1835.640625 1559.019531 C 1833.980469 1556.210938 1832.328125 1553.808594 1830.71875 1551.839844 C 1827.519531 1550.71875 1824.101562 1550.488281 1820.460938 1551.121094 C 1816.820312 1551.75 1812.949219 1553.25 1808.839844 1555.621094 C 1801.148438 1560.058594 1796.378906 1565.921875 1794.519531 1573.230469 C 1792.648438 1580.539062 1794.050781 1588.230469 1798.730469 1596.351562 C 1803.71875 1604.988281 1810.140625 1610.550781 1818 1613.058594 C 1825.871094 1615.570312 1833.320312 1614.78125 1840.351562 1610.71875 C 1844.101562 1608.558594 1847.550781 1605.339844 1850.71875 1601.058594 C 1849.640625 1598.621094 1848.511719 1596.371094 1847.320312 1594.320312 C 1844.671875 1589.71875 1842.921875 1587.339844 1842.109375 1587.171875 C 1841.300781 1587.011719 1837.878906 1588.429688 1831.839844 1591.488281 Z M 1930.949219 1564.910156 C 1919.910156 1571.289062 1909.808594 1573.339844 1900.671875 1571.058594 C 1891.53125 1568.769531 1884.101562 1562.660156 1878.359375 1552.71875 C 1874.359375 1545.78125 1872.371094 1539.058594 1872.410156 1532.570312 C 1872.441406 1526.050781 1874.230469 1520.058594 1877.769531 1514.539062 C 1881.320312 1509.019531 1887.050781 1503.980469 1894.980469 1499.390625 C 1902.609375 1494.988281 1909.570312 1492.648438 1915.871094 1492.339844 C 1922.148438 1492.039062 1927.890625 1493.339844 1933.078125 1496.28125 C 1938.261719 1499.210938 1942.710938 1503.910156 1946.441406 1510.371094 C 1950.488281 1517.371094 1952.539062 1524.261719 1952.621094 1531.011719 C 1952.679688 1537.78125 1950.921875 1544.058594 1947.308594 1549.871094 C 1943.699219 1555.691406 1938.238281 1560.699219 1930.949219 1564.910156 Z M 1929.851562 1559.050781 C 1935.890625 1555.558594 1939.421875 1550.558594 1940.441406 1544.050781 C 1941.46875 1537.53125 1939.359375 1529.738281 1934.140625 1520.691406 C 1928.640625 1511.171875 1922.371094 1505.050781 1915.308594 1502.339844 C 1909.609375 1500.179688 1903.289062 1501.089844 1896.359375 1505.101562 C 1889.859375 1508.851562 1886.070312 1513.890625 1884.988281 1520.21875 C 1883.878906 1526.550781 1885.910156 1534.171875 1891.039062 1543.050781 C 1894.730469 1549.441406 1898.839844 1554.300781 1903.351562 1557.621094 C 1907.878906 1560.929688 1912.210938 1562.699219 1916.359375 1562.921875 C 1920.511719 1563.128906 1925.011719 1561.839844 1929.851562 1559.050781 "/>
<path fill-rule="evenodd" fill="rgb(0%, 0%, 0%)" fill-opacity="1" d="M 2052.878906 1539.421875 L 2054.929688 1535.75 C 2058.511719 1537.691406 2060.699219 1538.671875 2061.480469 1538.710938 C 2062.019531 1538.710938 2062.53125 1538.5 2063.03125 1538.089844 C 2063.738281 1537.550781 2065.359375 1535.140625 2067.859375 1530.828125 C 2072.03125 1523.730469 2075.128906 1518.328125 2077.160156 1514.671875 L 2087.679688 1495.558594 C 2090.480469 1490.519531 2091.960938 1487.519531 2092.070312 1486.539062 C 2092.148438 1486 2092.058594 1485.5 2091.800781 1485.078125 C 2091.429688 1484.359375 2089.441406 1482.730469 2085.871094 1480.140625 L 2087.910156 1476.460938 C 2092.300781 1479.328125 2095.589844 1481.421875 2097.738281 1482.710938 C 2100.128906 1484.148438 2102.898438 1485.679688 2106.039062 1487.320312 C 2107.800781 1500.121094 2110 1514.210938 2112.671875 1529.550781 C 2114.421875 1539.808594 2116.070312 1548.378906 2117.621094 1555.308594 L 2127.550781 1537.460938 C 2131.320312 1530.691406 2134.511719 1524.820312 2137.121094 1519.851562 C 2138.621094 1516.871094 2139.390625 1514.941406 2139.410156 1514.070312 C 2139.421875 1513.609375 2139.261719 1513.160156 2138.890625 1512.738281 C 2138.5 1512.300781 2136.589844 1510.890625 2133.171875 1508.46875 L 2135.21875 1504.800781 C 2138.238281 1506.859375 2141.308594 1508.808594 2144.421875 1510.679688 C 2148.671875 1513.230469 2152.558594 1515.441406 2156.121094 1517.320312 L 2154.070312 1521 C 2150.738281 1519.28125 2148.671875 1518.359375 2147.871094 1518.238281 C 2147.398438 1518.171875 2147 1518.191406 2146.609375 1518.320312 C 2146.230469 1518.46875 2145.871094 1518.699219 2145.511719 1519.058594 C 2144.921875 1519.660156 2143.519531 1521.890625 2141.320312 1525.78125 L 2131.171875 1543.699219 L 2121 1561.769531 C 2118.289062 1566.640625 2115.671875 1571.550781 2113.148438 1576.511719 L 2112.238281 1576.800781 C 2109.089844 1574.039062 2106.859375 1572.128906 2105.539062 1571.050781 C 2102.871094 1558.101562 2099.878906 1542.03125 2096.550781 1522.878906 C 2094.890625 1513.171875 2093.671875 1505.128906 2092.878906 1498.738281 L 2083.171875 1516.191406 C 2080.53125 1520.941406 2077.398438 1526.699219 2073.789062 1533.46875 C 2071.140625 1538.449219 2069.738281 1541.421875 2069.648438 1542.359375 C 2069.589844 1542.761719 2069.648438 1543.140625 2069.871094 1543.488281 C 2070.230469 1544.160156 2072.128906 1545.691406 2075.570312 1548.109375 L 2073.519531 1551.789062 C 2068.988281 1548.828125 2065.71875 1546.75 2063.71875 1545.550781 C 2062.058594 1544.550781 2058.449219 1542.511719 2052.878906 1539.421875 Z M 2144.160156 1588.71875 C 2146.949219 1590.179688 2148.769531 1590.910156 2149.640625 1590.859375 C 2150.230469 1590.820312 2151.539062 1590.101562 2153.570312 1588.679688 C 2157.488281 1585.839844 2162.75 1581.769531 2169.320312 1576.5 L 2206.25 1546.75 L 2212.628906 1550.570312 L 2205.320312 1610.46875 C 2204.480469 1618.070312 2204.191406 1622.339844 2204.460938 1623.269531 C 2204.730469 1624.210938 2206.320312 1625.691406 2209.269531 1627.730469 L 2207.019531 1631.769531 C 2202.410156 1628.761719 2198.019531 1626.011719 2193.839844 1623.511719 C 2188.851562 1620.519531 2184.039062 1617.761719 2179.441406 1615.25 L 2181.691406 1611.199219 C 2185.210938 1613.109375 2187.300781 1614.109375 2187.96875 1614.171875 C 2188.640625 1614.238281 2189.148438 1613.960938 2189.511719 1613.320312 C 2189.820312 1612.75 2190.28125 1610.488281 2190.871094 1606.511719 L 2192.210938 1597.28125 C 2188.671875 1595.078125 2184.71875 1592.671875 2180.320312 1590.039062 C 2176.488281 1587.738281 2172.988281 1585.691406 2169.828125 1583.871094 L 2165.109375 1587.789062 C 2163.828125 1588.859375 2162.050781 1590.53125 2159.789062 1592.808594 C 2159.28125 1593.320312 2158.878906 1593.820312 2158.601562 1594.320312 C 2158.230469 1595 2158.238281 1595.640625 2158.648438 1596.25 C 2159.058594 1596.871094 2160.921875 1598.371094 2164.238281 1600.75 L 2161.988281 1604.789062 C 2159.269531 1602.921875 2155.808594 1600.71875 2151.601562 1598.199219 C 2147.601562 1595.800781 2144.378906 1593.988281 2141.910156 1592.761719 Z M 2196.679688 1562.171875 L 2174.710938 1579.808594 C 2177.300781 1581.519531 2180.171875 1583.328125 2183.371094 1585.25 C 2186.710938 1587.25 2189.929688 1589.101562 2193.058594 1590.800781 Z M 2226.230469 1643.28125 L 2228.269531 1639.601562 L 2230.960938 1640.96875 C 2233.128906 1642.101562 2234.640625 1642.5 2235.53125 1642.171875 C 2236.410156 1641.859375 2237.921875 1639.890625 2240.058594 1636.25 C 2244.351562 1628.96875 2248.898438 1621.011719 2253.691406 1612.398438 C 2256.230469 1607.820312 2259.121094 1602.601562 2262.339844 1596.75 C 2264.269531 1593.210938 2265.28125 1590.929688 2265.371094 1589.949219 C 2265.410156 1589.460938 2265.28125 1588.949219 2264.929688 1588.441406 C 2264.609375 1587.921875 2262.699219 1586.441406 2259.21875 1583.988281 L 2261.261719 1580.308594 C 2264.710938 1582.460938 2268.101562 1584.539062 2271.441406 1586.539062 C 2275.320312 1588.859375 2279.078125 1591.070312 2282.710938 1593.171875 C 2282.148438 1597.898438 2281.660156 1602.628906 2281.25 1607.371094 C 2280.960938 1610.71875 2279.898438 1625.148438 2278.078125 1650.609375 C 2299.300781 1636.050781 2314.578125 1625.121094 2323.871094 1617.828125 C 2327.238281 1620.089844 2330.480469 1622.148438 2333.601562 1624.019531 C 2337.261719 1626.210938 2340.839844 1628.238281 2344.351562 1630.089844 L 2342.300781 1633.769531 C 2338.339844 1631.730469 2335.988281 1630.789062 2335.238281 1630.929688 C 2334.5 1631.101562 2333.398438 1632.300781 2331.949219 1634.550781 C 2329.679688 1638.21875 2325.601562 1645.328125 2319.71875 1655.890625 C 2316.769531 1661.199219 2313.671875 1666.871094 2310.46875 1672.839844 C 2307.261719 1678.820312 2305.589844 1682.289062 2305.441406 1683.261719 C 2305.390625 1683.839844 2305.480469 1684.359375 2305.71875 1684.839844 C 2305.96875 1685.320312 2307.839844 1686.828125 2311.359375 1689.378906 L 2309.320312 1693.058594 C 2304.761719 1690.078125 2300.628906 1687.488281 2296.96875 1685.289062 C 2293.28125 1683.078125 2288.21875 1680.179688 2281.769531 1676.558594 L 2283.820312 1672.878906 L 2286.390625 1674.300781 C 2288.441406 1675.398438 2289.851562 1675.859375 2290.609375 1675.660156 C 2291.390625 1675.460938 2292.441406 1674.351562 2293.78125 1672.308594 C 2295.089844 1670.261719 2297.941406 1665.328125 2302.300781 1657.480469 L 2317.378906 1630.378906 C 2307.769531 1636.980469 2295.320312 1645.71875 2280.039062 1656.589844 C 2273.769531 1661.078125 2268.761719 1664.78125 2264.988281 1667.730469 L 2262.179688 1666.050781 C 2262.890625 1659.578125 2263.621094 1651.339844 2264.390625 1641.28125 L 2267.238281 1600.339844 L 2263.851562 1606.441406 C 2254.460938 1623.320312 2248.050781 1634.988281 2244.621094 1641.429688 C 2243.269531 1644.070312 2242.699219 1645.871094 2242.941406 1646.820312 C 2243.179688 1647.78125 2245.121094 1649.449219 2248.738281 1651.859375 L 2246.691406 1655.539062 C 2243.871094 1653.609375 2240.980469 1651.75 2238.058594 1650 C 2233.691406 1647.378906 2229.761719 1645.148438 2226.230469 1643.28125 Z M 2333.421875 1707.5 L 2334.699219 1705.199219 C 2336.621094 1705.390625 2338.488281 1705.390625 2340.289062 1705.191406 C 2343.480469 1700.839844 2349.238281 1691.160156 2357.589844 1676.148438 C 2363.289062 1665.910156 2366.960938 1659.058594 2368.609375 1655.601562 C 2369.53125 1653.78125 2369.851562 1652.480469 2369.589844 1651.710938 C 2369.351562 1650.949219 2367.429688 1649.269531 2363.839844 1646.671875 L 2365.878906 1642.988281 C 2372.578125 1647.261719 2377.910156 1650.570312 2381.851562 1652.929688 L 2405.828125 1666.929688 C 2408.339844 1668.429688 2410.539062 1669.890625 2412.441406 1671.289062 L 2412.460938 1671.988281 C 2410.050781 1674.871094 2407.210938 1678.929688 2403.921875 1684.171875 L 2400.460938 1682.101562 C 2402.730469 1677.660156 2403.871094 1675.230469 2403.851562 1674.808594 C 2403.820312 1674.398438 2403.328125 1673.71875 2402.351562 1672.789062 C 2400.238281 1670.808594 2396.738281 1668.339844 2391.789062 1665.378906 C 2389.371094 1663.929688 2386.480469 1662.320312 2383.148438 1660.570312 C 2377.609375 1669.671875 2373.28125 1676.960938 2370.148438 1682.441406 C 2373.128906 1684.480469 2375.980469 1686.300781 2378.679688 1687.921875 C 2382.679688 1690.320312 2385.160156 1691.621094 2386.121094 1691.851562 C 2386.710938 1691.960938 2387.289062 1691.730469 2387.878906 1691.171875 C 2388.351562 1690.730469 2389.589844 1688.960938 2391.628906 1685.871094 L 2395.351562 1688.101562 C 2392.378906 1693.089844 2390.460938 1696.351562 2389.609375 1697.878906 L 2384.199219 1708.140625 L 2380.480469 1705.910156 C 2382.46875 1701.839844 2383.480469 1699.421875 2383.488281 1698.628906 C 2383.519531 1698.148438 2383.28125 1697.660156 2382.761719 1697.148438 C 2381.488281 1695.960938 2378.339844 1693.839844 2373.289062 1690.820312 C 2371.710938 1689.871094 2369.800781 1688.851562 2367.550781 1687.75 C 2366.609375 1689.308594 2365.679688 1690.898438 2364.761719 1692.550781 C 2360 1701.121094 2356.46875 1707.808594 2354.199219 1712.601562 L 2362.730469 1717.828125 C 2367.609375 1720.761719 2372.230469 1723.148438 2376.578125 1725.019531 C 2378.820312 1722.691406 2381.238281 1719.96875 2383.828125 1716.871094 L 2387.460938 1719.039062 C 2383.851562 1723.988281 2380.621094 1728.871094 2377.769531 1733.710938 C 2375.039062 1732.308594 2372.46875 1730.890625 2370.039062 1729.441406 C 2368.46875 1728.5 2365.359375 1726.578125 2360.75 1723.691406 C 2356.441406 1720.988281 2352.449219 1718.539062 2348.789062 1716.339844 C 2343.980469 1713.460938 2338.851562 1710.511719 2333.421875 1707.5 "/>
<path fill-rule="evenodd" fill="rgb(0%, 0%, 0%)" fill-opacity="1" d="M 2104.640625 2240.941406 L 1945.050781 1904.179688 C 1939.300781 1902.808594 1920.550781 1900.511719 1921.761719 1911.621094 C 1884.609375 1879.230469 1864.101562 1843.800781 1860.230469 1805.328125 C 1848.421875 1800.101562 1821.769531 1780.25 1780.28125 1745.78125 C 1806.460938 1905.988281 1862.960938 1997.621094 1949.769531 2020.648438 C 1936.039062 2003.269531 1927.21875 1984.121094 1923.300781 1963.210938 C 1931.230469 1969.730469 1940.441406 1974.609375 1950.941406 1977.839844 L 2089.199219 2253.859375 C 2093.570312 2255.078125 2096.121094 2252.828125 2098.789062 2251.921875 C 2102.660156 2250.601562 2105.039062 2242.421875 2104.640625 2240.941406 Z M 1893.238281 1915.921875 C 1867.058594 1903.488281 1850.011719 1888.078125 1842.078125 1869.671875 L 1855.261719 1872.820312 L 1844.519531 1853.601562 L 1868.878906 1879.820312 L 1850.738281 1875.050781 C 1863.628906 1891.890625 1877.800781 1905.511719 1893.238281 1915.921875 Z M 1927.980469 1999.519531 C 1929.621094 2003.421875 1931.378906 2006.398438 1933.261719 2008.460938 C 1860.539062 1976.988281 1813.640625 1894.679688 1792.941406 1763.820312 C 1795.328125 1765.199219 1800.480469 1771.210938 1806.03125 1774.878906 C 1813.070312 1870.730469 1853.660156 1944.820312 1927.980469 1999.519531 Z M 1944.621094 1919.359375 C 1940.308594 1916.351562 1937.550781 1913.359375 1936.320312 1910.378906 C 1939.71875 1911.699219 1942.488281 1914.691406 1944.621094 1919.359375 Z M 1966.371094 1978.070312 C 1963.589844 1976.289062 1961.519531 1972.429688 1960.140625 1966.488281 C 1962.898438 1969.648438 1964.980469 1973.511719 1966.371094 1978.070312 Z M 2030.019531 2107.308594 C 2027.058594 2106.578125 2024.578125 2103.308594 2022.578125 2097.511719 C 2025.238281 2099.199219 2027.730469 2102.46875 2030.019531 2107.308594 Z M 2022.460938 2090.789062 C 2018.53125 2087.648438 2014.578125 2081.320312 2010.628906 2071.808594 C 2014.558594 2076.03125 2018.511719 2082.359375 2022.460938 2090.789062 Z M 2049.148438 2158.140625 C 2049.828125 2155.890625 2051.039062 2155.199219 2052.769531 2156.058594 C 2054.808594 2156.160156 2055.578125 2157.679688 2055.078125 2160.621094 C 2051.871094 2161.199219 2049.898438 2160.371094 2049.148438 2158.140625 Z M 2093.210938 2239.328125 C 2089.800781 2237.011719 2086.601562 2229.839844 2083.589844 2217.820312 C 2087.300781 2224.140625 2090.511719 2231.308594 2093.210938 2239.328125 Z M 2041.351562 2136.371094 C 2045.960938 2139.671875 2048.21875 2144.078125 2048.148438 2149.601562 C 2046.191406 2146.46875 2043.921875 2142.058594 2041.351562 2136.371094 "/>
<path fill-rule="evenodd" fill="rgb(0%, 0%, 0%)" fill-opacity="1" d="M 1895.359375 2240.941406 L 2054.949219 1904.179688 C 2060.699219 1902.808594 2079.441406 1900.511719 2078.238281 1911.621094 C 2115.390625 1879.230469 2135.898438 1843.800781 2139.761719 1805.328125 C 2151.578125 1800.101562 2178.230469 1780.25 2219.71875 1745.78125 C 2193.539062 1905.988281 2137.039062 1997.621094 2050.230469 2020.648438 C 2063.960938 2003.269531 2072.78125 1984.121094 2076.699219 1963.210938 C 2068.769531 1969.730469 2059.558594 1974.609375 2049.058594 1977.839844 L 1910.800781 2253.859375 C 1906.421875 2255.078125 1903.878906 2252.828125 1901.210938 2251.921875 C 1897.339844 2250.601562 1894.949219 2242.421875 1895.359375 2240.941406 Z M 2106.761719 1915.921875 C 2132.941406 1903.488281 2149.988281 1888.078125 2157.921875 1869.671875 L 2144.738281 1872.820312 L 2155.480469 1853.601562 L 2131.121094 1879.820312 L 2149.25 1875.050781 C 2136.371094 1891.890625 2122.199219 1905.511719 2106.761719 1915.921875 Z M 2072.019531 1999.519531 C 2070.378906 2003.421875 2068.621094 2006.398438 2066.738281 2008.460938 C 2139.460938 1976.988281 2186.359375 1894.679688 2207.058594 1763.820312 C 2204.671875 1765.199219 2199.519531 1771.210938 2193.96875 1774.878906 C 2186.929688 1870.730469 2146.339844 1944.820312 2072.019531 1999.519531 Z M 2055.378906 1919.359375 C 2059.679688 1916.351562 2062.449219 1913.359375 2063.679688 1910.378906 C 2060.269531 1911.699219 2057.511719 1914.691406 2055.378906 1919.359375 Z M 2033.628906 1978.070312 C 2036.410156 1976.289062 2038.480469 1972.429688 2039.859375 1966.488281 C 2037.101562 1969.648438 2035.019531 1973.511719 2033.628906 1978.070312 Z M 1969.980469 2107.308594 C 1972.929688 2106.578125 1975.421875 2103.308594 1977.421875 2097.511719 C 1974.75 2099.199219 1972.269531 2102.46875 1969.980469 2107.308594 Z M 1977.539062 2090.789062 C 1981.46875 2087.648438 1985.421875 2081.320312 1989.371094 2071.808594 C 1985.441406 2076.03125 1981.488281 2082.359375 1977.539062 2090.789062 Z M 1950.851562 2158.140625 C 1950.171875 2155.890625 1948.960938 2155.199219 1947.230469 2156.058594 C 1945.191406 2156.160156 1944.421875 2157.679688 1944.921875 2160.621094 C 1948.128906 2161.199219 1950.101562 2160.371094 1950.851562 2158.140625 Z M 1906.789062 2239.328125 C 1910.199219 2237.011719 1913.398438 2229.839844 1916.410156 2217.820312 C 1912.699219 2224.140625 1909.488281 2231.308594 1906.789062 2239.328125 Z M 1958.640625 2136.371094 C 1954.039062 2139.671875 1951.78125 2144.078125 1951.851562 2149.601562 C 1953.808594 2146.46875 1956.078125 2142.058594 1958.640625 2136.371094 "/>
</svg>
