<?xml version="1.0" encoding="UTF-8"?>
<svg xmlns="http://www.w3.org/2000/svg" xmlns:xlink="http://www.w3.org/1999/xlink" width="4000" height="4000" viewBox="0 0 4000 4000">

<path fill-rule="evenodd" fill="rgb(0%, 0%, 0%)" fill-opacity="1" d="M 2458.339844 1819.988281 L 2458.339844 2195 L 2580.351562 2195 L 2580.351562 1834.160156 C 2580.351562 1635.980469 2456.121094 1465.410156 2281.691406 1396.46875 C 2152.410156 1345.378906 1838.398438 1349.011719 1718.308594 1396.46875 C 1543.878906 1465.410156 1419.648438 1635.980469 1419.648438 1834.160156 L 1419.648438 2195 L 1541.660156 2195 L 1541.660156 1819.988281 C 1541.660156 1349.308594 2458.339844 1339.359375 2458.339844 1819.988281 Z M 2408.03125 2561.050781 C 2248.628906 2804.828125 1755.601562 2801.191406 1593.78125 2561.050781 L 1459.429688 2561.050781 C 1637.988281 2949.949219 2365.261719 2954.621094 2541.660156 2561.050781 L 2408.03125 2561.050781 "/>
<path fill-rule="evenodd" fill="rgb(0%, 0%, 0%)" fill-opacity="1" d="M 2434.390625 1834.160156 C 2434.390625 1376.039062 1565.609375 1390.691406 1565.609375 1834.160156 L 1565.609375 2195 L 1575.160156 2195 L 1575.160156 1839.820312 C 1575.160156 1405.730469 2424.839844 1391.449219 2424.839844 1839.820312 L 2424.839844 2195 L 2434.390625 2195 Z M 1632.089844 2561.050781 C 1794.46875 2758.730469 2209.75 2761.421875 2369.941406 2561.050781 L 2353.71875 2561.050781 C 2194.378906 2744.109375 1809.960938 2741.710938 1648.539062 2561.050781 L 1632.089844 2561.050781 "/>
<path fill-rule="evenodd" fill="rgb(0%, 0%, 0%)" fill-opacity="1" d="M 2291.640625 1381.96875 C 2472.230469 1453.339844 2600.851562 1629.941406 2600.851562 1835.121094 L 2600.851562 1925.070312 C 2666.109375 1822.101562 2673.710938 1702.171875 2623.640625 1565.28125 C 2683.019531 1544.96875 2732.589844 1568.160156 2772.351562 1634.839844 L 2772.351562 1452.539062 C 2664.140625 1512.988281 2596.96875 1515.390625 2570.871094 1459.738281 C 2709.351562 1374.710938 2762.121094 1269.96875 2729.179688 1145.519531 C 2629.03125 1309.621094 2483.179688 1388.441406 2291.640625 1381.96875 "/>
<path fill-rule="evenodd" fill="rgb(0%, 0%, 0%)" fill-opacity="1" d="M 1708.359375 1381.96875 C 1527.769531 1453.339844 1399.148438 1629.941406 1399.148438 1835.121094 L 1399.148438 1925.070312 C 1333.890625 1822.101562 1326.289062 1702.171875 1376.359375 1565.28125 C 1316.980469 1544.96875 1267.410156 1568.160156 1227.648438 1634.839844 L 1227.648438 1452.539062 C 1335.859375 1512.988281 1403.03125 1515.390625 1429.128906 1459.738281 C 1290.648438 1374.710938 1237.878906 1269.96875 1270.820312 1145.519531 C 1370.96875 1309.621094 1516.820312 1388.441406 1708.359375 1381.96875 "/>
<path fill-rule="evenodd" fill="rgb(0%, 0%, 0%)" fill-opacity="1" d="M 1428.019531 2258.710938 L 2571.980469 2258.710938 L 2571.980469 2497.339844 L 1428.019531 2497.339844 Z M 1423.941406 2548.308594 L 2576.058594 2548.308594 C 2601.851562 2548.308594 2622.949219 2527.210938 2622.949219 2501.421875 L 2622.949219 2254.628906 C 2622.949219 2228.839844 2601.851562 2207.738281 2576.058594 2207.738281 L 1423.941406 2207.738281 C 1398.148438 2207.738281 1377.050781 2228.839844 1377.050781 2254.628906 L 1377.050781 2501.421875 C 1377.050781 2527.210938 1398.148438 2548.308594 1423.941406 2548.308594 "/>
<path fill-rule="evenodd" fill="rgb(0%, 0%, 0%)" fill-opacity="1" d="M 1479.570312 2431.558594 L 1479.570312 2424.628906 L 1488.078125 2424.628906 C 1491.558594 2424.628906 1493.878906 2424.140625 1495.058594 2423.148438 C 1496.238281 2422.171875 1496.808594 2420.28125 1496.808594 2417.5 L 1496.808594 2339.101562 C 1496.808594 2336.371094 1496.238281 2334.5 1495.058594 2333.519531 C 1493.878906 2332.53125 1491.558594 2332.039062 1488.078125 2332.039062 L 1479.570312 2332.039062 L 1479.570312 2325.109375 L 1531.960938 2325.109375 L 1531.960938 2332.039062 L 1523.230469 2332.039062 C 1519.859375 2332.039062 1517.589844 2332.53125 1516.441406 2333.488281 C 1515.289062 2334.449219 1514.71875 2336.320312 1514.71875 2339.101562 L 1514.71875 2417.5 C 1514.71875 2420.519531 1515.460938 2422.511719 1516.960938 2423.46875 C 1518.46875 2424.429688 1522.351562 2424.921875 1528.679688 2424.921875 C 1537.160156 2424.921875 1543.761719 2424.480469 1548.410156 2423.621094 C 1553.089844 2422.761719 1556.679688 2421.359375 1559.199219 2419.441406 C 1561.988281 2417.28125 1564.398438 2413.820312 1566.449219 2409.070312 C 1568.511719 2404.328125 1570.261719 2398.210938 1571.710938 2390.71875 L 1578.109375 2390.71875 L 1575.679688 2431.558594 Z M 1611.148438 2378.339844 C 1611.148438 2394.898438 1614.03125 2407.210938 1619.800781 2415.289062 C 1625.578125 2423.371094 1634.421875 2427.429688 1646.359375 2427.429688 C 1658.101562 2427.429688 1666.890625 2423.351562 1672.71875 2415.191406 C 1678.550781 2407.03125 1681.449219 2394.75 1681.449219 2378.339844 C 1681.449219 2361.628906 1678.578125 2349.269531 1672.828125 2341.261719 C 1667.078125 2333.25 1658.261719 2329.238281 1646.359375 2329.238281 C 1634.480469 2329.238281 1625.660156 2333.269531 1619.859375 2341.328125 C 1614.058594 2349.390625 1611.148438 2361.730469 1611.148438 2378.339844 Z M 1589.800781 2378.359375 C 1589.800781 2370.550781 1591.121094 2363.300781 1593.738281 2356.609375 C 1596.339844 2349.910156 1600.199219 2344.011719 1605.269531 2338.871094 C 1610.519531 2333.488281 1616.628906 2329.410156 1623.550781 2326.640625 C 1630.511719 2323.859375 1638.121094 2322.460938 1646.328125 2322.460938 C 1654.621094 2322.460938 1662.121094 2323.789062 1668.828125 2326.46875 C 1675.539062 2329.121094 1681.609375 2333.199219 1687.089844 2338.730469 C 1692.261719 2343.960938 1696.148438 2349.878906 1698.75 2356.488281 C 1701.351562 2363.128906 1702.640625 2370.398438 1702.640625 2378.359375 C 1702.640625 2386.46875 1701.488281 2393.640625 1699.160156 2399.859375 C 1696.828125 2406.050781 1693.171875 2411.75 1688.210938 2416.941406 C 1682.679688 2422.691406 1676.46875 2426.988281 1669.570312 2429.808594 C 1662.640625 2432.640625 1654.898438 2434.058594 1646.328125 2434.058594 C 1637.730469 2434.058594 1629.988281 2432.660156 1623.089844 2429.859375 C 1616.191406 2427.039062 1609.949219 2422.738281 1604.390625 2416.941406 C 1599.441406 2411.75 1595.738281 2406.03125 1593.359375 2399.738281 C 1590.980469 2393.449219 1589.800781 2386.320312 1589.800781 2378.359375 Z M 1783.578125 2389.980469 L 1783.578125 2382.910156 L 1835.648438 2382.910156 L 1835.648438 2389.980469 L 1826.910156 2389.980469 C 1823.488281 2389.980469 1821.21875 2390.46875 1820.101562 2391.460938 C 1818.980469 2392.441406 1818.398438 2394.308594 1818.398438 2397.109375 L 1818.398438 2434.210938 L 1812.300781 2434.210938 L 1806.058594 2420.300781 C 1802.738281 2424.921875 1798.359375 2428.390625 1792.941406 2430.71875 C 1787.519531 2433.058594 1781.121094 2434.210938 1773.75 2434.210938 C 1757.078125 2434.210938 1743.53125 2429.078125 1733.160156 2418.78125 C 1722.761719 2408.480469 1717.558594 2395.019531 1717.558594 2378.359375 C 1717.558594 2361.769531 1722.621094 2348.261719 1732.75 2337.820312 C 1742.878906 2327.371094 1755.929688 2322.171875 1771.890625 2322.171875 C 1778.160156 2322.171875 1783.96875 2323.03125 1789.300781 2324.769531 C 1794.640625 2326.511719 1799.351562 2329.089844 1803.398438 2332.488281 L 1809.511719 2323.25 L 1815.910156 2323.25 L 1817.691406 2365.210938 L 1811.171875 2365.210938 C 1808.25 2352.949219 1803.761719 2343.910156 1797.679688 2338.039062 C 1791.628906 2332.171875 1783.691406 2329.238281 1773.921875 2329.238281 C 1762.070312 2329.238281 1753.25 2333.269531 1747.53125 2341.308594 C 1741.78125 2349.339844 1738.910156 2361.679688 1738.910156 2378.339844 C 1738.910156 2395.089844 1741.808594 2407.449219 1747.640625 2415.441406 C 1753.46875 2423.421875 1762.480469 2427.429688 1774.710938 2427.429688 C 1783.171875 2427.429688 1789.710938 2425.488281 1794.339844 2421.578125 C 1798.988281 2417.671875 1801.320312 2412.148438 1801.320312 2405 L 1801.320312 2397.671875 C 1801.320312 2394.601562 1800.75 2392.558594 1799.570312 2391.53125 C 1798.390625 2390.5 1796.058594 2389.980469 1792.621094 2389.980469 Z M 1866.660156 2378.339844 C 1866.660156 2394.898438 1869.539062 2407.210938 1875.308594 2415.289062 C 1881.089844 2423.371094 1889.929688 2427.429688 1901.859375 2427.429688 C 1913.609375 2427.429688 1922.390625 2423.351562 1928.230469 2415.191406 C 1934.058594 2407.03125 1936.960938 2394.75 1936.960938 2378.339844 C 1936.960938 2361.628906 1934.078125 2349.269531 1928.339844 2341.261719 C 1922.589844 2333.25 1913.769531 2329.238281 1901.859375 2329.238281 C 1889.980469 2329.238281 1881.171875 2333.269531 1875.371094 2341.328125 C 1869.558594 2349.390625 1866.660156 2361.730469 1866.660156 2378.339844 Z M 1845.308594 2378.359375 C 1845.308594 2370.550781 1846.621094 2363.300781 1849.25 2356.609375 C 1851.851562 2349.910156 1855.710938 2344.011719 1860.78125 2338.871094 C 1866.03125 2333.488281 1872.140625 2329.410156 1879.058594 2326.640625 C 1886.019531 2323.859375 1893.628906 2322.460938 1901.839844 2322.460938 C 1910.128906 2322.460938 1917.628906 2323.789062 1924.339844 2326.46875 C 1931.039062 2329.121094 1937.121094 2333.199219 1942.601562 2338.730469 C 1947.769531 2343.960938 1951.660156 2349.878906 1954.261719 2356.488281 C 1956.859375 2363.128906 1958.148438 2370.398438 1958.148438 2378.359375 C 1958.148438 2386.46875 1957 2393.640625 1954.671875 2399.859375 C 1952.339844 2406.050781 1948.671875 2411.75 1943.71875 2416.941406 C 1938.191406 2422.691406 1931.980469 2426.988281 1925.078125 2429.808594 C 1918.148438 2432.640625 1910.410156 2434.058594 1901.839844 2434.058594 C 1893.238281 2434.058594 1885.488281 2432.660156 1878.601562 2429.859375 C 1871.699219 2427.039062 1865.460938 2422.738281 1859.898438 2416.941406 C 1854.949219 2411.75 1851.25 2406.03125 1848.871094 2399.738281 C 1846.488281 2393.449219 1845.308594 2386.320312 1845.308594 2378.359375 Z M 2015.601562 2431.558594 L 2015.601562 2425.21875 C 2022.46875 2424.730469 2027.128906 2423.28125 2029.539062 2420.871094 C 2031.96875 2418.441406 2033.179688 2413.601562 2033.179688 2406.351562 L 2033.179688 2336.710938 C 2032.050781 2334.941406 2030.441406 2333.691406 2028.300781 2332.980469 C 2026.171875 2332.261719 2022.878906 2331.898438 2018.390625 2331.898438 L 2015.601562 2331.898438 L 2015.601562 2325.109375 L 2047.660156 2325.109375 L 2113 2405.488281 L 2113 2350.320312 C 2113 2342.660156 2111.660156 2337.601562 2109 2335.160156 C 2106.320312 2332.761719 2101.148438 2331.5 2093.449219 2331.398438 L 2093.449219 2325.109375 L 2139.28125 2325.109375 L 2139.28125 2331.398438 C 2132.351562 2331.671875 2127.640625 2333.101562 2125.128906 2335.609375 C 2122.628906 2338.140625 2121.378906 2343.03125 2121.378906 2350.320312 L 2121.378906 2434.210938 L 2114.808594 2434.210938 L 2041.71875 2344.71875 L 2041.71875 2406.351562 C 2041.71875 2413.839844 2043.109375 2418.851562 2045.878906 2421.410156 C 2048.671875 2423.941406 2053.789062 2425.21875 2061.261719 2425.21875 L 2061.261719 2431.558594 Z M 2217.589844 2389.390625 L 2198.101562 2346.609375 L 2179.328125 2389.390625 Z M 2199.53125 2323.351562 L 2205.960938 2323.351562 L 2247.839844 2417.210938 C 2249.210938 2420.28125 2250.660156 2422.289062 2252.171875 2423.230469 C 2253.671875 2424.160156 2256 2424.628906 2259.148438 2424.628906 C 2259.480469 2424.628906 2260 2424.601562 2260.738281 2424.550781 C 2261.5 2424.511719 2262.050781 2424.480469 2262.429688 2424.480469 L 2262.429688 2431.558594 L 2213.351562 2431.558594 L 2213.351562 2424.480469 L 2219.589844 2424.480469 C 2223.730469 2424.480469 2226.410156 2424.210938 2227.699219 2423.640625 C 2228.980469 2423.101562 2229.609375 2422.070312 2229.609375 2420.601562 C 2229.609375 2420.011719 2229.5 2419.300781 2229.230469 2418.390625 C 2228.960938 2417.5 2228.570312 2416.519531 2228.109375 2415.410156 L 2220.550781 2396.910156 L 2176.371094 2396.910156 L 2171.308594 2408.359375 C 2170.621094 2409.929688 2170.050781 2411.558594 2169.609375 2413.230469 C 2169.199219 2414.871094 2168.980469 2416.199219 2168.980469 2417.210938 C 2168.980469 2419.621094 2169.988281 2421.410156 2172.019531 2422.640625 C 2174.070312 2423.871094 2177.050781 2424.480469 2181.019531 2424.480469 L 2185.101562 2424.480469 L 2185.101562 2431.558594 L 2142.699219 2431.558594 L 2142.699219 2424.480469 L 2144.070312 2424.480469 C 2148.449219 2424.480469 2151.808594 2423.640625 2154.171875 2422 C 2156.519531 2420.351562 2158.800781 2417.039062 2160.988281 2412.101562 Z M 2290.351562 2334.5 L 2290.351562 2406.351562 C 2290.351562 2413.789062 2291.699219 2418.761719 2294.410156 2421.289062 C 2297.121094 2423.789062 2302.289062 2425.121094 2309.898438 2425.21875 L 2309.898438 2431.558594 L 2262.238281 2431.558594 L 2262.320312 2425.21875 C 2269.960938 2425.121094 2275.160156 2423.820312 2277.898438 2421.359375 C 2280.609375 2418.878906 2281.980469 2413.871094 2281.980469 2406.351562 L 2281.980469 2339.101562 C 2281.980469 2336.371094 2281.378906 2334.5 2280.199219 2333.519531 C 2279.019531 2332.53125 2276.71875 2332.039062 2273.300781 2332.039062 L 2263.578125 2332.039062 L 2263.578125 2325.109375 L 2304.671875 2325.109375 L 2336.53125 2406.488281 L 2367.359375 2325.109375 L 2407.460938 2325.109375 L 2407.460938 2332.039062 L 2398.730469 2332.039062 C 2395.359375 2332.039062 2393.089844 2332.53125 2391.941406 2333.488281 C 2390.789062 2334.449219 2390.210938 2336.320312 2390.210938 2339.101562 L 2390.210938 2417.5 C 2390.210938 2420.28125 2390.789062 2422.171875 2391.941406 2423.148438 C 2393.089844 2424.140625 2395.359375 2424.628906 2398.730469 2424.628906 L 2407.460938 2424.628906 L 2407.460938 2431.558594 L 2354.238281 2431.558594 L 2354.238281 2424.628906 L 2364.070312 2424.628906 C 2367.550781 2424.628906 2369.878906 2424.140625 2371.050781 2423.148438 C 2372.230469 2422.171875 2372.800781 2420.28125 2372.800781 2417.5 L 2372.800781 2334.5 L 2336.039062 2431.558594 L 2329.640625 2431.558594 Z M 2418.109375 2431.558594 L 2418.109375 2424.628906 L 2426.621094 2424.628906 C 2430.101562 2424.628906 2432.421875 2424.140625 2433.601562 2423.148438 C 2434.78125 2422.171875 2435.351562 2420.28125 2435.351562 2417.5 L 2435.351562 2339.121094 C 2435.351562 2336.371094 2434.78125 2334.5 2433.601562 2333.519531 C 2432.421875 2332.53125 2430.101562 2332.039062 2426.621094 2332.039062 L 2418.109375 2332.039062 L 2418.109375 2325.109375 L 2514.191406 2325.109375 L 2516.328125 2362.710938 L 2509.261719 2362.710938 C 2508.25 2356.570312 2506.738281 2351.308594 2504.769531 2346.910156 C 2502.800781 2342.511719 2500.480469 2339.269531 2497.789062 2337.148438 C 2495.171875 2335.238281 2491.53125 2333.859375 2486.871094 2333.03125 C 2482.21875 2332.171875 2475.679688 2331.75 2467.21875 2331.75 C 2460.890625 2331.75 2457.011719 2332.238281 2455.5 2333.199219 C 2454 2334.160156 2453.261719 2336.121094 2453.261719 2339.121094 L 2453.261719 2372.878906 L 2455.578125 2372.878906 C 2464.070312 2372.878906 2470.148438 2371.378906 2473.789062 2368.378906 C 2477.429688 2365.390625 2479.621094 2360.101562 2480.359375 2352.539062 L 2487.25 2352.539062 L 2487.25 2399.421875 L 2480.359375 2399.421875 C 2479.621094 2391.800781 2477.449219 2386.519531 2473.871094 2383.589844 C 2470.28125 2380.671875 2464.179688 2379.21875 2455.578125 2379.21875 L 2453.261719 2379.21875 L 2453.261719 2417.5 C 2453.261719 2420.570312 2454.050781 2422.589844 2455.660156 2423.601562 C 2457.25 2424.578125 2461.550781 2425.070312 2468.5 2425.070312 C 2476.199219 2425.070312 2482.410156 2424.75 2487.140625 2424.160156 C 2491.851562 2423.570312 2495.710938 2422.589844 2498.71875 2421.238281 C 2502.308594 2419.621094 2505.289062 2416.449219 2507.730469 2411.699219 C 2510.171875 2406.988281 2512.328125 2400.128906 2514.191406 2391.160156 L 2520.429688 2391.160156 L 2518 2431.558594 L 2418.109375 2431.558594 "/>
<path fill-rule="evenodd" fill="rgb(0%, 0%, 0%)" fill-opacity="1" d="M 1893.039062 2658.878906 L 1893.039062 2655.160156 L 1897.480469 2654.988281 C 1902.601562 2654.828125 1905.640625 2654.109375 1906.648438 2652.828125 C 1907.660156 2651.550781 1908.160156 2646.359375 1908.160156 2637.25 L 1908.511719 2605.761719 C 1908.511719 2595.21875 1908.398438 2589.421875 1908.160156 2588.351562 C 1908.050781 2587.710938 1907.71875 2587.398438 1907.171875 2587.398438 C 1906.808594 2587.398438 1905.96875 2587.691406 1904.648438 2588.289062 C 1898.199219 2591.109375 1893.78125 2593.199219 1891.390625 2594.539062 C 1889.730469 2595.53125 1888.761719 2596.011719 1888.488281 2596.011719 C 1887.980469 2596.011719 1887.710938 2595.699219 1887.628906 2595.058594 L 1887.230469 2589.550781 C 1899.070312 2585.988281 1909.191406 2581.988281 1917.570312 2577.570312 L 1919.210938 2578.308594 L 1919 2584.730469 L 1918.441406 2617.449219 L 1918.050781 2639.808594 C 1918.050781 2645.199219 1918.28125 2648.761719 1918.730469 2650.488281 C 1919.179688 2652.230469 1919.910156 2653.421875 1920.921875 2654 C 1921.910156 2654.578125 1924.308594 2654.910156 1928.128906 2654.988281 L 1933.289062 2655.160156 L 1933.289062 2658.878906 C 1923.789062 2658.648438 1917.058594 2658.53125 1913.089844 2658.53125 C 1908.488281 2658.53125 1901.820312 2658.648438 1893.039062 2658.878906 Z M 1953.550781 2660.390625 L 1949.691406 2658.398438 L 1949.691406 2657.269531 C 1957 2655.640625 1963.089844 2653.089844 1967.96875 2649.621094 C 1972.859375 2646.140625 1976.738281 2641.878906 1979.640625 2636.839844 C 1982.53125 2631.800781 1984.410156 2625.539062 1985.289062 2618.070312 L 1979.429688 2622.738281 C 1977.011719 2624.839844 1974.839844 2626.25 1972.949219 2626.96875 C 1971.050781 2627.691406 1968.839844 2628.058594 1966.308594 2628.058594 C 1959.96875 2628.058594 1954.851562 2625.980469 1950.910156 2621.828125 C 1947 2617.691406 1945.039062 2611.949219 1945.039062 2604.601562 C 1945.039062 2596.378906 1947.480469 2589.730469 1952.371094 2584.628906 C 1957.25 2579.53125 1963.488281 2576.988281 1971.109375 2576.988281 C 1978.949219 2576.988281 1985.128906 2579.691406 1989.671875 2585.089844 C 1994.179688 2590.480469 1996.449219 2598.449219 1996.449219 2608.980469 C 1996.449219 2616.441406 1995.308594 2623.089844 1993.019531 2628.910156 C 1990.730469 2634.75 1987.238281 2640.078125 1982.550781 2644.890625 C 1977.859375 2649.691406 1972.589844 2653.511719 1966.710938 2656.359375 C 1963.011719 2658.148438 1958.628906 2659.480469 1953.550781 2660.390625 Z M 1954.921875 2600.761719 C 1954.921875 2607.351562 1956.378906 2612.410156 1959.289062 2615.980469 C 1962.210938 2619.53125 1965.960938 2621.308594 1970.53125 2621.308594 C 1975.148438 2621.308594 1978.851562 2619.78125 1981.601562 2616.71875 C 1984.371094 2613.648438 1985.75 2609.019531 1985.75 2602.800781 C 1985.75 2596.03125 1984.238281 2590.71875 1981.230469 2586.859375 C 1978.230469 2583 1974.53125 2581.058594 1970.140625 2581.058594 C 1967.371094 2581.058594 1964.851562 2581.820312 1962.558594 2583.308594 C 1960.28125 2584.800781 1958.429688 2587.089844 1957.019531 2590.171875 C 1955.621094 2593.261719 1954.921875 2596.789062 1954.921875 2600.761719 Z M 2011.710938 2660.390625 L 2007.851562 2658.398438 L 2007.851562 2657.269531 C 2015.160156 2655.640625 2021.25 2653.089844 2026.128906 2649.621094 C 2031.019531 2646.140625 2034.898438 2641.878906 2037.800781 2636.839844 C 2040.691406 2631.800781 2042.570312 2625.539062 2043.449219 2618.070312 L 2037.589844 2622.738281 C 2035.171875 2624.839844 2033 2626.25 2031.121094 2626.96875 C 2029.21875 2627.691406 2027.011719 2628.058594 2024.46875 2628.058594 C 2018.128906 2628.058594 2013.011719 2625.980469 2009.070312 2621.828125 C 2005.160156 2617.691406 2003.199219 2611.949219 2003.199219 2604.601562 C 2003.199219 2596.378906 2005.640625 2589.730469 2010.53125 2584.628906 C 2015.410156 2579.53125 2021.660156 2576.988281 2029.269531 2576.988281 C 2037.109375 2576.988281 2043.289062 2579.691406 2047.828125 2585.089844 C 2052.339844 2590.480469 2054.609375 2598.449219 2054.609375 2608.980469 C 2054.609375 2616.441406 2053.46875 2623.089844 2051.179688 2628.910156 C 2048.890625 2634.75 2045.398438 2640.078125 2040.710938 2644.890625 C 2036.019531 2649.691406 2030.75 2653.511719 2024.871094 2656.359375 C 2021.171875 2658.148438 2016.789062 2659.480469 2011.710938 2660.390625 Z M 2013.089844 2600.761719 C 2013.089844 2607.351562 2014.539062 2612.410156 2017.449219 2615.980469 C 2020.378906 2619.53125 2024.121094 2621.308594 2028.691406 2621.308594 C 2033.308594 2621.308594 2037.011719 2619.78125 2039.761719 2616.71875 C 2042.53125 2613.648438 2043.910156 2609.019531 2043.910156 2602.800781 C 2043.910156 2596.03125 2042.398438 2590.71875 2039.390625 2586.859375 C 2036.390625 2583 2032.691406 2581.058594 2028.300781 2581.058594 C 2025.53125 2581.058594 2023.011719 2581.820312 2020.71875 2583.308594 C 2018.441406 2584.800781 2016.589844 2587.089844 2015.179688 2590.171875 C 2013.78125 2593.261719 2013.089844 2596.789062 2013.089844 2600.761719 Z M 2069.871094 2660.390625 L 2066.011719 2658.398438 L 2066.011719 2657.269531 C 2073.320312 2655.640625 2079.410156 2653.089844 2084.289062 2649.621094 C 2089.179688 2646.140625 2093.058594 2641.878906 2095.96875 2636.839844 C 2098.851562 2631.800781 2100.730469 2625.539062 2101.609375 2618.070312 L 2095.75 2622.738281 C 2093.328125 2624.839844 2091.160156 2626.25 2089.28125 2626.96875 C 2087.378906 2627.691406 2085.171875 2628.058594 2082.628906 2628.058594 C 2076.289062 2628.058594 2071.171875 2625.980469 2067.230469 2621.828125 C 2063.320312 2617.691406 2061.359375 2611.949219 2061.359375 2604.601562 C 2061.359375 2596.378906 2063.800781 2589.730469 2068.691406 2584.628906 C 2073.570312 2579.53125 2079.820312 2576.988281 2087.441406 2576.988281 C 2095.269531 2576.988281 2101.449219 2579.691406 2105.988281 2585.089844 C 2110.511719 2590.480469 2112.769531 2598.449219 2112.769531 2608.980469 C 2112.769531 2616.441406 2111.628906 2623.089844 2109.339844 2628.910156 C 2107.058594 2634.75 2103.570312 2640.078125 2098.871094 2644.890625 C 2094.179688 2649.691406 2088.910156 2653.511719 2083.03125 2656.359375 C 2079.328125 2658.148438 2074.949219 2659.480469 2069.871094 2660.390625 Z M 2071.25 2600.761719 C 2071.25 2607.351562 2072.699219 2612.410156 2075.609375 2615.980469 C 2078.539062 2619.53125 2082.28125 2621.308594 2086.851562 2621.308594 C 2091.46875 2621.308594 2095.171875 2619.78125 2097.921875 2616.71875 C 2100.699219 2613.648438 2102.070312 2609.019531 2102.070312 2602.800781 C 2102.070312 2596.03125 2100.558594 2590.71875 2097.558594 2586.859375 C 2094.550781 2583 2090.851562 2581.058594 2086.46875 2581.058594 C 2083.691406 2581.058594 2081.171875 2581.820312 2078.890625 2583.308594 C 2076.601562 2584.800781 2074.761719 2587.089844 2073.339844 2590.171875 C 2071.949219 2593.261719 2071.25 2596.789062 2071.25 2600.761719 "/>
<path fill-rule="evenodd" fill="rgb(0%, 0%, 0%)" fill-opacity="1" d="M 2193.421875 2595.488281 L 2194.300781 2591.121094 L 2195.179688 2586.738281 L 2191.828125 2589.699219 L 2188.488281 2592.648438 C 2186.261719 2585.941406 2181.449219 2592.941406 2183.589844 2594.339844 C 2183.71875 2591.871094 2185.550781 2591.949219 2186.488281 2594.089844 C 2185.738281 2596.308594 2185.558594 2598.179688 2185.949219 2599.71875 L 2160.058594 2644.550781 L 2162.679688 2646.058594 L 2188.558594 2601.230469 C 2190.078125 2600.789062 2191.621094 2599.699219 2193.171875 2597.941406 C 2195.488281 2597.691406 2196.46875 2599.238281 2194.398438 2600.589844 C 2196.671875 2601.730469 2200.339844 2594.058594 2193.421875 2595.488281 Z M 2192.839844 2597.210938 L 2192.550781 2596.921875 L 2193.410156 2592.660156 L 2194.171875 2588.859375 L 2190.121094 2595.890625 L 2189.789062 2595.699219 L 2193.851562 2588.679688 L 2190.949219 2591.238281 L 2187.601562 2594.191406 L 2187.289062 2594 L 2191.058594 2590.679688 L 2194.828125 2587.351562 L 2193.839844 2592.28125 L 2192.839844 2597.210938 "/>
<path fill-rule="evenodd" fill="rgb(0%, 0%, 0%)" fill-opacity="1" d="M 2161.738281 2595.488281 L 2160.859375 2591.121094 L 2159.96875 2586.738281 L 2163.320312 2589.699219 L 2166.671875 2592.648438 C 2168.890625 2585.941406 2173.699219 2592.941406 2171.570312 2594.339844 C 2171.441406 2591.871094 2169.609375 2591.949219 2168.671875 2594.089844 C 2169.410156 2596.308594 2169.589844 2598.179688 2169.210938 2599.71875 L 2195.089844 2644.550781 L 2192.480469 2646.058594 L 2166.589844 2601.230469 C 2165.070312 2600.789062 2163.539062 2599.699219 2161.988281 2597.941406 C 2159.660156 2597.691406 2158.691406 2599.238281 2160.761719 2600.589844 C 2158.480469 2601.730469 2154.808594 2594.058594 2161.738281 2595.488281 Z M 2162.308594 2597.210938 L 2162.609375 2596.921875 L 2161.75 2592.660156 L 2160.980469 2588.859375 L 2165.039062 2595.890625 L 2165.359375 2595.699219 L 2161.308594 2588.679688 L 2164.210938 2591.238281 L 2167.558594 2594.191406 L 2167.871094 2594 L 2164.101562 2590.679688 L 2160.320312 2587.351562 L 2161.320312 2592.28125 L 2162.308594 2597.210938 "/>
<path fill-rule="evenodd" fill="rgb(0%, 0%, 0%)" fill-opacity="1" d="M 2198.871094 2609.371094 L 2155.128906 2610.601562 C 2154.710938 2611.160156 2153.578125 2613.058594 2154.828125 2613.460938 C 2149.589844 2615.921875 2144.808594 2616.449219 2140.5 2615.050781 C 2139.378906 2616.070312 2135.980469 2618 2130.320312 2620.828125 C 2148.78125 2625.589844 2161.289062 2623.839844 2167.871094 2615.601562 C 2165.359375 2616.261719 2162.878906 2616.300781 2160.449219 2615.730469 C 2161.519531 2615.191406 2162.480469 2614.429688 2163.328125 2613.449219 L 2199.53125 2611.640625 C 2199.871094 2611.21875 2199.75 2610.839844 2199.78125 2610.511719 C 2199.820312 2610.039062 2199.050781 2609.390625 2198.871094 2609.371094 Z M 2153.941406 2616.730469 C 2151.371094 2618.949219 2148.910156 2620.058594 2146.550781 2620.039062 L 2147.519531 2618.769531 L 2144.941406 2619.019531 L 2148.910156 2617.640625 L 2147.539062 2619.359375 C 2149.960938 2618.769531 2152.089844 2617.898438 2153.941406 2616.730469 Z M 2164.570312 2616.941406 C 2165.070312 2616.949219 2165.46875 2616.898438 2165.78125 2616.800781 C 2158.960938 2623.128906 2147.898438 2624.28125 2132.851562 2620.320312 C 2133.109375 2620.128906 2134 2619.859375 2134.660156 2619.441406 C 2145.300781 2623.210938 2155.179688 2622.351562 2164.570312 2616.941406 Z M 2156.738281 2611.371094 C 2156.210938 2611.691406 2155.761719 2611.839844 2155.378906 2611.839844 C 2155.691406 2611.53125 2156.140625 2611.378906 2156.738281 2611.371094 Z M 2164.078125 2611.800781 C 2163.761719 2612.019531 2163.25 2612.058594 2162.539062 2611.929688 C 2163.011719 2611.78125 2163.519531 2611.738281 2164.078125 2611.800781 Z M 2180.980469 2611.070312 C 2180.761719 2611.351562 2180.289062 2611.46875 2179.578125 2611.410156 C 2179.878906 2611.199219 2180.351562 2611.089844 2180.980469 2611.070312 Z M 2178.851562 2611.101562 C 2178.320312 2611.378906 2177.460938 2611.5 2176.25 2611.480469 C 2176.890625 2611.25 2177.761719 2611.128906 2178.851562 2611.101562 Z M 2187.351562 2611.421875 C 2187.140625 2611.238281 2187.121094 2611.070312 2187.300781 2610.929688 C 2187.398438 2610.710938 2187.601562 2610.699219 2187.898438 2610.898438 C 2187.808594 2611.269531 2187.621094 2611.441406 2187.351562 2611.421875 Z M 2198.160156 2610.519531 C 2197.75 2610.769531 2196.828125 2610.78125 2195.390625 2610.539062 C 2196.25 2610.441406 2197.171875 2610.429688 2198.160156 2610.519531 Z M 2184.640625 2611.230469 C 2185.210938 2610.890625 2185.789062 2610.851562 2186.378906 2611.121094 C 2185.949219 2611.179688 2185.371094 2611.21875 2184.640625 2611.230469 "/>
<path fill-rule="evenodd" fill="rgb(0%, 0%, 0%)" fill-opacity="1" d="M 2156.28125 2609.371094 L 2200.03125 2610.601562 C 2200.441406 2611.160156 2201.578125 2613.058594 2200.328125 2613.460938 C 2205.558594 2615.921875 2210.339844 2616.449219 2214.660156 2615.050781 C 2215.78125 2616.070312 2219.171875 2618 2224.839844 2620.828125 C 2206.378906 2625.589844 2193.859375 2623.839844 2187.28125 2615.601562 C 2189.800781 2616.261719 2192.269531 2616.300781 2194.710938 2615.730469 C 2193.628906 2615.191406 2192.671875 2614.429688 2191.828125 2613.449219 L 2155.621094 2611.640625 C 2155.289062 2611.21875 2155.410156 2610.839844 2155.378906 2610.511719 C 2155.339844 2610.039062 2156.101562 2609.390625 2156.28125 2609.371094 Z M 2201.210938 2616.730469 C 2203.78125 2618.949219 2206.25 2620.058594 2208.601562 2620.039062 L 2207.640625 2618.769531 L 2210.210938 2619.019531 L 2206.238281 2617.640625 L 2207.609375 2619.359375 C 2205.191406 2618.769531 2203.058594 2617.898438 2201.210938 2616.730469 Z M 2190.578125 2616.941406 C 2190.089844 2616.949219 2189.679688 2616.898438 2189.371094 2616.800781 C 2196.191406 2623.128906 2207.261719 2624.28125 2222.300781 2620.320312 C 2222.039062 2620.128906 2221.148438 2619.859375 2220.488281 2619.441406 C 2209.859375 2623.210938 2199.980469 2622.351562 2190.578125 2616.941406 Z M 2198.410156 2611.371094 C 2198.941406 2611.691406 2199.390625 2611.839844 2199.769531 2611.839844 C 2199.46875 2611.53125 2199.019531 2611.378906 2198.410156 2611.371094 Z M 2191.070312 2611.800781 C 2191.398438 2612.019531 2191.910156 2612.058594 2192.609375 2611.929688 C 2192.140625 2611.78125 2191.628906 2611.738281 2191.070312 2611.800781 Z M 2174.171875 2611.070312 C 2174.390625 2611.351562 2174.859375 2611.46875 2175.578125 2611.410156 C 2175.269531 2611.199219 2174.800781 2611.089844 2174.171875 2611.070312 Z M 2176.308594 2611.101562 C 2176.828125 2611.378906 2177.699219 2611.5 2178.910156 2611.480469 C 2178.269531 2611.25 2177.398438 2611.128906 2176.308594 2611.101562 Z M 2167.808594 2611.421875 C 2168.019531 2611.238281 2168.03125 2611.070312 2167.859375 2610.929688 C 2167.75 2610.710938 2167.550781 2610.699219 2167.261719 2610.898438 C 2167.351562 2611.269531 2167.53125 2611.441406 2167.808594 2611.421875 Z M 2157 2610.519531 C 2157.410156 2610.769531 2158.328125 2610.78125 2159.761719 2610.539062 C 2158.910156 2610.441406 2157.988281 2610.429688 2157 2610.519531 Z M 2170.511719 2611.230469 C 2169.941406 2610.890625 2169.359375 2610.851562 2168.769531 2611.121094 C 2169.199219 2611.179688 2169.78125 2611.21875 2170.511719 2611.230469 "/>
<path fill-rule="evenodd" fill="rgb(0%, 0%, 0%)" fill-opacity="1" d="M 2209.570312 2594.929688 C 2214.101562 2594.929688 2217.769531 2598.601562 2217.769531 2603.128906 C 2217.769531 2607.648438 2214.101562 2611.320312 2209.570312 2611.320312 C 2205.039062 2611.320312 2201.378906 2607.648438 2201.378906 2603.128906 C 2201.378906 2598.601562 2205.039062 2594.929688 2209.570312 2594.929688 "/>
<path fill-rule="evenodd" fill="rgb(0%, 0%, 0%)" fill-opacity="1" d="M 2145.578125 2594.929688 C 2141.058594 2594.929688 2137.390625 2598.601562 2137.390625 2603.128906 C 2137.390625 2607.648438 2141.058594 2611.320312 2145.578125 2611.320312 C 2150.109375 2611.320312 2153.78125 2607.648438 2153.78125 2603.128906 C 2153.78125 2598.601562 2150.109375 2594.929688 2145.578125 2594.929688 "/>
<path fill-rule="evenodd" fill="rgb(0%, 0%, 0%)" fill-opacity="1" d="M 1806.578125 2595.488281 L 1805.699219 2591.121094 L 1804.820312 2586.738281 L 1808.160156 2589.699219 L 1811.511719 2592.648438 C 1813.738281 2585.941406 1818.539062 2592.941406 1816.410156 2594.339844 C 1816.28125 2591.871094 1814.449219 2591.949219 1813.511719 2594.089844 C 1814.25 2596.308594 1814.429688 2598.179688 1814.050781 2599.71875 L 1839.941406 2644.550781 L 1837.320312 2646.058594 L 1811.441406 2601.230469 C 1809.921875 2600.789062 1808.378906 2599.699219 1806.828125 2597.941406 C 1804.511719 2597.691406 1803.53125 2599.238281 1805.601562 2600.589844 C 1803.328125 2601.730469 1799.660156 2594.058594 1806.578125 2595.488281 Z M 1807.160156 2597.210938 L 1807.449219 2596.921875 L 1806.589844 2592.660156 L 1805.828125 2588.859375 L 1809.878906 2595.890625 L 1810.210938 2595.699219 L 1806.148438 2588.679688 L 1809.050781 2591.238281 L 1812.398438 2594.191406 L 1812.710938 2594 L 1808.941406 2590.679688 L 1805.171875 2587.351562 L 1806.160156 2592.28125 L 1807.160156 2597.210938 "/>
<path fill-rule="evenodd" fill="rgb(0%, 0%, 0%)" fill-opacity="1" d="M 1838.261719 2595.488281 L 1839.140625 2591.121094 L 1840.019531 2586.738281 L 1836.679688 2589.699219 L 1833.328125 2592.648438 C 1831.109375 2585.941406 1826.300781 2592.941406 1828.429688 2594.339844 C 1828.558594 2591.871094 1830.390625 2591.949219 1831.328125 2594.089844 C 1830.589844 2596.308594 1830.410156 2598.179688 1830.789062 2599.71875 L 1804.910156 2644.550781 L 1807.519531 2646.058594 L 1833.410156 2601.230469 C 1834.929688 2600.789062 1836.460938 2599.699219 1838.011719 2597.941406 C 1840.339844 2597.691406 1841.308594 2599.238281 1839.238281 2600.589844 C 1841.519531 2601.730469 1845.179688 2594.058594 1838.261719 2595.488281 Z M 1837.691406 2597.210938 L 1837.390625 2596.921875 L 1838.25 2592.660156 L 1839.019531 2588.859375 L 1834.960938 2595.890625 L 1834.640625 2595.699219 L 1838.691406 2588.679688 L 1835.789062 2591.238281 L 1832.441406 2594.191406 L 1832.128906 2594 L 1835.898438 2590.679688 L 1839.679688 2587.351562 L 1838.679688 2592.28125 L 1837.691406 2597.210938 "/>
<path fill-rule="evenodd" fill="rgb(0%, 0%, 0%)" fill-opacity="1" d="M 1801.128906 2609.371094 L 1844.871094 2610.601562 C 1845.289062 2611.160156 1846.421875 2613.058594 1845.171875 2613.460938 C 1850.410156 2615.921875 1855.191406 2616.449219 1859.5 2615.050781 C 1860.621094 2616.070312 1864.019531 2618 1869.679688 2620.828125 C 1851.21875 2625.589844 1838.710938 2623.839844 1832.128906 2615.601562 C 1834.640625 2616.261719 1837.121094 2616.300781 1839.550781 2615.730469 C 1838.480469 2615.191406 1837.519531 2614.429688 1836.671875 2613.449219 L 1800.46875 2611.640625 C 1800.128906 2611.21875 1800.25 2610.839844 1800.21875 2610.511719 C 1800.179688 2610.039062 1800.949219 2609.390625 1801.128906 2609.371094 Z M 1846.058594 2616.730469 C 1848.628906 2618.949219 1851.089844 2620.058594 1853.449219 2620.039062 L 1852.480469 2618.769531 L 1855.058594 2619.019531 L 1851.089844 2617.640625 L 1852.460938 2619.359375 C 1850.039062 2618.769531 1847.898438 2617.898438 1846.058594 2616.730469 Z M 1835.429688 2616.941406 C 1834.929688 2616.949219 1834.53125 2616.898438 1834.21875 2616.800781 C 1841.039062 2623.128906 1852.101562 2624.28125 1867.148438 2620.320312 C 1866.878906 2620.128906 1865.988281 2619.859375 1865.339844 2619.441406 C 1854.699219 2623.210938 1844.820312 2622.351562 1835.429688 2616.941406 Z M 1843.261719 2611.371094 C 1843.78125 2611.691406 1844.238281 2611.839844 1844.621094 2611.839844 C 1844.308594 2611.53125 1843.859375 2611.378906 1843.261719 2611.371094 Z M 1835.921875 2611.800781 C 1836.238281 2612.019531 1836.75 2612.058594 1837.460938 2611.929688 C 1836.988281 2611.78125 1836.480469 2611.738281 1835.921875 2611.800781 Z M 1819.019531 2611.070312 C 1819.238281 2611.351562 1819.710938 2611.46875 1820.421875 2611.410156 C 1820.121094 2611.199219 1819.648438 2611.089844 1819.019531 2611.070312 Z M 1821.148438 2611.101562 C 1821.679688 2611.378906 1822.539062 2611.5 1823.75 2611.480469 C 1823.109375 2611.25 1822.238281 2611.128906 1821.148438 2611.101562 Z M 1812.648438 2611.421875 C 1812.859375 2611.238281 1812.878906 2611.070312 1812.699219 2610.929688 C 1812.601562 2610.710938 1812.398438 2610.699219 1812.101562 2610.898438 C 1812.191406 2611.269531 1812.378906 2611.441406 1812.648438 2611.421875 Z M 1801.839844 2610.519531 C 1802.25 2610.769531 1803.171875 2610.78125 1804.609375 2610.539062 C 1803.75 2610.441406 1802.828125 2610.429688 1801.839844 2610.519531 Z M 1815.359375 2611.230469 C 1814.789062 2610.890625 1814.210938 2610.851562 1813.621094 2611.121094 C 1814.050781 2611.179688 1814.628906 2611.21875 1815.359375 2611.230469 "/>
<path fill-rule="evenodd" fill="rgb(0%, 0%, 0%)" fill-opacity="1" d="M 1843.71875 2609.371094 L 1799.96875 2610.601562 C 1799.558594 2611.160156 1798.421875 2613.058594 1799.671875 2613.460938 C 1794.441406 2615.921875 1789.660156 2616.449219 1785.339844 2615.050781 C 1784.21875 2616.070312 1780.828125 2618 1775.160156 2620.828125 C 1793.621094 2625.589844 1806.140625 2623.839844 1812.71875 2615.601562 C 1810.199219 2616.261719 1807.730469 2616.300781 1805.289062 2615.730469 C 1806.371094 2615.191406 1807.328125 2614.429688 1808.171875 2613.449219 L 1844.378906 2611.640625 C 1844.710938 2611.21875 1844.589844 2610.839844 1844.621094 2610.511719 C 1844.660156 2610.039062 1843.890625 2609.390625 1843.71875 2609.371094 Z M 1798.789062 2616.730469 C 1796.21875 2618.949219 1793.75 2620.058594 1791.398438 2620.039062 L 1792.359375 2618.769531 L 1789.789062 2619.019531 L 1793.761719 2617.640625 L 1792.390625 2619.359375 C 1794.808594 2618.769531 1796.941406 2617.898438 1798.789062 2616.730469 Z M 1809.421875 2616.941406 C 1809.910156 2616.949219 1810.320312 2616.898438 1810.628906 2616.800781 C 1803.808594 2623.128906 1792.738281 2624.28125 1777.699219 2620.320312 C 1777.960938 2620.128906 1778.851562 2619.859375 1779.511719 2619.441406 C 1790.140625 2623.210938 1800.019531 2622.351562 1809.421875 2616.941406 Z M 1801.589844 2611.371094 C 1801.058594 2611.691406 1800.609375 2611.839844 1800.230469 2611.839844 C 1800.53125 2611.53125 1800.980469 2611.378906 1801.589844 2611.371094 Z M 1808.929688 2611.800781 C 1808.601562 2612.019531 1808.089844 2612.058594 1807.390625 2611.929688 C 1807.859375 2611.78125 1808.371094 2611.738281 1808.929688 2611.800781 Z M 1825.828125 2611.070312 C 1825.609375 2611.351562 1825.140625 2611.46875 1824.421875 2611.410156 C 1824.730469 2611.199219 1825.199219 2611.089844 1825.828125 2611.070312 Z M 1823.691406 2611.101562 C 1823.171875 2611.378906 1822.300781 2611.5 1821.089844 2611.480469 C 1821.730469 2611.25 1822.601562 2611.128906 1823.691406 2611.101562 Z M 1832.191406 2611.421875 C 1831.980469 2611.238281 1831.96875 2611.070312 1832.140625 2610.929688 C 1832.25 2610.710938 1832.449219 2610.699219 1832.738281 2610.898438 C 1832.648438 2611.269531 1832.46875 2611.441406 1832.191406 2611.421875 Z M 1843 2610.519531 C 1842.589844 2610.769531 1841.671875 2610.78125 1840.238281 2610.539062 C 1841.089844 2610.441406 1842.011719 2610.429688 1843 2610.519531 Z M 1829.480469 2611.230469 C 1830.058594 2610.890625 1830.640625 2610.851562 1831.230469 2611.121094 C 1830.800781 2611.179688 1830.21875 2611.21875 1829.480469 2611.230469 "/>
<path fill-rule="evenodd" fill="rgb(0%, 0%, 0%)" fill-opacity="1" d="M 1790.429688 2594.929688 C 1785.898438 2594.929688 1782.230469 2598.601562 1782.230469 2603.128906 C 1782.230469 2607.648438 1785.898438 2611.320312 1790.429688 2611.320312 C 1794.960938 2611.320312 1798.621094 2607.648438 1798.621094 2603.128906 C 1798.621094 2598.601562 1794.960938 2594.929688 1790.429688 2594.929688 "/>
<path fill-rule="evenodd" fill="rgb(0%, 0%, 0%)" fill-opacity="1" d="M 1854.421875 2594.929688 C 1858.941406 2594.929688 1862.609375 2598.601562 1862.609375 2603.128906 C 1862.609375 2607.648438 1858.941406 2611.320312 1854.421875 2611.320312 C 1849.890625 2611.320312 1846.21875 2607.648438 1846.21875 2603.128906 C 1846.21875 2598.601562 1849.890625 2594.929688 1854.421875 2594.929688 "/>
<path fill-rule="evenodd" fill="rgb(0%, 0%, 0%)" fill-opacity="1" d="M 2018.488281 1686.140625 C 2044.398438 1719.261719 2064.878906 1756.5 2079.921875 1797.851562 C 2100.191406 1804.230469 2128.429688 1871.25 2164.628906 1998.910156 C 2143.488281 1849.46875 2094.78125 1745.21875 2018.488281 1686.140625 Z M 2055.480469 1655.421875 C 2095.308594 1656.589844 2130.988281 1669.011719 2162.53125 1692.660156 C 2141.769531 1687.140625 2124.230469 1686.519531 2109.941406 1690.789062 C 2127.460938 1691.351562 2144.210938 1700.191406 2160.210938 1717.320312 C 2150.988281 1711.460938 2139.351562 1709.601562 2125.300781 1711.738281 C 2175.019531 1732.019531 2210.710938 1762.738281 2232.339844 1803.890625 C 2206.511719 1780 2181.378906 1769.769531 2156.941406 1773.179688 C 2194.609375 1800.109375 2223.46875 1842.929688 2243.511719 1901.628906 C 2220.5 1875.679688 2198.78125 1858.300781 2178.351562 1849.511719 C 2215.578125 1890.421875 2236.210938 1943.949219 2240.261719 2010.078125 C 2218.648438 1970.300781 2192.578125 1942.691406 2162.058594 1927.230469 C 2195.898438 1960.261719 2216.070312 2018.128906 2222.578125 2100.828125 L 1856.289062 2100.828125 C 1857.109375 2067.359375 1892.058594 2029.359375 1912.640625 1997.621094 C 1920.648438 1979.871094 1924.101562 1960.269531 1922.980469 1938.839844 C 1934.238281 1926.089844 1955.078125 1911.980469 1985.53125 1896.511719 C 1923.941406 1918.871094 1883.199219 1950.261719 1863.300781 1990.699219 C 1843.78125 2002.101562 1822.359375 1993.371094 1807.949219 1974.03125 C 1834.339844 1943.96875 1845.570312 1929.011719 1845.769531 1900.128906 C 1841.789062 1930.089844 1827.820312 1944.890625 1806.070312 1968.519531 C 1806.050781 1968.488281 1806.03125 1968.449219 1806.011719 1968.421875 C 1793.890625 1969.828125 1782.71875 1969.679688 1772.5 1967.949219 C 1759.390625 1965.839844 1756.761719 1940.398438 1764.578125 1891.621094 C 1747.871094 1870.949219 1757.03125 1859 1792.039062 1855.789062 C 1814.460938 1829.761719 1842.078125 1803.378906 1874.890625 1776.660156 C 1869.128906 1773.96875 1867.269531 1769.078125 1869.308594 1762.011719 C 1883.5 1755.371094 1895.140625 1746.058594 1904.21875 1734.078125 C 1894.878906 1728.171875 1880.140625 1731.269531 1860.011719 1743.390625 C 1858.351562 1723.648438 1874.480469 1711.550781 1908.410156 1707.089844 C 1895.480469 1699.769531 1888.351562 1687.039062 1887 1668.921875 C 1891.910156 1685.589844 1907.738281 1693.5 1934.46875 1692.660156 C 1931.820312 1684.519531 1923.441406 1679.25 1909.339844 1676.828125 C 1920.609375 1667.488281 1933.960938 1667.488281 1949.371094 1676.828125 C 1965.800781 1638.539062 2006.910156 1623.03125 2072.710938 1630.289062 C 2056.140625 1630.769531 2045.128906 1636.820312 2039.660156 1648.441406 C 2054.820312 1641.480469 2071.570312 1639 2089.929688 1640.988281 C 2081.191406 1642.550781 2069.710938 1647.359375 2055.480469 1655.421875 Z M 1897.480469 1781.558594 C 1904.511719 1785.261719 1911.5 1785.691406 1918.449219 1782.839844 C 1919.191406 1782.539062 1919.921875 1782.199219 1920.660156 1781.828125 C 1929 1777.039062 1925.109375 1773.011719 1935.929688 1768.871094 C 1947.308594 1768.160156 1946.648438 1765.828125 1949.609375 1760.148438 C 1943.960938 1766.398438 1940.570312 1766.851562 1935.621094 1764.550781 C 1927.25 1759.089844 1917.238281 1759.210938 1909.269531 1766.28125 C 1908.679688 1766.800781 1908.089844 1767.359375 1907.5 1767.960938 C 1904.121094 1771.359375 1900.78125 1775.890625 1897.480469 1781.558594 Z M 1783.398438 1904.308594 C 1792.371094 1896.808594 1794.699219 1887.039062 1790.378906 1874.988281 C 1781.019531 1872.46875 1773.570312 1872.46875 1768.039062 1874.988281 C 1766.410156 1885.28125 1771.53125 1895.050781 1783.398438 1904.308594 "/>
<path fill-rule="evenodd" fill="rgb(0%, 0%, 0%)" fill-opacity="1" d="M 2235.511719 2112.890625 L 1843.148438 2112.890625 C 1839.101562 2112.890625 1835.78125 2116.199219 1835.78125 2120.261719 L 1835.78125 2130.878906 C 1835.78125 2134.941406 1839.101562 2138.25 1843.148438 2138.25 L 2235.511719 2138.25 C 2239.558594 2138.25 2242.878906 2134.941406 2242.878906 2130.878906 L 2242.878906 2120.261719 C 2242.878906 2116.199219 2239.558594 2112.890625 2235.511719 2112.890625 "/>
</svg>
