<svg width="400" height="328" viewBox="0 0 400 328" fill="none" xmlns="http://www.w3.org/2000/svg">
<g filter="url(#filter0_d_2016_297)">
<path d="M24 32C24 27.5817 27.5817 24 32 24H376C380.418 24 384 27.5817 384 32V304C384 308.418 380.418 312 376 312H32C27.5817 312 24 308.418 24 304V32Z" fill="white" shape-rendering="crispEdges"/>
<path d="M52.1 48.88H47.48V61H44.92V48.88H40.3V46.64H52.1V48.88ZM60.293 50.5V61H57.893V59.88C57.293 60.58 56.393 61.22 55.033 61.22C52.833 61.22 51.473 59.72 51.473 57.46V50.5H53.873V56.94C53.873 58.22 54.433 59.04 55.733 59.04C56.813 59.04 57.893 58.24 57.893 56.74V50.5H60.293ZM63.0425 58.36V52.54H61.5825V50.5H63.0425V47.42H65.4025V50.5H67.6025V52.54H65.4025V57.98C65.4025 58.92 65.9425 59.02 66.8025 59.02C67.2025 59.02 67.4225 59 67.7825 58.96V60.98C67.3425 61.06 66.7425 61.12 66.1225 61.12C64.1225 61.12 63.0425 60.5 63.0425 58.36ZM78.9427 55.76C78.9427 59.02 76.8427 61.22 73.8827 61.22C70.9227 61.22 68.8227 59.02 68.8227 55.76C68.8227 52.5 70.9227 50.3 73.8827 50.3C76.8427 50.3 78.9427 52.5 78.9427 55.76ZM71.2427 55.76C71.2427 57.9 72.2627 59.2 73.8827 59.2C75.5027 59.2 76.5227 57.9 76.5227 55.76C76.5227 53.62 75.5027 52.32 73.8827 52.32C72.2627 52.32 71.2427 53.62 71.2427 55.76ZM86.7708 50.48V52.88C86.4708 52.84 86.2308 52.82 85.8908 52.82C84.3708 52.82 83.2108 53.8 83.2108 55.48V61H80.8108V50.5H83.2108V52.06C83.6708 51.08 84.7508 50.44 86.0908 50.44C86.3708 50.44 86.5908 50.46 86.7708 50.48ZM88.388 49.1V46.64H90.868V49.1H88.388ZM90.828 50.5V61H88.428V50.5H90.828ZM96.1298 61.18C94.1298 61.18 92.5898 59.96 92.5898 58.08C92.5898 56.08 94.0898 55.2 96.1098 54.78L99.0098 54.18V54C99.0098 53 98.4898 52.38 97.2098 52.38C96.0698 52.38 95.4698 52.9 95.1898 53.92L92.9298 53.4C93.4498 51.66 94.9898 50.3 97.3098 50.3C99.8298 50.3 101.35 51.5 101.35 53.92V58.44C101.35 59.04 101.61 59.22 102.27 59.14V61C100.53 61.2 99.6098 60.86 99.2498 60C98.5898 60.74 97.4898 61.18 96.1298 61.18ZM99.0098 57.3V56.02L96.7498 56.5C95.7298 56.72 94.9698 57.04 94.9698 57.98C94.9698 58.8 95.5698 59.26 96.4898 59.26C97.7698 59.26 99.0098 58.58 99.0098 57.3ZM106.375 46.64V61H103.975V46.64H106.375ZM107.797 59L109.597 57.56C110.217 58.58 111.417 59.26 112.637 59.26C113.657 59.26 114.597 58.9 114.597 57.96C114.597 57.06 113.717 56.96 112.057 56.62C110.397 56.28 108.497 55.86 108.497 53.62C108.497 51.7 110.177 50.3 112.597 50.3C114.437 50.3 116.077 51.12 116.837 52.28L115.217 53.74C114.617 52.8 113.617 52.26 112.457 52.26C111.477 52.26 110.837 52.7 110.837 53.4C110.837 54.16 111.597 54.3 112.917 54.58C114.697 54.96 116.937 55.34 116.937 57.74C116.937 59.86 114.997 61.22 112.617 61.22C110.677 61.22 108.737 60.44 107.797 59Z" fill="#232729"/>
<path d="M40.948 85V76.384H42.1V83.992H46.396V85H40.948ZM49.8885 85.132C48.1485 85.132 46.9485 83.8 46.9485 81.868C46.9485 79.996 48.1365 78.604 49.8405 78.604C51.5925 78.604 52.5165 79.936 52.5165 81.676V82.036H47.9805C48.0405 83.356 48.7965 84.196 49.8885 84.196C50.7285 84.196 51.3285 83.74 51.5205 82.996L52.4685 83.332C52.0845 84.448 51.1365 85.132 49.8885 85.132ZM49.8285 79.528C48.9165 79.528 48.2325 80.14 48.0405 81.208H51.4245C51.4005 80.32 50.9205 79.528 49.8285 79.528ZM55.5033 85.108C54.3633 85.108 53.4393 84.436 53.4393 83.308C53.4393 82.06 54.4113 81.544 55.8153 81.256L57.3393 80.944V80.68C57.3393 79.96 56.9433 79.552 56.1033 79.552C55.3113 79.552 54.8433 79.924 54.6513 80.62L53.6313 80.356C53.9313 79.336 54.8553 78.604 56.1393 78.604C57.5433 78.604 58.4073 79.288 58.4073 80.632V83.692C58.4073 84.1 58.6593 84.232 59.0793 84.136V85C58.1193 85.12 57.5673 84.892 57.4353 84.292C57.0513 84.784 56.3553 85.108 55.5033 85.108ZM57.3393 82.864V81.784L56.1152 82.048C55.1553 82.24 54.5073 82.504 54.5073 83.26C54.5073 83.872 54.9513 84.232 55.6353 84.232C56.5592 84.232 57.3393 83.668 57.3393 82.864ZM63.4997 78.7V79.792C63.3197 79.756 63.1757 79.744 62.9717 79.744C62.0597 79.744 61.3277 80.464 61.3277 81.568V85H60.2477V78.724H61.3277V79.792C61.6037 79.156 62.2157 78.676 63.0677 78.676C63.2357 78.676 63.3917 78.688 63.4997 78.7ZM64.6891 85V78.724H65.7691V79.576C66.1291 79.06 66.7531 78.604 67.6411 78.604C68.9731 78.604 69.7291 79.528 69.7291 80.86V85H68.6491V81.148C68.6491 80.272 68.2771 79.612 67.3411 79.612C66.5611 79.612 65.7691 80.212 65.7691 81.256V85H64.6891ZM73.9938 85V76.384H75.0738V79.576C75.4338 79.06 76.0578 78.604 76.9458 78.604C78.2778 78.604 79.0338 79.528 79.0338 80.86V85H77.9538V81.148C77.9538 80.272 77.5818 79.612 76.6458 79.612C75.8658 79.612 75.0738 80.212 75.0738 81.256V85H73.9938ZM86.1672 81.868C86.1672 83.812 84.9672 85.132 83.2512 85.132C81.5352 85.132 80.3352 83.812 80.3352 81.868C80.3352 79.924 81.5352 78.604 83.2512 78.604C84.9672 78.604 86.1672 79.924 86.1672 81.868ZM81.4272 81.868C81.4272 83.296 82.1472 84.208 83.2512 84.208C84.3552 84.208 85.0752 83.296 85.0752 81.868C85.0752 80.428 84.3552 79.516 83.2512 79.516C82.1472 79.516 81.4272 80.428 81.4272 81.868ZM90.4114 78.724H91.3234L92.6194 83.404L93.9274 78.724H95.0074L93.0994 85H92.1514L90.8434 80.344L89.5354 85H88.5874L86.6794 78.724H87.7954L89.1154 83.392L90.4114 78.724ZM98.7594 83.5V79.648H97.7874V78.724H98.7594V76.888H99.8274V78.724H101.255V79.648H99.8274V83.332C99.8274 83.992 100.151 84.112 100.703 84.112C100.955 84.112 101.135 84.1 101.387 84.04V84.964C101.111 85.024 100.799 85.06 100.439 85.06C99.3714 85.06 98.7594 84.7 98.7594 83.5ZM108.034 81.868C108.034 83.812 106.834 85.132 105.118 85.132C103.402 85.132 102.202 83.812 102.202 81.868C102.202 79.924 103.402 78.604 105.118 78.604C106.834 78.604 108.034 79.924 108.034 81.868ZM103.294 81.868C103.294 83.296 104.014 84.208 105.118 84.208C106.222 84.208 106.942 83.296 106.942 81.868C106.942 80.428 106.222 79.516 105.118 79.516C104.014 79.516 103.294 80.428 103.294 81.868ZM113.019 81.244V85H111.939V78.724H113.019V79.576C113.355 79.06 113.955 78.604 114.831 78.604C115.671 78.604 116.259 79.024 116.571 79.672C116.919 79.156 117.591 78.604 118.575 78.604C119.871 78.604 120.651 79.528 120.651 80.86V85H119.571V81.148C119.571 80.272 119.211 79.612 118.323 79.612C117.603 79.612 116.835 80.224 116.835 81.244V85H115.755V81.148C115.755 80.272 115.395 79.612 114.507 79.612C113.787 79.612 113.019 80.224 113.019 81.244ZM123.964 85.108C122.824 85.108 121.9 84.436 121.9 83.308C121.9 82.06 122.872 81.544 124.276 81.256L125.8 80.944V80.68C125.8 79.96 125.404 79.552 124.564 79.552C123.772 79.552 123.304 79.924 123.112 80.62L122.092 80.356C122.392 79.336 123.316 78.604 124.6 78.604C126.004 78.604 126.868 79.288 126.868 80.632V83.692C126.868 84.1 127.12 84.232 127.54 84.136V85C126.58 85.12 126.028 84.892 125.896 84.292C125.512 84.784 124.816 85.108 123.964 85.108ZM125.8 82.864V81.784L124.576 82.048C123.616 82.24 122.968 82.504 122.968 83.26C122.968 83.872 123.412 84.232 124.096 84.232C125.02 84.232 125.8 83.668 125.8 82.864ZM129.789 76.384V81.652L132.573 78.724H133.917L131.469 81.196L134.121 85H132.861L130.701 81.976L129.789 82.9V85H128.709V76.384H129.789ZM137.369 85.132C135.629 85.132 134.429 83.8 134.429 81.868C134.429 79.996 135.617 78.604 137.321 78.604C139.073 78.604 139.997 79.936 139.997 81.676V82.036H135.461C135.521 83.356 136.277 84.196 137.369 84.196C138.209 84.196 138.809 83.74 139.001 82.996L139.949 83.332C139.565 84.448 138.617 85.132 137.369 85.132ZM137.309 79.528C136.397 79.528 135.713 80.14 135.521 81.208H138.905C138.881 80.32 138.401 79.528 137.309 79.528ZM146.897 85.132C146.021 85.132 145.325 84.712 144.953 84.088V85H143.873V76.384H144.953V79.636C145.325 79.024 146.021 78.604 146.897 78.604C148.637 78.604 149.633 80.08 149.633 81.868C149.633 83.644 148.637 85.132 146.897 85.132ZM144.929 81.652V82.096C144.929 83.536 145.817 84.184 146.705 84.184C147.881 84.184 148.541 83.212 148.541 81.868C148.541 80.512 147.881 79.552 146.705 79.552C145.817 79.552 144.929 80.188 144.929 81.652ZM153.506 85.132C151.766 85.132 150.566 83.8 150.566 81.868C150.566 79.996 151.754 78.604 153.458 78.604C155.21 78.604 156.134 79.936 156.134 81.676V82.036H151.598C151.658 83.356 152.414 84.196 153.506 84.196C154.346 84.196 154.946 83.74 155.138 82.996L156.086 83.332C155.702 84.448 154.754 85.132 153.506 85.132ZM153.446 79.528C152.534 79.528 151.85 80.14 151.658 81.208H155.042C155.018 80.32 154.538 79.528 153.446 79.528ZM156.782 83.668L157.622 83.056C157.958 83.788 158.726 84.232 159.542 84.232C160.274 84.232 160.922 83.92 160.922 83.236C160.922 82.552 160.322 82.456 159.29 82.24C158.258 82.012 157.178 81.784 157.178 80.5C157.178 79.384 158.15 78.604 159.482 78.604C160.61 78.604 161.534 79.156 161.906 79.9L161.138 80.512C160.814 79.888 160.226 79.492 159.434 79.492C158.714 79.492 158.234 79.852 158.234 80.416C158.234 81.004 158.786 81.112 159.662 81.304C160.742 81.556 161.978 81.772 161.978 83.14C161.978 84.34 160.886 85.132 159.542 85.132C158.402 85.132 157.262 84.64 156.782 83.668ZM163.482 83.5V79.648H162.51V78.724H163.482V76.888H164.55V78.724H165.978V79.648H164.55V83.332C164.55 83.992 164.874 84.112 165.426 84.112C165.678 84.112 165.858 84.1 166.11 84.04V84.964C165.834 85.024 165.522 85.06 165.162 85.06C164.094 85.06 163.482 84.7 163.482 83.5ZM175.323 81.868C175.323 83.812 174.123 85.132 172.407 85.132C170.691 85.132 169.491 83.812 169.491 81.868C169.491 79.924 170.691 78.604 172.407 78.604C174.123 78.604 175.323 79.924 175.323 81.868ZM170.583 81.868C170.583 83.296 171.303 84.208 172.407 84.208C173.511 84.208 174.231 83.296 174.231 81.868C174.231 80.428 173.511 79.516 172.407 79.516C171.303 79.516 170.583 80.428 170.583 81.868ZM181.677 78.724V85H180.597V84.136C180.237 84.664 179.625 85.132 178.737 85.132C177.393 85.132 176.637 84.208 176.637 82.876V78.724H177.717V82.648C177.717 83.536 178.101 84.136 179.025 84.136C179.805 84.136 180.597 83.548 180.597 82.504V78.724H181.677ZM183.638 83.5V79.648H182.666V78.724H183.638V76.888H184.706V78.724H186.134V79.648H184.706V83.332C184.706 83.992 185.03 84.112 185.582 84.112C185.834 84.112 186.014 84.1 186.266 84.04V84.964C185.99 85.024 185.678 85.06 185.318 85.06C184.25 85.06 183.638 84.7 183.638 83.5ZM195.48 81.868C195.48 83.812 194.28 85.132 192.564 85.132C190.848 85.132 189.648 83.812 189.648 81.868C189.648 79.924 190.848 78.604 192.564 78.604C194.28 78.604 195.48 79.924 195.48 81.868ZM190.74 81.868C190.74 83.296 191.46 84.208 192.564 84.208C193.668 84.208 194.388 83.296 194.388 81.868C194.388 80.428 193.668 79.516 192.564 79.516C191.46 79.516 190.74 80.428 190.74 81.868ZM199.589 76.276V77.236C199.409 77.212 199.301 77.212 199.121 77.212C198.485 77.212 198.137 77.488 198.137 78.292V78.724H199.529V79.648H198.137V85H197.057V79.648H196.109V78.724H197.057V78.22C197.057 76.996 197.729 76.252 199.013 76.252C199.229 76.252 199.349 76.264 199.589 76.276ZM205.392 85.684C205.032 86.632 204.54 87.232 203.448 87.232C203.184 87.232 203.052 87.22 202.86 87.184V86.248C203.064 86.296 203.196 86.308 203.376 86.308C203.844 86.308 204.096 86.14 204.348 85.516L204.648 84.772L202.32 78.724H203.46L205.224 83.524L206.964 78.724H208.092L205.392 85.684ZM214.312 81.868C214.312 83.812 213.112 85.132 211.396 85.132C209.68 85.132 208.48 83.812 208.48 81.868C208.48 79.924 209.68 78.604 211.396 78.604C213.112 78.604 214.312 79.924 214.312 81.868ZM209.572 81.868C209.572 83.296 210.292 84.208 211.396 84.208C212.5 84.208 213.22 83.296 213.22 81.868C213.22 80.428 212.5 79.516 211.396 79.516C210.292 79.516 209.572 80.428 209.572 81.868ZM220.665 78.724V85H219.585V84.136C219.225 84.664 218.613 85.132 217.725 85.132C216.381 85.132 215.625 84.208 215.625 82.876V78.724H216.705V82.648C216.705 83.536 217.089 84.136 218.013 84.136C218.793 84.136 219.585 83.548 219.585 82.504V78.724H220.665ZM225.711 78.7V79.792C225.531 79.756 225.387 79.744 225.183 79.744C224.271 79.744 223.539 80.464 223.539 81.568V85H222.459V78.724H223.539V79.792C223.815 79.156 224.427 78.676 225.279 78.676C225.447 78.676 225.603 78.688 225.711 78.7ZM228.735 83.668L229.575 83.056C229.911 83.788 230.679 84.232 231.495 84.232C232.227 84.232 232.875 83.92 232.875 83.236C232.875 82.552 232.275 82.456 231.243 82.24C230.211 82.012 229.131 81.784 229.131 80.5C229.131 79.384 230.103 78.604 231.435 78.604C232.563 78.604 233.487 79.156 233.859 79.9L233.091 80.512C232.767 79.888 232.179 79.492 231.387 79.492C230.667 79.492 230.187 79.852 230.187 80.416C230.187 81.004 230.739 81.112 231.615 81.304C232.695 81.556 233.931 81.772 233.931 83.14C233.931 84.34 232.839 85.132 231.495 85.132C230.355 85.132 229.215 84.64 228.735 83.668ZM240.247 78.724V85H239.167V84.136C238.807 84.664 238.195 85.132 237.307 85.132C235.963 85.132 235.207 84.208 235.207 82.876V78.724H236.287V82.648C236.287 83.536 236.671 84.136 237.595 84.136C238.375 84.136 239.167 83.548 239.167 82.504V78.724H240.247ZM245.065 85.132C244.189 85.132 243.493 84.712 243.121 84.088V85H242.041V76.384H243.121V79.636C243.493 79.024 244.189 78.604 245.065 78.604C246.805 78.604 247.801 80.08 247.801 81.868C247.801 83.644 246.805 85.132 245.065 85.132ZM243.097 81.652V82.096C243.097 83.536 243.985 84.184 244.873 84.184C246.049 84.184 246.709 83.212 246.709 81.868C246.709 80.512 246.049 79.552 244.873 79.552C243.985 79.552 243.097 80.188 243.097 81.652ZM248.47 83.668L249.31 83.056C249.646 83.788 250.414 84.232 251.23 84.232C251.962 84.232 252.61 83.92 252.61 83.236C252.61 82.552 252.01 82.456 250.978 82.24C249.946 82.012 248.866 81.784 248.866 80.5C248.866 79.384 249.838 78.604 251.17 78.604C252.298 78.604 253.222 79.156 253.594 79.9L252.826 80.512C252.502 79.888 251.914 79.492 251.122 79.492C250.402 79.492 249.922 79.852 249.922 80.416C249.922 81.004 250.474 81.112 251.35 81.304C252.43 81.556 253.666 81.772 253.666 83.14C253.666 84.34 252.574 85.132 251.23 85.132C250.09 85.132 248.95 84.64 248.47 83.668ZM255.65 81.868C255.65 83.296 256.418 84.184 257.534 84.184C258.398 84.184 258.914 83.632 259.094 82.852L260.054 83.296C259.754 84.34 258.842 85.132 257.534 85.132C255.782 85.132 254.57 83.8 254.57 81.868C254.57 79.924 255.782 78.604 257.534 78.604C258.842 78.604 259.73 79.36 260.03 80.404L259.094 80.872C258.914 80.104 258.398 79.54 257.534 79.54C256.418 79.54 255.65 80.428 255.65 81.868ZM264.488 78.7V79.792C264.308 79.756 264.164 79.744 263.96 79.744C263.048 79.744 262.316 80.464 262.316 81.568V85H261.236V78.724H262.316V79.792C262.592 79.156 263.204 78.676 264.056 78.676C264.224 78.676 264.38 78.688 264.488 78.7ZM265.629 77.632V76.384H266.805V77.632H265.629ZM266.757 78.724V85H265.677V78.724H266.757ZM271.584 85.132C270.708 85.132 270.012 84.712 269.64 84.088V87.16H268.56V78.724H269.64V79.636C270.012 79.024 270.708 78.604 271.584 78.604C273.324 78.604 274.32 80.08 274.32 81.868C274.32 83.644 273.324 85.132 271.584 85.132ZM269.616 81.652V82.096C269.616 83.536 270.504 84.184 271.392 84.184C272.568 84.184 273.228 83.212 273.228 81.868C273.228 80.512 272.568 79.552 271.392 79.552C270.504 79.552 269.616 80.188 269.616 81.652ZM275.853 83.5V79.648H274.881V78.724H275.853V76.888H276.921V78.724H278.349V79.648H276.921V83.332C276.921 83.992 277.245 84.112 277.797 84.112C278.049 84.112 278.229 84.1 278.481 84.04V84.964C278.205 85.024 277.893 85.06 277.533 85.06C276.465 85.06 275.853 84.7 275.853 83.5ZM279.715 77.632V76.384H280.891V77.632H279.715ZM280.843 78.724V85H279.763V78.724H280.843ZM288.046 81.868C288.046 83.812 286.846 85.132 285.13 85.132C283.414 85.132 282.214 83.812 282.214 81.868C282.214 79.924 283.414 78.604 285.13 78.604C286.846 78.604 288.046 79.924 288.046 81.868ZM283.306 81.868C283.306 83.296 284.026 84.208 285.13 84.208C286.234 84.208 286.954 83.296 286.954 81.868C286.954 80.428 286.234 79.516 285.13 79.516C284.026 79.516 283.306 80.428 283.306 81.868ZM289.42 85V78.724H290.5V79.576C290.86 79.06 291.484 78.604 292.372 78.604C293.704 78.604 294.46 79.528 294.46 80.86V85H293.38V81.148C293.38 80.272 293.008 79.612 292.072 79.612C291.292 79.612 290.5 80.212 290.5 81.256V85H289.42ZM295.941 85V83.584H297.309V85H295.941Z" fill="#586166"/>
<rect x="40" y="109" width="328" height="127" rx="8" fill="#F7F9FA"/>
<path d="M63.636 203.276V204.236C63.456 204.212 63.348 204.212 63.168 204.212C62.532 204.212 62.184 204.488 62.184 205.292V205.724H63.576V206.648H62.184V212H61.104V206.648H60.156V205.724H61.104V205.22C61.104 203.996 61.776 203.252 63.06 203.252C63.276 203.252 63.396 203.264 63.636 203.276ZM67.8317 205.7V206.792C67.6517 206.756 67.5077 206.744 67.3037 206.744C66.3917 206.744 65.6597 207.464 65.6597 208.568V212H64.5797V205.724H65.6597V206.792C65.9357 206.156 66.5477 205.676 67.3997 205.676C67.5677 205.676 67.7237 205.688 67.8317 205.7ZM74.1633 208.868C74.1633 210.812 72.9633 212.132 71.2473 212.132C69.5313 212.132 68.3313 210.812 68.3313 208.868C68.3313 206.924 69.5313 205.604 71.2473 205.604C72.9633 205.604 74.1633 206.924 74.1633 208.868ZM69.4233 208.868C69.4233 210.296 70.1433 211.208 71.2473 211.208C72.3513 211.208 73.0713 210.296 73.0713 208.868C73.0713 207.428 72.3513 206.516 71.2473 206.516C70.1433 206.516 69.4233 207.428 69.4233 208.868ZM76.6167 208.244V212H75.5367V205.724H76.6167V206.576C76.9527 206.06 77.5527 205.604 78.4287 205.604C79.2687 205.604 79.8567 206.024 80.1687 206.672C80.5167 206.156 81.1887 205.604 82.1727 205.604C83.4687 205.604 84.2487 206.528 84.2487 207.86V212H83.1687V208.148C83.1687 207.272 82.8087 206.612 81.9207 206.612C81.2007 206.612 80.4327 207.224 80.4327 208.244V212H79.3527V208.148C79.3527 207.272 78.9927 206.612 78.1047 206.612C77.3847 206.612 76.6167 207.224 76.6167 208.244ZM88.0771 207.692C88.0771 205.064 89.3131 203.252 91.3651 203.252C93.4051 203.252 94.6411 205.064 94.6411 207.692C94.6411 210.32 93.4051 212.132 91.3651 212.132C89.3131 212.132 88.0771 210.32 88.0771 207.692ZM89.2291 207.692C89.2291 209.708 89.9611 211.124 91.3651 211.124C92.7571 211.124 93.5011 209.708 93.5011 207.692C93.5011 205.676 92.7571 204.26 91.3651 204.26C89.9611 204.26 89.2291 205.676 89.2291 207.692ZM97.4377 203.312C98.0297 203.312 98.4777 203.548 98.7817 204.02C99.0857 204.484 99.2377 205.14 99.2377 205.988C99.2377 206.836 99.0897 207.5 98.7937 207.98C98.5057 208.452 98.0537 208.688 97.4377 208.688C97.0617 208.688 96.7417 208.58 96.4777 208.364C96.2137 208.148 96.0137 207.84 95.8777 207.44C95.7497 207.032 95.6857 206.548 95.6857 205.988C95.6857 205.14 95.8257 204.484 96.1057 204.02C96.3857 203.548 96.8297 203.312 97.4377 203.312ZM97.4377 204.056C97.1337 204.056 96.9097 204.22 96.7657 204.548C96.6297 204.868 96.5617 205.348 96.5617 205.988C96.5617 206.628 96.6297 207.112 96.7657 207.44C96.9097 207.768 97.1337 207.932 97.4377 207.932C97.7497 207.932 97.9817 207.772 98.1337 207.452C98.2857 207.124 98.3617 206.636 98.3617 205.988C98.3617 205.348 98.2857 204.868 98.1337 204.548C97.9817 204.22 97.7497 204.056 97.4377 204.056ZM102.922 203.432L98.1697 212H97.2457L101.998 203.432H102.922ZM102.682 206.744C103.074 206.744 103.402 206.852 103.666 207.068C103.93 207.276 104.13 207.58 104.266 207.98C104.41 208.372 104.482 208.852 104.482 209.42C104.482 210.268 104.334 210.932 104.038 211.412C103.75 211.884 103.298 212.12 102.682 212.12C102.306 212.12 101.986 212.012 101.722 211.796C101.458 211.58 101.258 211.272 101.122 210.872C100.994 210.464 100.93 209.98 100.93 209.42C100.93 208.572 101.07 207.916 101.35 207.452C101.63 206.98 102.074 206.744 102.682 206.744ZM102.682 207.5C102.378 207.5 102.154 207.66 102.01 207.98C101.874 208.3 101.806 208.78 101.806 209.42C101.806 210.068 101.874 210.556 102.01 210.884C102.154 211.204 102.378 211.364 102.682 211.364C102.994 211.364 103.226 211.204 103.378 210.884C103.53 210.564 103.606 210.076 103.606 209.42C103.606 208.78 103.53 208.3 103.378 207.98C103.226 207.66 102.994 207.5 102.682 207.5ZM108.082 208.712C108.082 208.056 108.142 207.416 108.262 206.792C108.39 206.168 108.586 205.572 108.85 205.004C109.114 204.436 109.446 203.912 109.846 203.432H110.842C110.474 203.928 110.162 204.464 109.906 205.04C109.658 205.616 109.47 206.212 109.342 206.828C109.214 207.444 109.15 208.068 109.15 208.7C109.15 209.316 109.214 209.928 109.342 210.536C109.47 211.144 109.658 211.728 109.906 212.288C110.154 212.856 110.462 213.392 110.83 213.896H109.846C109.446 213.424 109.114 212.908 108.85 212.348C108.586 211.796 108.39 211.212 108.262 210.596C108.142 209.98 108.082 209.352 108.082 208.712ZM114.691 212.132C113.047 212.132 111.739 211.232 111.463 209.516L112.579 209.276C112.747 210.476 113.599 211.172 114.679 211.172C115.771 211.172 116.527 210.548 116.527 209.528C116.527 208.508 115.699 208.004 114.607 208.004H113.683V207.032H114.619C115.615 207.032 116.287 206.528 116.287 205.664C116.287 204.776 115.675 204.224 114.691 204.224C113.659 204.224 112.939 204.908 112.747 205.988L111.715 205.784C111.943 204.344 113.059 203.252 114.715 203.252C116.395 203.252 117.367 204.236 117.367 205.604C117.367 206.54 116.767 207.26 116.035 207.5C116.899 207.74 117.643 208.4 117.643 209.588C117.643 211.004 116.479 212.132 114.691 212.132ZM118.429 207.692C118.429 205.064 119.665 203.252 121.717 203.252C123.757 203.252 124.993 205.064 124.993 207.692C124.993 210.32 123.757 212.132 121.717 212.132C119.665 212.132 118.429 210.32 118.429 207.692ZM119.581 207.692C119.581 209.708 120.313 211.124 121.717 211.124C123.109 211.124 123.853 209.708 123.853 207.692C123.853 205.676 123.109 204.26 121.717 204.26C120.313 204.26 119.581 205.676 119.581 207.692ZM131.184 212.132C129.444 212.132 128.448 210.644 128.448 208.868C128.448 207.08 129.444 205.604 131.184 205.604C132.06 205.604 132.756 206.024 133.128 206.636V203.384H134.208V212H133.128V211.088C132.756 211.712 132.06 212.132 131.184 212.132ZM133.152 208.652C133.152 207.188 132.264 206.552 131.376 206.552C130.2 206.552 129.54 207.512 129.54 208.868C129.54 210.212 130.2 211.184 131.376 211.184C132.264 211.184 133.152 210.536 133.152 209.096V208.652ZM137.566 212.108C136.426 212.108 135.502 211.436 135.502 210.308C135.502 209.06 136.474 208.544 137.878 208.256L139.402 207.944V207.68C139.402 206.96 139.006 206.552 138.166 206.552C137.374 206.552 136.906 206.924 136.714 207.62L135.694 207.356C135.994 206.336 136.918 205.604 138.202 205.604C139.606 205.604 140.47 206.288 140.47 207.632V210.692C140.47 211.1 140.722 211.232 141.142 211.136V212C140.182 212.12 139.63 211.892 139.498 211.292C139.114 211.784 138.418 212.108 137.566 212.108ZM139.402 209.864V208.784L138.178 209.048C137.218 209.24 136.57 209.504 136.57 210.26C136.57 210.872 137.014 211.232 137.698 211.232C138.622 211.232 139.402 210.668 139.402 209.864ZM144.568 212.684C144.208 213.632 143.716 214.232 142.624 214.232C142.36 214.232 142.228 214.22 142.036 214.184V213.248C142.24 213.296 142.372 213.308 142.552 213.308C143.02 213.308 143.272 213.14 143.524 212.516L143.824 211.772L141.496 205.724H142.636L144.4 210.524L146.14 205.724H147.268L144.568 212.684ZM147.474 210.668L148.314 210.056C148.65 210.788 149.418 211.232 150.234 211.232C150.966 211.232 151.614 210.92 151.614 210.236C151.614 209.552 151.014 209.456 149.982 209.24C148.95 209.012 147.87 208.784 147.87 207.5C147.87 206.384 148.842 205.604 150.174 205.604C151.302 205.604 152.226 206.156 152.598 206.9L151.83 207.512C151.506 206.888 150.918 206.492 150.126 206.492C149.406 206.492 148.926 206.852 148.926 207.416C148.926 208.004 149.478 208.112 150.354 208.304C151.434 208.556 152.67 208.772 152.67 210.14C152.67 211.34 151.578 212.132 150.234 212.132C149.094 212.132 147.954 211.64 147.474 210.668ZM156.225 208.712C156.225 209.352 156.161 209.98 156.033 210.596C155.913 211.212 155.721 211.796 155.457 212.348C155.201 212.908 154.869 213.424 154.461 213.896H153.477C153.845 213.392 154.153 212.856 154.401 212.288C154.649 211.728 154.837 211.144 154.965 210.536C155.093 209.928 155.157 209.316 155.157 208.7C155.157 208.068 155.093 207.444 154.965 206.828C154.837 206.212 154.649 205.616 154.401 205.04C154.153 204.464 153.841 203.928 153.465 203.432H154.461C154.869 203.912 155.201 204.436 155.457 205.004C155.721 205.572 155.913 206.168 156.033 206.792C156.161 207.416 156.225 208.056 156.225 208.712Z" fill="#586166"/>
<rect x="130" y="164" width="48" height="20" rx="10" fill="#DEFEE4"/>
<path d="M138.64 169.836H139.504V178.5H138.352V172.164H136.276V171.312L137.2 171.252C138.22 171.18 138.556 170.832 138.64 169.836ZM140.968 174.192C140.968 171.564 142.204 169.752 144.256 169.752C146.296 169.752 147.532 171.564 147.532 174.192C147.532 176.82 146.296 178.632 144.256 178.632C142.204 178.632 140.968 176.82 140.968 174.192ZM142.12 174.192C142.12 176.208 142.852 177.624 144.256 177.624C145.648 177.624 146.392 176.208 146.392 174.192C146.392 172.176 145.648 170.76 144.256 170.76C142.852 170.76 142.12 172.176 142.12 174.192ZM148.444 174.192C148.444 171.564 149.68 169.752 151.732 169.752C153.772 169.752 155.008 171.564 155.008 174.192C155.008 176.82 153.772 178.632 151.732 178.632C149.68 178.632 148.444 176.82 148.444 174.192ZM149.596 174.192C149.596 176.208 150.328 177.624 151.732 177.624C153.124 177.624 153.868 176.208 153.868 174.192C153.868 172.176 153.124 170.76 151.732 170.76C150.328 170.76 149.596 172.176 149.596 174.192Z" fill="#07AF26"/>
<path d="M171.48 172.5C171.482 172.501 171.484 172.502 171.486 172.505C171.493 172.512 171.5 172.526 171.5 172.544V174.355C171.5 174.374 171.493 174.388 171.486 174.395C171.484 174.397 171.482 174.398 171.48 174.398L171.479 174.399L171.479 174.398C171.478 174.398 171.475 174.398 171.472 174.395C171.465 174.388 171.458 174.374 171.458 174.355V172.612L170.598 173.51L169.199 174.969C169.063 175.11 168.884 175.186 168.701 175.186C168.519 175.186 168.339 175.11 168.203 174.969L167.102 173.819C167.071 173.787 167.037 173.758 167 173.732L166.883 173.667L166.753 173.626C166.709 173.617 166.663 173.611 166.617 173.611C166.571 173.611 166.526 173.617 166.481 173.626L166.353 173.667C166.269 173.703 166.194 173.755 166.133 173.819L164.541 175.481L164.535 175.487L164.529 175.494C164.526 175.498 164.524 175.499 164.522 175.5H164.521L164.514 175.495C164.511 175.492 164.507 175.487 164.504 175.479C164.501 175.472 164.5 175.464 164.5 175.455C164.5 175.446 164.502 175.438 164.505 175.432C164.508 175.425 164.512 175.42 164.515 175.417L164.521 175.411L164.526 175.404L166.118 173.742L166.119 173.743C166.255 173.601 166.435 173.525 166.617 173.525C166.8 173.525 166.979 173.601 167.115 173.743V173.742L168.217 174.892C168.278 174.956 168.352 175.009 168.436 175.045C168.519 175.081 168.61 175.1 168.701 175.1C168.793 175.1 168.883 175.081 168.966 175.045C169.049 175.009 169.124 174.956 169.186 174.892L169.185 174.891L170.583 173.434L171.394 172.587H169.742C169.741 172.587 169.739 172.585 169.735 172.582C169.729 172.575 169.722 172.562 169.722 172.544C169.722 172.526 169.729 172.512 169.735 172.505C169.738 172.502 169.741 172.5 169.742 172.5H171.48Z" fill="#07AF26" stroke="#07AF26"/>
<path d="M62.226 138.974C62.226 141.144 63.402 142.572 65.054 142.572C66.23 142.572 67.084 141.858 67.392 140.682L69.072 141.256C68.484 143.034 67.084 144.154 65.054 144.154C62.38 144.154 60.434 142.026 60.434 138.974C60.434 135.922 62.38 133.794 65.054 133.794C67.084 133.794 68.484 134.914 69.072 136.692L67.392 137.266C67.084 136.09 66.23 135.376 65.054 135.376C63.402 135.376 62.226 136.804 62.226 138.974ZM71.8999 133.948V144H70.2199V133.948H71.8999ZM73.6372 135.67V133.948H75.3732V135.67H73.6372ZM75.3452 136.65V144H73.6652V136.65H75.3452ZM78.3285 140.332C78.3285 141.83 79.1125 142.698 80.2605 142.698C81.1565 142.698 81.7025 142.11 81.9125 141.298L83.3545 142.026C82.9765 143.216 81.8565 144.154 80.2605 144.154C78.1605 144.154 76.6485 142.6 76.6485 140.332C76.6485 138.064 78.1605 136.51 80.2605 136.51C81.8425 136.51 82.9345 137.406 83.3265 138.582L81.9125 139.352C81.7025 138.554 81.1565 137.952 80.2605 137.952C79.1125 137.952 78.3285 138.834 78.3285 140.332ZM86.0503 133.948V139.744L88.8783 136.65H90.9363L88.1643 139.506L91.1603 144H89.2143L87.0163 140.682L86.0503 141.662V144H84.3703V133.948H86.0503ZM96.7596 140.108V144H94.9676V133.948H98.9856C101.226 133.948 102.626 134.998 102.626 137.028C102.626 138.61 101.758 139.618 100.288 139.968L102.878 144H100.834L98.3836 140.108H96.7596ZM96.7596 138.568H98.8876C100.176 138.568 100.862 138.008 100.862 137.028C100.862 136.034 100.176 135.488 98.8876 135.488H96.7596V138.568ZM105.922 144.126C104.522 144.126 103.444 143.272 103.444 141.956C103.444 140.556 104.494 139.94 105.908 139.646L107.938 139.226V139.1C107.938 138.4 107.574 137.966 106.678 137.966C105.88 137.966 105.46 138.33 105.264 139.044L103.682 138.68C104.046 137.462 105.124 136.51 106.748 136.51C108.512 136.51 109.576 137.35 109.576 139.044V142.208C109.576 142.628 109.758 142.754 110.22 142.698V144C109.002 144.14 108.358 143.902 108.106 143.3C107.644 143.818 106.874 144.126 105.922 144.126ZM107.938 141.41V140.514L106.356 140.85C105.642 141.004 105.11 141.228 105.11 141.886C105.11 142.46 105.53 142.782 106.174 142.782C107.07 142.782 107.938 142.306 107.938 141.41ZM111.567 142.152V138.078H110.545V136.65H111.567V134.494H113.219V136.65H114.759V138.078H113.219V141.886C113.219 142.544 113.597 142.614 114.199 142.614C114.479 142.614 114.633 142.6 114.885 142.572V143.986C114.577 144.042 114.157 144.084 113.723 144.084C112.323 144.084 111.567 143.65 111.567 142.152ZM119.183 144.154C117.083 144.154 115.613 142.6 115.613 140.332C115.613 138.176 117.069 136.51 119.113 136.51C121.241 136.51 122.375 138.12 122.375 140.136V140.696H117.223C117.349 141.956 118.105 142.726 119.183 142.726C120.009 142.726 120.667 142.306 120.891 141.55L122.333 142.096C121.815 143.384 120.653 144.154 119.183 144.154ZM119.099 137.924C118.231 137.924 117.559 138.442 117.307 139.436H120.681C120.667 138.624 120.163 137.924 119.099 137.924Z" fill="#232729"/>
<path d="M65.328 165.672H68.04V183H64.488V171.384H60.432V168.744L61.992 168.6C64.2 168.432 65.136 167.664 65.328 165.672ZM70.4003 174.384C70.4003 169.128 72.9203 165.504 77.3363 165.504C81.7283 165.504 84.2483 169.128 84.2483 174.384C84.2483 179.64 81.7283 183.264 77.3363 183.264C72.9203 183.264 70.4003 179.64 70.4003 174.384ZM73.9523 174.384C73.9523 177.816 74.9603 180.24 77.3363 180.24C79.6883 180.24 80.6963 177.816 80.6963 174.384C80.6963 170.952 79.6883 168.528 77.3363 168.528C74.9603 168.528 73.9523 170.952 73.9523 174.384ZM85.7284 174.384C85.7284 169.128 88.2484 165.504 92.6644 165.504C97.0564 165.504 99.5764 169.128 99.5764 174.384C99.5764 179.64 97.0564 183.264 92.6644 183.264C88.2484 183.264 85.7284 179.64 85.7284 174.384ZM89.2804 174.384C89.2804 177.816 90.2884 180.24 92.6644 180.24C95.0164 180.24 96.0244 177.816 96.0244 174.384C96.0244 170.952 95.0164 168.528 92.6644 168.528C90.2884 168.528 89.2804 170.952 89.2804 174.384ZM105.089 165.624C106.433 165.624 107.449 166.096 108.137 167.04C108.841 167.968 109.193 169.28 109.193 170.976C109.193 172.672 108.865 174 108.209 174.96C107.553 175.904 106.513 176.376 105.089 176.376C104.209 176.376 103.465 176.16 102.857 175.728C102.265 175.296 101.817 174.68 101.513 173.88C101.209 173.064 101.057 172.096 101.057 170.976C101.057 169.28 101.377 167.968 102.017 167.04C102.657 166.096 103.681 165.624 105.089 165.624ZM105.113 168.072C104.729 168.072 104.449 168.312 104.273 168.792C104.097 169.272 104.009 170.008 104.009 171C104.009 171.976 104.097 172.712 104.273 173.208C104.449 173.704 104.729 173.952 105.113 173.952C105.497 173.952 105.777 173.704 105.953 173.208C106.145 172.712 106.241 171.976 106.241 171C106.241 170.008 106.145 169.272 105.953 168.792C105.777 168.312 105.497 168.072 105.113 168.072ZM117.257 165.864L107.753 183H104.945L114.449 165.864H117.257ZM117.089 172.464C117.985 172.464 118.737 172.68 119.345 173.112C119.953 173.528 120.409 174.136 120.713 174.936C121.033 175.72 121.193 176.68 121.193 177.816C121.193 179.512 120.865 180.84 120.209 181.8C119.553 182.744 118.513 183.216 117.089 183.216C116.209 183.216 115.465 183 114.857 182.568C114.265 182.136 113.817 181.52 113.513 180.72C113.209 179.904 113.057 178.936 113.057 177.816C113.057 176.12 113.377 174.808 114.017 173.88C114.657 172.936 115.681 172.464 117.089 172.464ZM117.113 174.912C116.729 174.912 116.449 175.152 116.273 175.632C116.097 176.112 116.009 176.848 116.009 177.84C116.009 178.816 116.097 179.552 116.273 180.048C116.449 180.544 116.729 180.792 117.113 180.792C117.497 180.792 117.777 180.552 117.953 180.072C118.145 179.576 118.241 178.832 118.241 177.84C118.241 176.848 118.145 176.112 117.953 175.632C117.777 175.152 117.497 174.912 117.113 174.912Z" fill="#232729"/>
<g filter="url(#filter1_d_2016_297)">
<rect x="40" y="256" width="166" height="40" rx="8" fill="white" shape-rendering="crispEdges"/>
<rect x="40.25" y="256.25" width="165.5" height="39.5" rx="7.75" stroke="#D2DFE6" stroke-width="0.5" shape-rendering="crispEdges"/>
<path d="M72.768 282V280.816C72.304 281.584 71.184 282.176 69.68 282.176C66.704 282.176 64.496 279.776 64.496 276.304C64.496 272.816 66.72 270.336 69.808 270.336C72.16 270.336 73.744 271.6 74.448 273.632L72.496 274.288C72.16 272.928 71.2 272.144 69.824 272.144C67.888 272.144 66.544 273.792 66.544 276.272C66.544 278.752 67.888 280.416 69.856 280.416C71.52 280.416 72.608 279.232 72.672 277.6H69.648V275.808H74.64V282H72.768ZM80.825 282.176C78.425 282.176 76.745 280.4 76.745 277.808C76.745 275.344 78.409 273.44 80.745 273.44C83.177 273.44 84.473 275.28 84.473 277.584V278.224H78.585C78.729 279.664 79.593 280.544 80.825 280.544C81.769 280.544 82.521 280.064 82.777 279.2L84.425 279.824C83.833 281.296 82.505 282.176 80.825 282.176ZM80.729 275.056C79.737 275.056 78.969 275.648 78.681 276.784H82.537C82.521 275.856 81.945 275.056 80.729 275.056ZM86.7296 279.888V275.232H85.5616V273.6H86.7296V271.136H88.6176V273.6H90.3776V275.232H88.6176V279.584C88.6176 280.336 89.0496 280.416 89.7376 280.416C90.0576 280.416 90.2336 280.4 90.5216 280.368V281.984C90.1696 282.048 89.6896 282.096 89.1936 282.096C87.5936 282.096 86.7296 281.6 86.7296 279.888ZM98.7607 282.144C97.1607 282.144 95.9287 281.168 95.9287 279.664C95.9287 278.064 97.1287 277.36 98.7447 277.024L101.065 276.544V276.4C101.065 275.6 100.649 275.104 99.6247 275.104C98.7127 275.104 98.2327 275.52 98.0087 276.336L96.2007 275.92C96.6167 274.528 97.8487 273.44 99.7047 273.44C101.721 273.44 102.937 274.4 102.937 276.336V279.952C102.937 280.432 103.145 280.576 103.673 280.512V282C102.281 282.16 101.545 281.888 101.257 281.2C100.729 281.792 99.8487 282.144 98.7607 282.144ZM101.065 279.04V278.016L99.2567 278.4C98.4407 278.576 97.8327 278.832 97.8327 279.584C97.8327 280.24 98.3127 280.608 99.0487 280.608C100.073 280.608 101.065 280.064 101.065 279.04ZM109.694 282V270.512H113.534C117.102 270.512 119.31 272.752 119.31 276.256C119.31 279.76 117.102 282 113.534 282H109.694ZM111.694 280.24H113.534C115.902 280.24 117.294 278.672 117.294 276.256C117.294 273.824 115.902 272.272 113.518 272.272H111.694V280.24ZM125.024 282.176C122.624 282.176 120.944 280.4 120.944 277.808C120.944 275.344 122.608 273.44 124.944 273.44C127.376 273.44 128.672 275.28 128.672 277.584V278.224H122.784C122.928 279.664 123.792 280.544 125.024 280.544C125.968 280.544 126.72 280.064 126.976 279.2L128.624 279.824C128.032 281.296 126.704 282.176 125.024 282.176ZM124.928 275.056C123.936 275.056 123.168 275.648 122.88 276.784H126.736C126.72 275.856 126.144 275.056 124.928 275.056ZM132.673 277.072V282H130.753V273.6H132.673V274.496C133.137 273.936 133.857 273.44 134.977 273.44C135.985 273.44 136.737 273.888 137.201 274.608C137.713 274.064 138.513 273.44 139.809 273.44C141.537 273.44 142.657 274.656 142.657 276.464V282H140.737V277.024C140.737 275.984 140.353 275.232 139.329 275.232C138.513 275.232 137.665 275.872 137.665 277.072V282H135.745V277.024C135.745 275.984 135.361 275.232 134.337 275.232C133.521 275.232 132.673 275.872 132.673 277.072ZM152.82 277.808C152.82 280.416 151.14 282.176 148.772 282.176C146.404 282.176 144.724 280.416 144.724 277.808C144.724 275.2 146.404 273.44 148.772 273.44C151.14 273.44 152.82 275.2 152.82 277.808ZM146.66 277.808C146.66 279.52 147.476 280.56 148.772 280.56C150.068 280.56 150.884 279.52 150.884 277.808C150.884 276.096 150.068 275.056 148.772 275.056C147.476 275.056 146.66 276.096 146.66 277.808Z" fill="#232729"/>
<path d="M177 271H169.5M177 271V278.5M177 271L171.583 276.417M167 281L169.083 278.917" stroke="#232729" stroke-width="1.5" stroke-linecap="round" stroke-linejoin="round"/>
</g>
</g>
<defs>
<filter id="filter0_d_2016_297" x="0" y="0" width="400" height="328" filterUnits="userSpaceOnUse" color-interpolation-filters="sRGB">
<feFlood flood-opacity="0" result="BackgroundImageFix"/>
<feColorMatrix in="SourceAlpha" type="matrix" values="0 0 0 0 0 0 0 0 0 0 0 0 0 0 0 0 0 0 127 0" result="hardAlpha"/>
<feOffset dx="-4" dy="-4"/>
<feGaussianBlur stdDeviation="10"/>
<feComposite in2="hardAlpha" operator="out"/>
<feColorMatrix type="matrix" values="0 0 0 0 0 0 0 0 0 0 0 0 0 0 0 0 0 0 0.06 0"/>
<feBlend mode="normal" in2="BackgroundImageFix" result="effect1_dropShadow_2016_297"/>
<feBlend mode="normal" in="SourceGraphic" in2="effect1_dropShadow_2016_297" result="shape"/>
</filter>
<filter id="filter1_d_2016_297" x="37" y="253" width="174" height="48" filterUnits="userSpaceOnUse" color-interpolation-filters="sRGB">
<feFlood flood-opacity="0" result="BackgroundImageFix"/>
<feColorMatrix in="SourceAlpha" type="matrix" values="0 0 0 0 0 0 0 0 0 0 0 0 0 0 0 0 0 0 127 0" result="hardAlpha"/>
<feOffset dx="1" dy="1"/>
<feGaussianBlur stdDeviation="2"/>
<feComposite in2="hardAlpha" operator="out"/>
<feColorMatrix type="matrix" values="0 0 0 0 0 0 0 0 0 0 0 0 0 0 0 0 0 0 0.04 0"/>
<feBlend mode="normal" in2="BackgroundImageFix" result="effect1_dropShadow_2016_297"/>
<feBlend mode="normal" in="SourceGraphic" in2="effect1_dropShadow_2016_297" result="shape"/>
</filter>
</defs>
</svg>
