<svg width="400" height="328" viewBox="0 0 400 328" fill="none" xmlns="http://www.w3.org/2000/svg">
<g filter="url(#filter0_d_2016_725)">
<path d="M24 32C24 27.5817 27.5817 24 32 24H376C380.418 24 384 27.5817 384 32V304C384 308.418 380.418 312 376 312H32C27.5817 312 24 308.418 24 304V32Z" fill="white" shape-rendering="crispEdges"/>
<path d="M41.36 46.64H51.08V48.88H43.88V52.48H49.94V54.72H43.88V58.76H51.08V61H41.36V46.64ZM55.3397 54.84V61H52.9397V50.5H55.3397V51.62C55.9197 50.92 56.8197 50.3 58.2197 50.3C59.4797 50.3 60.4197 50.86 60.9997 51.76C61.6397 51.08 62.6397 50.3 64.2597 50.3C66.4197 50.3 67.8197 51.82 67.8197 54.08V61H65.4197V54.78C65.4197 53.48 64.9397 52.54 63.6597 52.54C62.6397 52.54 61.5797 53.34 61.5797 54.84V61H59.1797V54.78C59.1797 53.48 58.6997 52.54 57.4197 52.54C56.3997 52.54 55.3397 53.34 55.3397 54.84ZM73.0439 61.18C71.0439 61.18 69.5039 59.96 69.5039 58.08C69.5039 56.08 71.0039 55.2 73.0239 54.78L75.9239 54.18V54C75.9239 53 75.4039 52.38 74.1239 52.38C72.9839 52.38 72.3839 52.9 72.1039 53.92L69.8439 53.4C70.3639 51.66 71.9039 50.3 74.2239 50.3C76.7439 50.3 78.2639 51.5 78.2639 53.92V58.44C78.2639 59.04 78.5239 59.22 79.1839 59.14V61C77.4439 61.2 76.5239 60.86 76.1639 60C75.5039 60.74 74.4039 61.18 73.0439 61.18ZM75.9239 57.3V56.02L73.6639 56.5C72.6439 56.72 71.8839 57.04 71.8839 57.98C71.8839 58.8 72.4839 59.26 73.4039 59.26C74.6839 59.26 75.9239 58.58 75.9239 57.3ZM80.8489 49.1V46.64H83.3289V49.1H80.8489ZM83.2889 50.5V61H80.8889V50.5H83.2889ZM88.2108 46.64V61H85.8108V46.64H88.2108ZM105.694 48.88H101.074V61H98.5138V48.88H93.8938V46.64H105.694V48.88ZM109.294 61.22C106.294 61.22 104.194 59 104.194 55.76C104.194 52.68 106.274 50.3 109.194 50.3C112.234 50.3 113.854 52.6 113.854 55.48V56.28H106.494C106.674 58.08 107.754 59.18 109.294 59.18C110.474 59.18 111.414 58.58 111.734 57.5L113.794 58.28C113.054 60.12 111.394 61.22 109.294 61.22ZM109.174 52.32C107.934 52.32 106.974 53.06 106.614 54.48H111.434C111.414 53.32 110.694 52.32 109.174 52.32ZM118.055 54.84V61H115.655V50.5H118.055V51.62C118.635 50.92 119.535 50.3 120.935 50.3C122.195 50.3 123.135 50.86 123.715 51.76C124.355 51.08 125.355 50.3 126.975 50.3C129.135 50.3 130.535 51.82 130.535 54.08V61H128.135V54.78C128.135 53.48 127.655 52.54 126.375 52.54C125.355 52.54 124.295 53.34 124.295 54.84V61H121.895V54.78C121.895 53.48 121.415 52.54 120.135 52.54C119.115 52.54 118.055 53.34 118.055 54.84ZM138.399 61.22C137.039 61.22 136.039 60.68 135.379 59.9V64.6H132.979V50.5H135.379V51.62C136.039 50.84 137.039 50.3 138.399 50.3C141.339 50.3 143.019 52.78 143.019 55.76C143.019 58.74 141.339 61.22 138.399 61.22ZM135.319 55.46V56.08C135.319 58.02 136.439 59.12 137.919 59.12C139.659 59.12 140.599 57.76 140.599 55.76C140.599 53.76 139.659 52.4 137.919 52.4C136.439 52.4 135.319 53.48 135.319 55.46ZM147.273 46.64V61H144.873V46.64H147.273ZM152.575 61.18C150.575 61.18 149.035 59.96 149.035 58.08C149.035 56.08 150.535 55.2 152.555 54.78L155.455 54.18V54C155.455 53 154.935 52.38 153.655 52.38C152.515 52.38 151.915 52.9 151.635 53.92L149.375 53.4C149.895 51.66 151.435 50.3 153.755 50.3C156.275 50.3 157.795 51.5 157.795 53.92V58.44C157.795 59.04 158.055 59.22 158.715 59.14V61C156.975 61.2 156.055 60.86 155.695 60C155.035 60.74 153.935 61.18 152.575 61.18ZM155.455 57.3V56.02L153.195 56.5C152.175 56.72 151.415 57.04 151.415 57.98C151.415 58.8 152.015 59.26 152.935 59.26C154.215 59.26 155.455 58.58 155.455 57.3ZM160.64 58.36V52.54H159.18V50.5H160.64V47.42H163V50.5H165.2V52.54H163V57.98C163 58.92 163.54 59.02 164.4 59.02C164.8 59.02 165.02 59 165.38 58.96V60.98C164.94 61.06 164.34 61.12 163.72 61.12C161.72 61.12 160.64 60.5 160.64 58.36ZM171.52 61.22C168.52 61.22 166.42 59 166.42 55.76C166.42 52.68 168.5 50.3 171.42 50.3C174.46 50.3 176.08 52.6 176.08 55.48V56.28H168.72C168.9 58.08 169.98 59.18 171.52 59.18C172.7 59.18 173.64 58.58 173.96 57.5L176.02 58.28C175.28 60.12 173.62 61.22 171.52 61.22ZM171.4 52.32C170.16 52.32 169.2 53.06 168.84 54.48H173.66C173.64 53.32 172.92 52.32 171.4 52.32ZM176.781 59L178.581 57.56C179.201 58.58 180.401 59.26 181.621 59.26C182.641 59.26 183.581 58.9 183.581 57.96C183.581 57.06 182.701 56.96 181.041 56.62C179.381 56.28 177.481 55.86 177.481 53.62C177.481 51.7 179.161 50.3 181.581 50.3C183.421 50.3 185.061 51.12 185.821 52.28L184.201 53.74C183.601 52.8 182.601 52.26 181.441 52.26C180.461 52.26 179.821 52.7 179.821 53.4C179.821 54.16 180.581 54.3 181.901 54.58C183.681 54.96 185.921 55.34 185.921 57.74C185.921 59.86 183.981 61.22 181.601 61.22C179.661 61.22 177.721 60.44 176.781 59Z" fill="#232729"/>
<path d="M40.948 76.384H46.576V77.392H42.088V80.044H45.892V81.052H42.088V83.992H46.576V85H40.948V76.384ZM51.9007 85L50.1607 82.528L48.4327 85H47.2567L49.5487 81.724L47.4487 78.724H48.6847L50.1967 80.92L51.7327 78.724H52.9207L50.8207 81.724L53.1247 85H51.9007ZM57.1545 85.132C56.2785 85.132 55.5825 84.712 55.2105 84.088V87.16H54.1305V78.724H55.2105V79.636C55.5825 79.024 56.2785 78.604 57.1545 78.604C58.8945 78.604 59.8905 80.08 59.8905 81.868C59.8905 83.644 58.8945 85.132 57.1545 85.132ZM55.1865 81.652V82.096C55.1865 83.536 56.0745 84.184 56.9625 84.184C58.1385 84.184 58.7985 83.212 58.7985 81.868C58.7985 80.512 58.1385 79.552 56.9625 79.552C56.0745 79.552 55.1865 80.188 55.1865 81.652ZM62.3355 76.384V85H61.2555V76.384H62.3355ZM69.5383 81.868C69.5383 83.812 68.3383 85.132 66.6223 85.132C64.9063 85.132 63.7063 83.812 63.7063 81.868C63.7063 79.924 64.9063 78.604 66.6223 78.604C68.3383 78.604 69.5383 79.924 69.5383 81.868ZM64.7983 81.868C64.7983 83.296 65.5183 84.208 66.6223 84.208C67.7263 84.208 68.4463 83.296 68.4463 81.868C68.4463 80.428 67.7263 79.516 66.6223 79.516C65.5183 79.516 64.7983 80.428 64.7983 81.868ZM74.1637 78.7V79.792C73.9837 79.756 73.8397 79.744 73.6357 79.744C72.7237 79.744 71.9917 80.464 71.9917 81.568V85H70.9117V78.724H71.9917V79.792C72.2677 79.156 72.8797 78.676 73.7317 78.676C73.8997 78.676 74.0557 78.688 74.1637 78.7ZM77.6033 85.132C75.8633 85.132 74.6633 83.8 74.6633 81.868C74.6633 79.996 75.8513 78.604 77.5553 78.604C79.3073 78.604 80.2313 79.936 80.2313 81.676V82.036H75.6953C75.7553 83.356 76.5113 84.196 77.6033 84.196C78.4433 84.196 79.0433 83.74 79.2353 82.996L80.1833 83.332C79.7993 84.448 78.8513 85.132 77.6033 85.132ZM77.5433 79.528C76.6313 79.528 75.9473 80.14 75.7553 81.208H79.1393C79.1153 80.32 78.6353 79.528 77.5433 79.528ZM86.843 76.276V77.236C86.663 77.212 86.555 77.212 86.375 77.212C85.739 77.212 85.391 77.488 85.391 78.292V78.724H86.783V79.648H85.391V85H84.311V79.648H83.363V78.724H84.311V78.22C84.311 76.996 84.983 76.252 86.267 76.252C86.483 76.252 86.603 76.264 86.843 76.276ZM91.0387 78.7V79.792C90.8587 79.756 90.7147 79.744 90.5107 79.744C89.5987 79.744 88.8667 80.464 88.8667 81.568V85H87.7867V78.724H88.8667V79.792C89.1427 79.156 89.7547 78.676 90.6067 78.676C90.7747 78.676 90.9307 78.688 91.0387 78.7ZM97.3703 81.868C97.3703 83.812 96.1703 85.132 94.4543 85.132C92.7383 85.132 91.5383 83.812 91.5383 81.868C91.5383 79.924 92.7383 78.604 94.4543 78.604C96.1703 78.604 97.3703 79.924 97.3703 81.868ZM92.6303 81.868C92.6303 83.296 93.3503 84.208 94.4543 84.208C95.5583 84.208 96.2783 83.296 96.2783 81.868C96.2783 80.428 95.5583 79.516 94.4543 79.516C93.3503 79.516 92.6303 80.428 92.6303 81.868ZM99.8238 81.244V85H98.7438V78.724H99.8238V79.576C100.16 79.06 100.76 78.604 101.636 78.604C102.476 78.604 103.064 79.024 103.376 79.672C103.724 79.156 104.396 78.604 105.38 78.604C106.676 78.604 107.456 79.528 107.456 80.86V85H106.376V81.148C106.376 80.272 106.016 79.612 105.128 79.612C104.408 79.612 103.64 80.224 103.64 81.244V85H102.56V81.148C102.56 80.272 102.2 79.612 101.312 79.612C100.592 79.612 99.8238 80.224 99.8238 81.244ZM114.752 85.132C113.876 85.132 113.18 84.712 112.808 84.088V87.16H111.728V78.724H112.808V79.636C113.18 79.024 113.876 78.604 114.752 78.604C116.492 78.604 117.488 80.08 117.488 81.868C117.488 83.644 116.492 85.132 114.752 85.132ZM112.784 81.652V82.096C112.784 83.536 113.672 84.184 114.56 84.184C115.736 84.184 116.396 83.212 116.396 81.868C116.396 80.512 115.736 79.552 114.56 79.552C113.672 79.552 112.784 80.188 112.784 81.652ZM122.105 78.7V79.792C121.925 79.756 121.781 79.744 121.577 79.744C120.665 79.744 119.933 80.464 119.933 81.568V85H118.853V78.724H119.933V79.792C120.209 79.156 120.821 78.676 121.673 78.676C121.841 78.676 121.997 78.688 122.105 78.7ZM125.545 85.132C123.805 85.132 122.605 83.8 122.605 81.868C122.605 79.996 123.793 78.604 125.497 78.604C127.249 78.604 128.173 79.936 128.173 81.676V82.036H123.637C123.697 83.356 124.453 84.196 125.545 84.196C126.385 84.196 126.985 83.74 127.177 82.996L128.125 83.332C127.741 84.448 126.793 85.132 125.545 85.132ZM125.485 79.528C124.573 79.528 123.889 80.14 123.697 81.208H127.081C127.057 80.32 126.577 79.528 125.485 79.528ZM129.382 81.988V81.016H132.658V81.988H129.382ZM135.25 81.244V85H134.17V78.724H135.25V79.576C135.586 79.06 136.186 78.604 137.062 78.604C137.902 78.604 138.49 79.024 138.802 79.672C139.15 79.156 139.822 78.604 140.806 78.604C142.102 78.604 142.882 79.528 142.882 80.86V85H141.802V81.148C141.802 80.272 141.442 79.612 140.554 79.612C139.834 79.612 139.066 80.224 139.066 81.244V85H137.986V81.148C137.986 80.272 137.626 79.612 136.738 79.612C136.018 79.612 135.25 80.224 135.25 81.244ZM146.195 85.108C145.055 85.108 144.131 84.436 144.131 83.308C144.131 82.06 145.103 81.544 146.507 81.256L148.031 80.944V80.68C148.031 79.96 147.635 79.552 146.795 79.552C146.003 79.552 145.535 79.924 145.343 80.62L144.323 80.356C144.623 79.336 145.547 78.604 146.831 78.604C148.235 78.604 149.099 79.288 149.099 80.632V83.692C149.099 84.1 149.351 84.232 149.771 84.136V85C148.811 85.12 148.259 84.892 148.127 84.292C147.743 84.784 147.047 85.108 146.195 85.108ZM148.031 82.864V81.784L146.807 82.048C145.847 82.24 145.199 82.504 145.199 83.26C145.199 83.872 145.643 84.232 146.327 84.232C147.251 84.232 148.031 83.668 148.031 82.864ZM153.243 85.132C151.503 85.132 150.507 83.644 150.507 81.868C150.507 80.08 151.503 78.604 153.243 78.604C154.119 78.604 154.815 79.024 155.187 79.636V76.384H156.267V85H155.187V84.088C154.815 84.712 154.119 85.132 153.243 85.132ZM155.211 81.652C155.211 80.188 154.323 79.552 153.435 79.552C152.259 79.552 151.599 80.512 151.599 81.868C151.599 83.212 152.259 84.184 153.435 84.184C154.323 84.184 155.211 83.536 155.211 82.096V81.652ZM160.56 85.132C158.82 85.132 157.62 83.8 157.62 81.868C157.62 79.996 158.808 78.604 160.512 78.604C162.264 78.604 163.188 79.936 163.188 81.676V82.036H158.652C158.712 83.356 159.468 84.196 160.56 84.196C161.4 84.196 162 83.74 162.192 82.996L163.14 83.332C162.756 84.448 161.808 85.132 160.56 85.132ZM160.5 79.528C159.588 79.528 158.904 80.14 158.712 81.208H162.096C162.072 80.32 161.592 79.528 160.5 79.528ZM169.572 85.132C167.832 85.132 166.632 83.8 166.632 81.868C166.632 79.996 167.82 78.604 169.524 78.604C171.276 78.604 172.2 79.936 172.2 81.676V82.036H167.664C167.724 83.356 168.48 84.196 169.572 84.196C170.412 84.196 171.012 83.74 171.204 82.996L172.152 83.332C171.768 84.448 170.82 85.132 169.572 85.132ZM169.512 79.528C168.6 79.528 167.916 80.14 167.724 81.208H171.108C171.084 80.32 170.604 79.528 169.512 79.528ZM174.625 81.244V85H173.545V78.724H174.625V79.576C174.961 79.06 175.561 78.604 176.437 78.604C177.277 78.604 177.865 79.024 178.177 79.672C178.525 79.156 179.197 78.604 180.181 78.604C181.477 78.604 182.257 79.528 182.257 80.86V85H181.177V81.148C181.177 80.272 180.817 79.612 179.929 79.612C179.209 79.612 178.441 80.224 178.441 81.244V85H177.361V81.148C177.361 80.272 177.001 79.612 176.113 79.612C175.393 79.612 174.625 80.224 174.625 81.244ZM185.57 85.108C184.43 85.108 183.506 84.436 183.506 83.308C183.506 82.06 184.478 81.544 185.882 81.256L187.406 80.944V80.68C187.406 79.96 187.01 79.552 186.17 79.552C185.378 79.552 184.91 79.924 184.718 80.62L183.698 80.356C183.998 79.336 184.922 78.604 186.206 78.604C187.61 78.604 188.474 79.288 188.474 80.632V83.692C188.474 84.1 188.726 84.232 189.146 84.136V85C188.186 85.12 187.634 84.892 187.502 84.292C187.118 84.784 186.422 85.108 185.57 85.108ZM187.406 82.864V81.784L186.182 82.048C185.222 82.24 184.574 82.504 184.574 83.26C184.574 83.872 185.018 84.232 185.702 84.232C186.626 84.232 187.406 83.668 187.406 82.864ZM190.266 77.632V76.384H191.442V77.632H190.266ZM191.394 78.724V85H190.314V78.724H191.394ZM194.277 76.384V85H193.197V76.384H194.277ZM199.691 81.244V85H198.611V78.724H199.691V79.576C200.027 79.06 200.627 78.604 201.503 78.604C202.343 78.604 202.931 79.024 203.243 79.672C203.591 79.156 204.263 78.604 205.247 78.604C206.543 78.604 207.323 79.528 207.323 80.86V85H206.243V81.148C206.243 80.272 205.883 79.612 204.995 79.612C204.275 79.612 203.507 80.224 203.507 81.244V85H202.427V81.148C202.427 80.272 202.067 79.612 201.179 79.612C200.459 79.612 199.691 80.224 199.691 81.244ZM210.636 85.108C209.496 85.108 208.572 84.436 208.572 83.308C208.572 82.06 209.544 81.544 210.948 81.256L212.472 80.944V80.68C212.472 79.96 212.076 79.552 211.236 79.552C210.444 79.552 209.976 79.924 209.784 80.62L208.764 80.356C209.064 79.336 209.988 78.604 211.272 78.604C212.676 78.604 213.54 79.288 213.54 80.632V83.692C213.54 84.1 213.792 84.232 214.212 84.136V85C213.252 85.12 212.7 84.892 212.568 84.292C212.184 84.784 211.488 85.108 210.636 85.108ZM212.472 82.864V81.784L211.248 82.048C210.288 82.24 209.64 82.504 209.64 83.26C209.64 83.872 210.084 84.232 210.768 84.232C211.692 84.232 212.472 83.668 212.472 82.864ZM218.632 78.7V79.792C218.452 79.756 218.308 79.744 218.104 79.744C217.192 79.744 216.46 80.464 216.46 81.568V85H215.38V78.724H216.46V79.792C216.736 79.156 217.348 78.676 218.2 78.676C218.368 78.676 218.524 78.688 218.632 78.7ZM220.902 76.384V81.652L223.686 78.724H225.03L222.582 81.196L225.234 85H223.974L221.814 81.976L220.902 82.9V85H219.822V76.384H220.902ZM228.482 85.132C226.742 85.132 225.542 83.8 225.542 81.868C225.542 79.996 226.73 78.604 228.434 78.604C230.186 78.604 231.11 79.936 231.11 81.676V82.036H226.574C226.634 83.356 227.39 84.196 228.482 84.196C229.322 84.196 229.922 83.74 230.114 82.996L231.062 83.332C230.678 84.448 229.73 85.132 228.482 85.132ZM228.422 79.528C227.51 79.528 226.826 80.14 226.634 81.208H230.018C229.994 80.32 229.514 79.528 228.422 79.528ZM232.623 83.5V79.648H231.651V78.724H232.623V76.888H233.691V78.724H235.119V79.648H233.691V83.332C233.691 83.992 234.015 84.112 234.567 84.112C234.819 84.112 234.999 84.1 235.251 84.04V84.964C234.975 85.024 234.663 85.06 234.303 85.06C233.235 85.06 232.623 84.7 232.623 83.5ZM236.485 77.632V76.384H237.661V77.632H236.485ZM237.613 78.724V85H236.533V78.724H237.613ZM239.416 85V78.724H240.496V79.576C240.856 79.06 241.48 78.604 242.368 78.604C243.7 78.604 244.456 79.528 244.456 80.86V85H243.376V81.148C243.376 80.272 243.004 79.612 242.068 79.612C241.288 79.612 240.496 80.212 240.496 81.256V85H239.416ZM251.505 84.436C251.505 86.272 250.293 87.292 248.589 87.292C247.209 87.292 246.201 86.656 245.853 85.504L246.861 85.12C247.065 85.924 247.713 86.392 248.589 86.392C249.693 86.392 250.425 85.828 250.425 84.52V83.812C250.089 84.424 249.381 84.856 248.505 84.856C246.789 84.856 245.781 83.44 245.781 81.724C245.781 80.02 246.789 78.604 248.505 78.604C249.369 78.604 250.089 79.036 250.425 79.648V78.724H251.505V84.436ZM250.437 81.628C250.437 80.224 249.597 79.552 248.697 79.552C247.557 79.552 246.861 80.404 246.861 81.724C246.861 83.044 247.557 83.908 248.697 83.908C249.597 83.908 250.437 83.236 250.437 81.856V81.628ZM256.002 83.5V79.648H255.03V78.724H256.002V76.888H257.07V78.724H258.498V79.648H257.07V83.332C257.07 83.992 257.394 84.112 257.946 84.112C258.198 84.112 258.378 84.1 258.63 84.04V84.964C258.354 85.024 258.042 85.06 257.682 85.06C256.614 85.06 256.002 84.7 256.002 83.5ZM262.385 85.132C260.645 85.132 259.445 83.8 259.445 81.868C259.445 79.996 260.633 78.604 262.337 78.604C264.089 78.604 265.013 79.936 265.013 81.676V82.036H260.477C260.537 83.356 261.293 84.196 262.385 84.196C263.225 84.196 263.825 83.74 264.017 82.996L264.965 83.332C264.581 84.448 263.633 85.132 262.385 85.132ZM262.325 79.528C261.413 79.528 260.729 80.14 260.537 81.208H263.921C263.897 80.32 263.417 79.528 262.325 79.528ZM267.437 81.244V85H266.357V78.724H267.437V79.576C267.773 79.06 268.373 78.604 269.249 78.604C270.089 78.604 270.677 79.024 270.989 79.672C271.337 79.156 272.009 78.604 272.993 78.604C274.289 78.604 275.069 79.528 275.069 80.86V85H273.989V81.148C273.989 80.272 273.629 79.612 272.741 79.612C272.021 79.612 271.253 80.224 271.253 81.244V85H270.173V81.148C270.173 80.272 269.813 79.612 268.925 79.612C268.205 79.612 267.437 80.224 267.437 81.244ZM279.834 85.132C278.958 85.132 278.262 84.712 277.89 84.088V87.16H276.81V78.724H277.89V79.636C278.262 79.024 278.958 78.604 279.834 78.604C281.574 78.604 282.57 80.08 282.57 81.868C282.57 83.644 281.574 85.132 279.834 85.132ZM277.866 81.652V82.096C277.866 83.536 278.754 84.184 279.642 84.184C280.818 84.184 281.478 83.212 281.478 81.868C281.478 80.512 280.818 79.552 279.642 79.552C278.754 79.552 277.866 80.188 277.866 81.652ZM285.015 76.384V85H283.935V76.384H285.015ZM288.39 85.108C287.25 85.108 286.326 84.436 286.326 83.308C286.326 82.06 287.298 81.544 288.702 81.256L290.226 80.944V80.68C290.226 79.96 289.83 79.552 288.99 79.552C288.198 79.552 287.73 79.924 287.538 80.62L286.518 80.356C286.818 79.336 287.742 78.604 289.026 78.604C290.43 78.604 291.294 79.288 291.294 80.632V83.692C291.294 84.1 291.546 84.232 291.966 84.136V85C291.006 85.12 290.454 84.892 290.322 84.292C289.938 84.784 289.242 85.108 288.39 85.108ZM290.226 82.864V81.784L289.002 82.048C288.042 82.24 287.394 82.504 287.394 83.26C287.394 83.872 287.838 84.232 288.522 84.232C289.446 84.232 290.226 83.668 290.226 82.864ZM293.302 83.5V79.648H292.33V78.724H293.302V76.888H294.37V78.724H295.798V79.648H294.37V83.332C294.37 83.992 294.694 84.112 295.246 84.112C295.498 84.112 295.678 84.1 295.93 84.04V84.964C295.654 85.024 295.342 85.06 294.982 85.06C293.914 85.06 293.302 84.7 293.302 83.5ZM299.685 85.132C297.945 85.132 296.745 83.8 296.745 81.868C296.745 79.996 297.933 78.604 299.637 78.604C301.389 78.604 302.313 79.936 302.313 81.676V82.036H297.777C297.837 83.356 298.593 84.196 299.685 84.196C300.525 84.196 301.125 83.74 301.317 82.996L302.265 83.332C301.881 84.448 300.933 85.132 299.685 85.132ZM299.625 79.528C298.713 79.528 298.029 80.14 297.837 81.208H301.221C301.197 80.32 300.717 79.528 299.625 79.528ZM302.962 83.668L303.802 83.056C304.138 83.788 304.906 84.232 305.722 84.232C306.454 84.232 307.102 83.92 307.102 83.236C307.102 82.552 306.502 82.456 305.47 82.24C304.438 82.012 303.358 81.784 303.358 80.5C303.358 79.384 304.33 78.604 305.662 78.604C306.79 78.604 307.714 79.156 308.086 79.9L307.318 80.512C306.994 79.888 306.406 79.492 305.614 79.492C304.894 79.492 304.414 79.852 304.414 80.416C304.414 81.004 304.966 81.112 305.842 81.304C306.922 81.556 308.158 81.772 308.158 83.14C308.158 84.34 307.066 85.132 305.722 85.132C304.582 85.132 303.442 84.64 302.962 83.668ZM309.125 85V83.584H310.493V85H309.125Z" fill="#586166"/>
<rect x="40" y="109" width="328" height="127" rx="8" fill="#F7F9FA"/>
<path d="M63.636 203.276V204.236C63.456 204.212 63.348 204.212 63.168 204.212C62.532 204.212 62.184 204.488 62.184 205.292V205.724H63.576V206.648H62.184V212H61.104V206.648H60.156V205.724H61.104V205.22C61.104 203.996 61.776 203.252 63.06 203.252C63.276 203.252 63.396 203.264 63.636 203.276ZM67.8317 205.7V206.792C67.6517 206.756 67.5077 206.744 67.3037 206.744C66.3917 206.744 65.6597 207.464 65.6597 208.568V212H64.5797V205.724H65.6597V206.792C65.9357 206.156 66.5477 205.676 67.3997 205.676C67.5677 205.676 67.7237 205.688 67.8317 205.7ZM74.1633 208.868C74.1633 210.812 72.9633 212.132 71.2473 212.132C69.5313 212.132 68.3313 210.812 68.3313 208.868C68.3313 206.924 69.5313 205.604 71.2473 205.604C72.9633 205.604 74.1633 206.924 74.1633 208.868ZM69.4233 208.868C69.4233 210.296 70.1433 211.208 71.2473 211.208C72.3513 211.208 73.0713 210.296 73.0713 208.868C73.0713 207.428 72.3513 206.516 71.2473 206.516C70.1433 206.516 69.4233 207.428 69.4233 208.868ZM76.6167 208.244V212H75.5367V205.724H76.6167V206.576C76.9527 206.06 77.5527 205.604 78.4287 205.604C79.2687 205.604 79.8567 206.024 80.1687 206.672C80.5167 206.156 81.1887 205.604 82.1727 205.604C83.4687 205.604 84.2487 206.528 84.2487 207.86V212H83.1687V208.148C83.1687 207.272 82.8087 206.612 81.9207 206.612C81.2007 206.612 80.4327 207.224 80.4327 208.244V212H79.3527V208.148C79.3527 207.272 78.9927 206.612 78.1047 206.612C77.3847 206.612 76.6167 207.224 76.6167 208.244ZM93.0331 212H91.9651V209.756H87.8011V208.856L91.5811 203.384H93.0451V208.796H94.7131V209.756H93.0331V212ZM88.9771 208.796H91.9531V204.488L88.9771 208.796ZM95.249 207.692C95.249 205.064 96.485 203.252 98.537 203.252C100.577 203.252 101.813 205.064 101.813 207.692C101.813 210.32 100.577 212.132 98.537 212.132C96.485 212.132 95.249 210.32 95.249 207.692ZM96.401 207.692C96.401 209.708 97.133 211.124 98.537 211.124C99.929 211.124 100.673 209.708 100.673 207.692C100.673 205.676 99.929 204.26 98.537 204.26C97.133 204.26 96.401 205.676 96.401 207.692ZM105.281 208.712C105.281 208.056 105.341 207.416 105.461 206.792C105.589 206.168 105.785 205.572 106.049 205.004C106.313 204.436 106.645 203.912 107.045 203.432H108.041C107.673 203.928 107.361 204.464 107.105 205.04C106.857 205.616 106.669 206.212 106.541 206.828C106.413 207.444 106.349 208.068 106.349 208.7C106.349 209.316 106.413 209.928 106.541 210.536C106.669 211.144 106.857 211.728 107.105 212.288C107.353 212.856 107.661 213.392 108.029 213.896H107.045C106.645 213.424 106.313 212.908 106.049 212.348C105.785 211.796 105.589 211.212 105.461 210.596C105.341 209.98 105.281 209.352 105.281 208.712ZM111.89 212.132C110.246 212.132 108.938 211.232 108.662 209.516L109.778 209.276C109.946 210.476 110.798 211.172 111.878 211.172C112.97 211.172 113.726 210.548 113.726 209.528C113.726 208.508 112.898 208.004 111.806 208.004H110.882V207.032H111.818C112.814 207.032 113.486 206.528 113.486 205.664C113.486 204.776 112.874 204.224 111.89 204.224C110.858 204.224 110.138 204.908 109.946 205.988L108.914 205.784C109.142 204.344 110.258 203.252 111.914 203.252C113.594 203.252 114.566 204.236 114.566 205.604C114.566 206.54 113.966 207.26 113.234 207.5C114.098 207.74 114.842 208.4 114.842 209.588C114.842 211.004 113.678 212.132 111.89 212.132ZM115.628 207.692C115.628 205.064 116.864 203.252 118.916 203.252C120.956 203.252 122.192 205.064 122.192 207.692C122.192 210.32 120.956 212.132 118.916 212.132C116.864 212.132 115.628 210.32 115.628 207.692ZM116.78 207.692C116.78 209.708 117.512 211.124 118.916 211.124C120.308 211.124 121.052 209.708 121.052 207.692C121.052 205.676 120.308 204.26 118.916 204.26C117.512 204.26 116.78 205.676 116.78 207.692ZM128.384 212.132C126.644 212.132 125.648 210.644 125.648 208.868C125.648 207.08 126.644 205.604 128.384 205.604C129.26 205.604 129.956 206.024 130.328 206.636V203.384H131.408V212H130.328V211.088C129.956 211.712 129.26 212.132 128.384 212.132ZM130.352 208.652C130.352 207.188 129.464 206.552 128.576 206.552C127.4 206.552 126.74 207.512 126.74 208.868C126.74 210.212 127.4 211.184 128.576 211.184C129.464 211.184 130.352 210.536 130.352 209.096V208.652ZM134.765 212.108C133.625 212.108 132.701 211.436 132.701 210.308C132.701 209.06 133.673 208.544 135.077 208.256L136.601 207.944V207.68C136.601 206.96 136.205 206.552 135.365 206.552C134.573 206.552 134.105 206.924 133.913 207.62L132.893 207.356C133.193 206.336 134.117 205.604 135.401 205.604C136.805 205.604 137.669 206.288 137.669 207.632V210.692C137.669 211.1 137.921 211.232 138.341 211.136V212C137.381 212.12 136.829 211.892 136.697 211.292C136.313 211.784 135.617 212.108 134.765 212.108ZM136.601 209.864V208.784L135.377 209.048C134.417 209.24 133.769 209.504 133.769 210.26C133.769 210.872 134.213 211.232 134.897 211.232C135.821 211.232 136.601 210.668 136.601 209.864ZM141.767 212.684C141.407 213.632 140.915 214.232 139.823 214.232C139.559 214.232 139.427 214.22 139.235 214.184V213.248C139.439 213.296 139.571 213.308 139.751 213.308C140.219 213.308 140.471 213.14 140.723 212.516L141.023 211.772L138.695 205.724H139.835L141.599 210.524L143.339 205.724H144.467L141.767 212.684ZM144.673 210.668L145.513 210.056C145.849 210.788 146.617 211.232 147.433 211.232C148.165 211.232 148.813 210.92 148.813 210.236C148.813 209.552 148.213 209.456 147.181 209.24C146.149 209.012 145.069 208.784 145.069 207.5C145.069 206.384 146.041 205.604 147.373 205.604C148.501 205.604 149.425 206.156 149.797 206.9L149.029 207.512C148.705 206.888 148.117 206.492 147.325 206.492C146.605 206.492 146.125 206.852 146.125 207.416C146.125 208.004 146.677 208.112 147.553 208.304C148.633 208.556 149.869 208.772 149.869 210.14C149.869 211.34 148.777 212.132 147.433 212.132C146.293 212.132 145.153 211.64 144.673 210.668ZM153.425 208.712C153.425 209.352 153.361 209.98 153.233 210.596C153.113 211.212 152.921 211.796 152.657 212.348C152.401 212.908 152.069 213.424 151.661 213.896H150.677C151.045 213.392 151.353 212.856 151.601 212.288C151.849 211.728 152.037 211.144 152.165 210.536C152.293 209.928 152.357 209.316 152.357 208.7C152.357 208.068 152.293 207.444 152.165 206.828C152.037 206.212 151.849 205.616 151.601 205.04C151.353 204.464 151.041 203.928 150.665 203.432H151.661C152.069 203.912 152.401 204.436 152.657 205.004C152.921 205.572 153.113 206.168 153.233 206.792C153.361 207.416 153.425 208.056 153.425 208.712Z" fill="#586166"/>
<rect x="130" y="164" width="48" height="20" rx="10" fill="#DEFEE4"/>
<path d="M138.64 169.836H139.504V178.5H138.352V172.164H136.276V171.312L137.2 171.252C138.22 171.18 138.556 170.832 138.64 169.836ZM140.968 174.192C140.968 171.564 142.204 169.752 144.256 169.752C146.296 169.752 147.532 171.564 147.532 174.192C147.532 176.82 146.296 178.632 144.256 178.632C142.204 178.632 140.968 176.82 140.968 174.192ZM142.12 174.192C142.12 176.208 142.852 177.624 144.256 177.624C145.648 177.624 146.392 176.208 146.392 174.192C146.392 172.176 145.648 170.76 144.256 170.76C142.852 170.76 142.12 172.176 142.12 174.192ZM148.444 174.192C148.444 171.564 149.68 169.752 151.732 169.752C153.772 169.752 155.008 171.564 155.008 174.192C155.008 176.82 153.772 178.632 151.732 178.632C149.68 178.632 148.444 176.82 148.444 174.192ZM149.596 174.192C149.596 176.208 150.328 177.624 151.732 177.624C153.124 177.624 153.868 176.208 153.868 174.192C153.868 172.176 153.124 170.76 151.732 170.76C150.328 170.76 149.596 172.176 149.596 174.192Z" fill="#07AF26"/>
<path d="M171.48 172.5C171.482 172.501 171.484 172.502 171.486 172.505C171.493 172.512 171.5 172.526 171.5 172.544V174.355C171.5 174.374 171.493 174.388 171.486 174.395C171.484 174.397 171.482 174.398 171.48 174.398L171.479 174.399L171.479 174.398C171.478 174.398 171.475 174.398 171.472 174.395C171.465 174.388 171.458 174.374 171.458 174.355V172.612L170.598 173.51L169.199 174.969C169.063 175.11 168.884 175.186 168.701 175.186C168.519 175.186 168.339 175.11 168.203 174.969L167.102 173.819C167.071 173.787 167.037 173.758 167 173.732L166.883 173.667L166.753 173.626C166.709 173.617 166.663 173.611 166.617 173.611C166.571 173.611 166.526 173.617 166.481 173.626L166.353 173.667C166.269 173.703 166.194 173.755 166.133 173.819L164.541 175.481L164.535 175.487L164.529 175.494C164.526 175.498 164.524 175.499 164.522 175.5H164.521L164.514 175.495C164.511 175.492 164.507 175.487 164.504 175.479C164.501 175.472 164.5 175.464 164.5 175.455C164.5 175.446 164.502 175.438 164.505 175.432C164.508 175.425 164.512 175.42 164.515 175.417L164.521 175.411L164.526 175.404L166.118 173.742L166.119 173.743C166.255 173.601 166.435 173.525 166.617 173.525C166.8 173.525 166.979 173.601 167.115 173.743V173.742L168.217 174.892C168.278 174.956 168.352 175.009 168.436 175.045C168.519 175.081 168.61 175.1 168.701 175.1C168.793 175.1 168.883 175.081 168.966 175.045C169.049 175.009 169.124 174.956 169.186 174.892L169.185 174.891L170.583 173.434L171.394 172.587H169.742C169.741 172.587 169.739 172.585 169.735 172.582C169.729 172.575 169.722 172.562 169.722 172.544C169.722 172.526 169.729 172.512 169.735 172.505C169.738 172.502 169.741 172.5 169.742 172.5H171.48Z" fill="#07AF26" stroke="#07AF26"/>
<path d="M63.948 133.948H65.978L69.786 144H67.98L67.112 141.704H62.772L61.918 144H60.14L63.948 133.948ZM64.928 135.936L63.36 140.136H66.524L64.928 135.936ZM71.6703 140.332C71.6703 141.83 72.4543 142.698 73.6023 142.698C74.4983 142.698 75.0443 142.11 75.2543 141.298L76.6963 142.026C76.3183 143.216 75.1983 144.154 73.6023 144.154C71.5023 144.154 69.9903 142.6 69.9903 140.332C69.9903 138.064 71.5023 136.51 73.6023 136.51C75.1843 136.51 76.2763 137.406 76.6683 138.582L75.2543 139.352C75.0443 138.554 74.4983 137.952 73.6023 137.952C72.4543 137.952 71.6703 138.834 71.6703 140.332ZM77.8661 142.152V138.078H76.8441V136.65H77.8661V134.494H79.5181V136.65H81.0581V138.078H79.5181V141.886C79.5181 142.544 79.8961 142.614 80.4981 142.614C80.7781 142.614 80.9321 142.6 81.1841 142.572V143.986C80.8761 144.042 80.4561 144.084 80.0221 144.084C78.6221 144.084 77.8661 143.65 77.8661 142.152ZM82.4145 135.67V133.948H84.1505V135.67H82.4145ZM84.1225 136.65V144H82.4425V136.65H84.1225ZM89.4159 144H87.7219L85.0339 136.65H86.7979L88.5899 141.984L90.3679 136.65H92.1039L89.4159 144ZM95.9412 144.154C93.8412 144.154 92.3712 142.6 92.3712 140.332C92.3712 138.176 93.8272 136.51 95.8712 136.51C97.9992 136.51 99.1332 138.12 99.1332 140.136V140.696H93.9812C94.1072 141.956 94.8632 142.726 95.9412 142.726C96.7672 142.726 97.4252 142.306 97.6492 141.55L99.0912 142.096C98.5732 143.384 97.4112 144.154 95.9412 144.154ZM95.8572 137.924C94.9892 137.924 94.3172 138.442 94.0652 139.436H97.4392C97.4252 138.624 96.9212 137.924 95.8572 137.924ZM102.326 142.04L103.698 140.906C104.398 141.998 105.448 142.628 106.596 142.628C107.73 142.628 108.584 142.11 108.584 141.144C108.584 140.122 107.534 139.982 106.036 139.618C104.524 139.254 102.9 138.806 102.9 136.846C102.9 134.984 104.496 133.794 106.526 133.794C108.248 133.794 109.592 134.606 110.264 135.656L108.948 136.79C108.388 135.922 107.646 135.32 106.47 135.32C105.392 135.32 104.65 135.866 104.65 136.664C104.65 137.546 105.42 137.728 106.778 138.036C108.402 138.4 110.348 138.778 110.348 140.962C110.348 142.936 108.612 144.154 106.54 144.154C104.818 144.154 103.11 143.328 102.326 142.04ZM117.654 136.65V144H115.974V143.216C115.554 143.706 114.924 144.154 113.972 144.154C112.432 144.154 111.48 143.104 111.48 141.522V136.65H113.16V141.158C113.16 142.054 113.552 142.628 114.462 142.628C115.218 142.628 115.974 142.068 115.974 141.018V136.65H117.654ZM123.219 144.154C122.267 144.154 121.567 143.776 121.105 143.23V144H119.425V133.948H121.105V137.434C121.567 136.888 122.267 136.51 123.219 136.51C125.277 136.51 126.453 138.246 126.453 140.332C126.453 142.418 125.277 144.154 123.219 144.154ZM121.063 140.122V140.556C121.063 141.914 121.847 142.684 122.883 142.684C124.101 142.684 124.759 141.732 124.759 140.332C124.759 138.932 124.101 137.98 122.883 137.98C121.847 137.98 121.063 138.736 121.063 140.122ZM126.981 142.6L128.241 141.592C128.675 142.306 129.515 142.782 130.369 142.782C131.083 142.782 131.741 142.53 131.741 141.872C131.741 141.242 131.125 141.172 129.963 140.934C128.801 140.696 127.471 140.402 127.471 138.834C127.471 137.49 128.647 136.51 130.341 136.51C131.629 136.51 132.777 137.084 133.309 137.896L132.175 138.918C131.755 138.26 131.055 137.882 130.243 137.882C129.557 137.882 129.109 138.19 129.109 138.68C129.109 139.212 129.641 139.31 130.565 139.506C131.811 139.772 133.379 140.038 133.379 141.718C133.379 143.202 132.021 144.154 130.355 144.154C128.997 144.154 127.639 143.608 126.981 142.6ZM135.887 140.332C135.887 141.83 136.671 142.698 137.819 142.698C138.715 142.698 139.261 142.11 139.471 141.298L140.913 142.026C140.535 143.216 139.415 144.154 137.819 144.154C135.719 144.154 134.207 142.6 134.207 140.332C134.207 138.064 135.719 136.51 137.819 136.51C139.401 136.51 140.493 137.406 140.885 138.582L139.471 139.352C139.261 138.554 138.715 137.952 137.819 137.952C136.671 137.952 135.887 138.834 135.887 140.332ZM146.101 136.636V138.316C145.891 138.288 145.723 138.274 145.485 138.274C144.421 138.274 143.609 138.96 143.609 140.136V144H141.929V136.65H143.609V137.742C143.931 137.056 144.687 136.608 145.625 136.608C145.821 136.608 145.975 136.622 146.101 136.636ZM147.233 135.67V133.948H148.969V135.67H147.233ZM148.941 136.65V144H147.261V136.65H148.941ZM154.5 144.154C153.548 144.154 152.848 143.776 152.386 143.23V144H150.706V133.948H152.386V137.434C152.848 136.888 153.548 136.51 154.5 136.51C156.558 136.51 157.734 138.246 157.734 140.332C157.734 142.418 156.558 144.154 154.5 144.154ZM152.344 140.122V140.556C152.344 141.914 153.128 142.684 154.164 142.684C155.382 142.684 156.04 141.732 156.04 140.332C156.04 138.932 155.382 137.98 154.164 137.98C153.128 137.98 152.344 138.736 152.344 140.122ZM162.14 144.154C160.04 144.154 158.57 142.6 158.57 140.332C158.57 138.176 160.026 136.51 162.07 136.51C164.198 136.51 165.332 138.12 165.332 140.136V140.696H160.18C160.306 141.956 161.062 142.726 162.14 142.726C162.966 142.726 163.624 142.306 163.848 141.55L165.29 142.096C164.772 143.384 163.61 144.154 162.14 144.154ZM162.056 137.924C161.188 137.924 160.516 138.442 160.264 139.436H163.638C163.624 138.624 163.12 137.924 162.056 137.924ZM170.765 136.636V138.316C170.555 138.288 170.387 138.274 170.149 138.274C169.085 138.274 168.273 138.96 168.273 140.136V144H166.593V136.65H168.273V137.742C168.595 137.056 169.351 136.608 170.289 136.608C170.485 136.608 170.639 136.622 170.765 136.636ZM171.018 142.6L172.278 141.592C172.712 142.306 173.552 142.782 174.406 142.782C175.12 142.782 175.778 142.53 175.778 141.872C175.778 141.242 175.162 141.172 174 140.934C172.838 140.696 171.508 140.402 171.508 138.834C171.508 137.49 172.684 136.51 174.378 136.51C175.666 136.51 176.814 137.084 177.346 137.896L176.212 138.918C175.792 138.26 175.092 137.882 174.28 137.882C173.594 137.882 173.146 138.19 173.146 138.68C173.146 139.212 173.678 139.31 174.602 139.506C175.848 139.772 177.416 140.038 177.416 141.718C177.416 143.202 176.058 144.154 174.392 144.154C173.034 144.154 171.676 143.608 171.018 142.6Z" fill="#232729"/>
<path d="M73.728 169.44L70.92 170.664C70.512 169.368 69.528 168.384 67.872 168.384C65.544 168.384 64.032 170.664 64.032 173.424C64.8 172.416 66.192 171.576 68.04 171.576C71.328 171.576 73.68 174.048 73.68 177.24C73.68 180.696 71.088 183.264 67.416 183.264C62.976 183.264 60.744 179.424 60.744 174.648C60.744 169.32 63.552 165.504 67.992 165.504C71.112 165.504 72.912 167.088 73.728 169.44ZM70.488 177.408C70.488 175.68 69.168 174.36 67.44 174.36C65.712 174.36 64.344 175.68 64.344 177.408C64.344 179.16 65.688 180.456 67.416 180.456C69.144 180.456 70.488 179.16 70.488 177.408ZM75.1112 174.384C75.1112 169.128 77.6312 165.504 82.0472 165.504C86.4392 165.504 88.9592 169.128 88.9592 174.384C88.9592 179.64 86.4392 183.264 82.0472 183.264C77.6312 183.264 75.1112 179.64 75.1112 174.384ZM78.6632 174.384C78.6632 177.816 79.6712 180.24 82.0472 180.24C84.3992 180.24 85.4072 177.816 85.4072 174.384C85.4072 170.952 84.3992 168.528 82.0472 168.528C79.6712 168.528 78.6632 170.952 78.6632 174.384ZM96.6581 183.264C93.1541 183.264 90.4421 181.416 89.9381 177.96L93.3701 177.36C93.6341 179.256 94.9541 180.336 96.6101 180.336C98.2661 180.336 99.4661 179.472 99.4661 177.864C99.4661 176.28 98.1941 175.608 96.3941 175.608H94.7381V172.704H96.3461C98.0261 172.704 99.0581 172.032 99.0581 170.616C99.0581 169.272 98.1701 168.432 96.6341 168.432C94.9781 168.432 93.8981 169.608 93.6101 171.288L90.3941 170.808C90.8261 167.88 93.1301 165.504 96.7541 165.504C100.306 165.504 102.442 167.568 102.442 170.4C102.442 172.152 101.41 173.568 100.042 174.096C101.65 174.648 102.898 175.92 102.898 178.104C102.898 180.912 100.498 183.264 96.6581 183.264Z" fill="#232729"/>
<g filter="url(#filter1_d_2016_725)">
<rect x="40" y="256" width="166" height="40" rx="8" fill="white" shape-rendering="crispEdges"/>
<rect x="40.25" y="256.25" width="165.5" height="39.5" rx="7.75" stroke="#D2DFE6" stroke-width="0.5" shape-rendering="crispEdges"/>
<path d="M72.768 282V280.816C72.304 281.584 71.184 282.176 69.68 282.176C66.704 282.176 64.496 279.776 64.496 276.304C64.496 272.816 66.72 270.336 69.808 270.336C72.16 270.336 73.744 271.6 74.448 273.632L72.496 274.288C72.16 272.928 71.2 272.144 69.824 272.144C67.888 272.144 66.544 273.792 66.544 276.272C66.544 278.752 67.888 280.416 69.856 280.416C71.52 280.416 72.608 279.232 72.672 277.6H69.648V275.808H74.64V282H72.768ZM80.825 282.176C78.425 282.176 76.745 280.4 76.745 277.808C76.745 275.344 78.409 273.44 80.745 273.44C83.177 273.44 84.473 275.28 84.473 277.584V278.224H78.585C78.729 279.664 79.593 280.544 80.825 280.544C81.769 280.544 82.521 280.064 82.777 279.2L84.425 279.824C83.833 281.296 82.505 282.176 80.825 282.176ZM80.729 275.056C79.737 275.056 78.969 275.648 78.681 276.784H82.537C82.521 275.856 81.945 275.056 80.729 275.056ZM86.7296 279.888V275.232H85.5616V273.6H86.7296V271.136H88.6176V273.6H90.3776V275.232H88.6176V279.584C88.6176 280.336 89.0496 280.416 89.7376 280.416C90.0576 280.416 90.2336 280.4 90.5216 280.368V281.984C90.1696 282.048 89.6896 282.096 89.1936 282.096C87.5936 282.096 86.7296 281.6 86.7296 279.888ZM98.7607 282.144C97.1607 282.144 95.9287 281.168 95.9287 279.664C95.9287 278.064 97.1287 277.36 98.7447 277.024L101.065 276.544V276.4C101.065 275.6 100.649 275.104 99.6247 275.104C98.7127 275.104 98.2327 275.52 98.0087 276.336L96.2007 275.92C96.6167 274.528 97.8487 273.44 99.7047 273.44C101.721 273.44 102.937 274.4 102.937 276.336V279.952C102.937 280.432 103.145 280.576 103.673 280.512V282C102.281 282.16 101.545 281.888 101.257 281.2C100.729 281.792 99.8487 282.144 98.7607 282.144ZM101.065 279.04V278.016L99.2567 278.4C98.4407 278.576 97.8327 278.832 97.8327 279.584C97.8327 280.24 98.3127 280.608 99.0487 280.608C100.073 280.608 101.065 280.064 101.065 279.04ZM109.694 282V270.512H113.534C117.102 270.512 119.31 272.752 119.31 276.256C119.31 279.76 117.102 282 113.534 282H109.694ZM111.694 280.24H113.534C115.902 280.24 117.294 278.672 117.294 276.256C117.294 273.824 115.902 272.272 113.518 272.272H111.694V280.24ZM125.024 282.176C122.624 282.176 120.944 280.4 120.944 277.808C120.944 275.344 122.608 273.44 124.944 273.44C127.376 273.44 128.672 275.28 128.672 277.584V278.224H122.784C122.928 279.664 123.792 280.544 125.024 280.544C125.968 280.544 126.72 280.064 126.976 279.2L128.624 279.824C128.032 281.296 126.704 282.176 125.024 282.176ZM124.928 275.056C123.936 275.056 123.168 275.648 122.88 276.784H126.736C126.72 275.856 126.144 275.056 124.928 275.056ZM132.673 277.072V282H130.753V273.6H132.673V274.496C133.137 273.936 133.857 273.44 134.977 273.44C135.985 273.44 136.737 273.888 137.201 274.608C137.713 274.064 138.513 273.44 139.809 273.44C141.537 273.44 142.657 274.656 142.657 276.464V282H140.737V277.024C140.737 275.984 140.353 275.232 139.329 275.232C138.513 275.232 137.665 275.872 137.665 277.072V282H135.745V277.024C135.745 275.984 135.361 275.232 134.337 275.232C133.521 275.232 132.673 275.872 132.673 277.072ZM152.82 277.808C152.82 280.416 151.14 282.176 148.772 282.176C146.404 282.176 144.724 280.416 144.724 277.808C144.724 275.2 146.404 273.44 148.772 273.44C151.14 273.44 152.82 275.2 152.82 277.808ZM146.66 277.808C146.66 279.52 147.476 280.56 148.772 280.56C150.068 280.56 150.884 279.52 150.884 277.808C150.884 276.096 150.068 275.056 148.772 275.056C147.476 275.056 146.66 276.096 146.66 277.808Z" fill="#232729"/>
<path d="M177 271H169.5M177 271V278.5M177 271L171.583 276.417M167 281L169.083 278.917" stroke="#232729" stroke-width="1.5" stroke-linecap="round" stroke-linejoin="round"/>
</g>
</g>
<defs>
<filter id="filter0_d_2016_725" x="0" y="0" width="400" height="328" filterUnits="userSpaceOnUse" color-interpolation-filters="sRGB">
<feFlood flood-opacity="0" result="BackgroundImageFix"/>
<feColorMatrix in="SourceAlpha" type="matrix" values="0 0 0 0 0 0 0 0 0 0 0 0 0 0 0 0 0 0 127 0" result="hardAlpha"/>
<feOffset dx="-4" dy="-4"/>
<feGaussianBlur stdDeviation="10"/>
<feComposite in2="hardAlpha" operator="out"/>
<feColorMatrix type="matrix" values="0 0 0 0 0 0 0 0 0 0 0 0 0 0 0 0 0 0 0.06 0"/>
<feBlend mode="normal" in2="BackgroundImageFix" result="effect1_dropShadow_2016_725"/>
<feBlend mode="normal" in="SourceGraphic" in2="effect1_dropShadow_2016_725" result="shape"/>
</filter>
<filter id="filter1_d_2016_725" x="37" y="253" width="174" height="48" filterUnits="userSpaceOnUse" color-interpolation-filters="sRGB">
<feFlood flood-opacity="0" result="BackgroundImageFix"/>
<feColorMatrix in="SourceAlpha" type="matrix" values="0 0 0 0 0 0 0 0 0 0 0 0 0 0 0 0 0 0 127 0" result="hardAlpha"/>
<feOffset dx="1" dy="1"/>
<feGaussianBlur stdDeviation="2"/>
<feComposite in2="hardAlpha" operator="out"/>
<feColorMatrix type="matrix" values="0 0 0 0 0 0 0 0 0 0 0 0 0 0 0 0 0 0 0.04 0"/>
<feBlend mode="normal" in2="BackgroundImageFix" result="effect1_dropShadow_2016_725"/>
<feBlend mode="normal" in="SourceGraphic" in2="effect1_dropShadow_2016_725" result="shape"/>
</filter>
</defs>
</svg>
