<svg width="62" height="62" viewBox="0 0 62 62" fill="none" xmlns="http://www.w3.org/2000/svg">
<path d="M31 0C45.2482 0 45.2482 16.7518 45.2482 16.7518C45.2482 16.7518 62 16.7518 62 31C62 45.2482 45.2482 45.2482 45.2482 45.2482C45.2482 45.2482 45.2482 62 31 62C16.7518 62 16.7518 45.2482 16.7518 45.2482C16.7518 45.2482 0 45.2482 0 31C0 16.7518 16.7518 16.7518 16.7518 16.7518C16.7518 16.7518 16.7518 0 31 0Z" fill="#BEEA0E"/>
<path d="M30.0537 21.7712C30.3618 20.8688 31.6382 20.8688 31.9463 21.7712L33.8961 27.4808C33.9961 27.7738 34.2262 28.0039 34.5192 28.1039L40.2288 30.0537C41.1312 30.3618 41.1312 31.6382 40.2288 31.9463L34.5192 33.8961C34.2262 33.9961 33.9961 34.2262 33.8961 34.5192L31.9463 40.2288C31.6382 41.1312 30.3618 41.1312 30.0537 40.2288L28.1039 34.5192C28.0039 34.2262 27.7738 33.9961 27.4808 33.8961L21.7712 31.9463C20.8688 31.6382 20.8688 30.3618 21.7712 30.0537L27.4808 28.1039C27.7738 28.0039 28.0039 27.7738 28.1039 27.4808L30.0537 21.7712Z" fill="#F9FFE0"/>
</svg>
